<svg xmlns="http://www.w3.org/2000/svg" width="1240" height="1240"><path d="M0 620.001v620.001l620.25-.251 620.25-.251.251-619.75.251-619.75H0v620.001m.497.499c0 341 .114 480.649.253 310.332s.139-449.317 0-620S.497 279.5.497 620.5M641.25 40.706c-1.237.238-2.25 1.099-2.25 1.913 0 .814-1.63 3.145-3.623 5.181-1.992 2.035-4.061 4.937-4.597 6.45-.537 1.513-1.342 2.75-1.79 2.75-.448 0-1.118 1.8-1.49 4-.372 2.2-1.139 4-1.705 4-.565 0-.791.909-.5 2.02.291 1.111-.073 3.699-.808 5.75-.735 2.052-1.65 4.63-2.033 5.73-1.15 3.304-.591 15.554.933 20.434.784 2.511 2.858 10.191 4.608 17.066 1.751 6.875 3.593 13.281 4.094 14.236.501.955.911 2.563.911 3.572 0 1.01.611 3.828 1.358 6.264 2.022 6.591 5.189 17.954 8.621 30.928 1.19 4.5 3.852 14.244 5.464 20 1.327 4.739 3.847 14.118 6.045 22.5.721 2.75 2.053 7.7 2.959 11 .907 3.3 2.132 7.8 2.723 10 .592 2.2 1.641 6.025 2.333 8.5a898.488 898.488 0 012.966 11c2.697 10.264 4.639 17.161 6.111 21.699.749 2.309 1.582 5.684 1.851 7.5.904 6.094 2.21 11.284 3.394 13.485.646 1.202 1.173 3.227 1.17 4.5-.003 1.274.64 4.341 1.429 6.816 1.517 4.76 3.538 11.922 5.927 21 2.641 10.032 4.791 17.475 5.635 19.5 2.565 6.154 5.301 11.559 6.101 12.053.502.311.913 1.438.913 2.506 0 1.068.39 1.941.867 1.941s2 1.688 3.384 3.75c8.015 11.941 22.469 22.472 38.749 28.232 12.587 4.453 39.686 4.607 50 .284 1.375-.576 4.525-1.828 7-2.783 4.99-1.924 7.675-3.064 16.5-7.005 3.3-1.474 7.35-3.234 9-3.91 3.083-1.263 7.361-3.12 13.5-5.862a819.738 819.738 0 0119-8.184c3.575-1.489 6.927-3.116 7.45-3.615.522-.499 1.604-.907 2.404-.907.799 0 3.746-1.074 6.55-2.386a471.787 471.787 0 0110.096-4.555c13.935-6.044 15.387-6.68 21.5-9.412 3.025-1.353 9.506-4.115 14.402-6.139 4.895-2.024 9.62-4.025 10.5-4.447 1.691-.811 6.944-3.134 12.348-5.46a705.976 705.976 0 008.75-3.878 390.582 390.582 0 0111-4.715 321.61 321.61 0 0010.5-4.525c2.75-1.259 6.8-3.038 9-3.953 5.214-2.171 6.682-2.811 14.82-6.467 3.751-1.684 7.119-3.063 7.485-3.063.367 0 2.923-1.067 5.681-2.372s7.489-3.387 10.514-4.628c3.025-1.241 7.756-3.323 10.514-4.628 2.758-1.305 5.516-2.372 6.128-2.372.612 0 1.673-.675 2.358-1.5 1.39-1.675 5.559-2.023 6.475-.54.326.527-.94 2.665-2.814 4.75-1.874 2.084-10.442 13.465-19.041 25.29s-16.059 22.019-16.577 22.654c-.518.634-5.687 7.609-11.486 15.5-5.8 7.89-10.938 14.826-11.419 15.413-1.469 1.792-12.541 16.991-14.138 19.408-.825 1.249-1.992 2.787-2.594 3.42-.601.632-2.236 2.94-3.632 5.127-1.396 2.188-3.544 5.103-4.774 6.478s-3.247 4.082-4.482 6.015c-1.235 1.933-2.982 4.125-3.882 4.872-.9.747-1.636 1.801-1.636 2.342 0 .541-1.459 2.848-3.241 5.127-4.111 5.256-3.64 4.623-10.906 14.644-3.39 4.675-6.454 8.725-6.809 9-.354.275-2.074 2.852-3.821 5.727-3.112 5.122-3.135 5.25-1.146 6.314 1.843.986 1.989 1.822 1.583 9.03-.246 4.368-.045 8.191.446 8.495.492.304.893 1.763.892 3.243-.003 2.721 8.407 16.191 10.108 16.191.492 0 .913.788.937 1.75.051 2.055 23.276 19.25 26.001 19.25.526 0 .956.42.956.933 0 .513.986 1.245 2.192 1.628 1.206.383 5.039 2.438 8.518 4.567 3.479 2.13 6.937 3.872 7.685 3.872.748 0 1.92.675 2.605 1.5s1.672 1.5 2.194 1.5 1.624.675 2.449 1.5c.825.825 2.368 1.5 3.428 1.5 1.061 0 1.929.675 1.929 1.5 0 2.841 2.943 1.491 5.993-2.75 15.248-21.201 20.589-28.73 23.502-33.129 1.865-2.816 6.23-9.006 9.698-13.754 3.469-4.748 6.982-9.644 7.807-10.879.825-1.236 5.325-7.59 10-14.119 4.675-6.53 11.65-16.425 15.5-21.989 3.85-5.564 7.471-10.625 8.048-11.248.576-.623 2.732-3.607 4.791-6.632 4.597-6.753 14.537-20.946 16.909-24.144 6.678-9.003 13.752-18.96 13.752-19.356 0-.26 2.676-4.125 5.946-8.589 7.169-9.788 13.666-22.574 14.971-29.467 1.388-7.33-.891-15.685-6.702-24.565-2.069-3.163-16.532-21.254-23.038-28.817-5.973-6.944-7.782-9.284-8.278-10.708-.219-.631-2.053-3.106-4.076-5.5-2.022-2.395-6.679-8.179-10.35-12.854-7.797-9.932-11.912-15.047-14.564-18.105-1.05-1.21-1.909-2.474-1.909-2.808 0-.334-1.02-1.728-2.266-3.097-1.247-1.37-4.059-4.74-6.25-7.49s-4.221-5.225-4.51-5.5c-.29-.275-3.352-4.1-6.806-8.5-7.856-10.009-14.574-16.903-18.016-18.489-1.458-.672-4.078-1.9-5.82-2.73-6.426-3.058-22.354-.286-38.832 6.761-2.2.94-6.475 2.7-9.5 3.91-3.025 1.21-6.85 2.784-8.5 3.498-1.65.714-5.025 2.084-7.5 3.044-2.475.96-5.4 2.117-6.5 2.571a1429.648 1429.648 0 00-14.5 6.13 888.007 888.007 0 01-6 2.567 164.373 164.373 0 00-6.331 2.86c-1.557.758-3.657 1.378-4.667 1.378-1.009 0-1.985.338-2.169.75-.308.694-14.632 6.839-22.919 9.832-4.143 1.496-14.602 6.043-17.15 7.456-.955.529-2.233.962-2.839.962-.606 0-4.018 1.35-7.583 3-3.565 1.65-6.864 3-7.331 3-.467 0-2.123.633-3.68 1.407a104.624 104.624 0 01-5.331 2.446c-1.375.571-4.75 1.987-7.5 3.147-7.169 3.024-8.479 3.558-13.5 5.506a334.88 334.88 0 00-7.5 3.015c-1.65.697-4.125 1.741-5.5 2.319-1.375.578-4.75 2-7.5 3.16-15.041 6.345-15.766 6.636-19.571 7.855-1.964.63-4.289 1.145-5.167 1.145-.877 0-1.745.358-1.929.795-.593 1.415-8.824 5.205-11.305 5.205-1.325 0-2.667.415-2.98.923-.314.508-1.99 1.235-3.724 1.616-1.734.381-5.171 1.765-7.637 3.077-2.467 1.311-5.205 2.398-6.086 2.416-.881.017-2.475.692-3.542 1.5-2.206 1.668-9.559 2.004-9.559.437 0-.568.788-1.279 1.75-1.581.962-.302 3.55-1.363 5.75-2.358 2.2-.995 5.681-2.342 7.736-2.992 2.055-.651 3.994-1.601 4.309-2.111.315-.51 1.729-.927 3.141-.927 1.413 0 5.324-1.301 8.691-2.891 3.368-1.59 7.543-3.427 9.278-4.082 1.735-.655 3.392-2.099 3.682-3.209.573-2.19 2.663-1.608 2.663.741 0 .793.675 1.441 1.5 1.441 1.946 0 1.937-3.558-.024-9.715-2.26-7.099-8.063-27.008-11.014-37.785-.903-3.3-2.207-7.8-2.898-10-.69-2.2-1.966-6.475-2.834-9.5-.869-3.025-2.713-9.325-4.098-14-1.385-4.675-2.82-10.192-3.189-12.261-.368-2.069-1.069-4.008-1.556-4.309-.488-.301-.887-1.406-.887-2.454 0-1.048-.679-4.059-1.509-6.691-2.977-9.437-4.29-13.884-5.99-20.285-.949-3.575-2.089-7.625-2.534-9-.444-1.375-1.559-5.2-2.477-8.5-.919-3.3-2.246-7.8-2.949-10-1.465-4.585-4.129-13.717-6.127-21-7.881-28.727-10.718-37.372-15.259-46.5-3.34-6.715-7.027-10.513-13.52-13.929L699.797 40l-28.149.136c-15.481.075-29.161.331-30.398.57m-101.482 1.019c1.797.222 4.497.218 6-.01 1.503-.229.032-.411-3.268-.405-3.3.005-4.529.192-2.732.415m31.482.023c9.763.164 25.738.164 35.5 0 9.763-.163 1.775-.297-17.75-.297s-27.512.134-17.75.297m58.019-.055c.973.254 2.323.237 3-.037.677-.274-.119-.481-1.769-.461-1.65.02-2.204.244-1.231.498M528.5 44c-.34.55.309 1 1.441 1 1.132 0 2.059-.45 2.059-1s-.648-1-1.441-1-1.719.45-2.059 1m163 0c-.34.55.335 1 1.5 1s1.84-.45 1.5-1c-.34-.55-1.015-1-1.5-1-.485 0-1.16.45-1.5 1m-27.75.744c4.538.185 11.962.185 16.5 0s.825-.337-8.25-.337-12.788.152-8.25.337m-139.083 1.923c-1.215 1.214-.691 2.28.833 1.695.825-.317 1.5-.978 1.5-1.469 0-1.048-1.378-1.182-2.333-.226M641.5 47c-.34.55-.168 1 .382 1s1.278-.45 1.618-1c.34-.55.168-1-.382-1s-1.278.45-1.618 1m-120.151 3.607c-.384 1.041-1.295 2.253-2.024 2.693-1.52.917-1.8 3.7-.372 3.7 1.208 0 4.517-6.864 3.701-7.679-.334-.334-.921.245-1.305 1.286m117.207.303c-.679 1.098.355 4.09 1.412 4.09.415 0 .54-1.125.277-2.5-.518-2.706-.822-2.993-1.689-1.59m69.444.935c0 .968 3.32 4.155 4.329 4.155 1.326 0 .636-2.306-1.079-3.608-2.032-1.542-3.25-1.747-3.25-.547m4.441 7.623c-1.067.808-1.415 1.483-.773 1.5.643.018 1.88.305 2.75.639 1.134.435 1.582.01 1.582-1.5 0-2.483-.906-2.646-3.559-.639M516 60.5c0 .825.177 1.5.393 1.5.216 0 .652-.675.969-1.5.316-.825.139-1.5-.393-1.5-.533 0-.969.675-.969 1.5M642 66c0 .55.477 1 1.059 1s.781-.45.441-1-.816-1-1.059-1-.441.45-.441 1m75 2.531c0 .843.672 1.79 1.493 2.105.986.378 1.298 1.349.919 2.859-.316 1.258-.139 2.556.393 2.885 2.012 1.243 2.071-3.746.077-6.546-2.293-3.22-2.882-3.486-2.882-1.303M630 69c0 .55.45 1 1 1s1-.45 1-1-.45-1-1-1-1 .45-1 1m81.553 1.915a1.116 1.116 0 00.362 1.532c.521.322 1.21.159 1.532-.362a1.116 1.116 0 00-.362-1.532 1.116 1.116 0 00-1.532.362M510.75 73.572c-.413.419-.75 1.901-.75 3.295 0 1.82.305 2.228 1.085 1.448.596-.596.934-2.079.75-3.295-.184-1.215-.672-1.867-1.085-1.448m212.329 7.011c.048 1.165.285 1.402.604.605.289-.722.253-1.585-.079-1.917-.332-.332-.568.258-.525 1.312M715 83c0 1.867.267 2.133 1.2 1.2.933-.933.933-1.467 0-2.4-.933-.933-1.2-.667-1.2 1.2m-207.333 1.667C506.629 85.704 506.883 89 508 89c.55 0 1-1.125 1-2.5 0-2.618-.231-2.936-1.333-1.833m213.021-.021c-1.374 1.374-.662 3.496 1.062 3.164.962-.186 1.75-.969 1.75-1.74 0-1.579-1.764-2.472-2.812-1.424M714 90.833c0 2.547 1.067 3.356 2.67 2.026 1.023-.849 1.077-1.459.22-2.492-1.588-1.912-2.89-1.702-2.89.466m11.531-.54c-.428.986-.497 2.074-.155 2.417 1.016 1.015 1.835-.411 1.367-2.382-.414-1.747-.468-1.748-1.212-.035M505.195 95.5c.02 1.65.244 2.204.498 1.231.254-.973.237-2.323-.037-3-.274-.677-.481.119-.461 1.769m105.353.75c-.419.963-.419 2.537 0 3.5.725 1.667.781 1.667 1.18 0 .23-.963.23-2.537 0-3.5-.399-1.667-.455-1.667-1.18 0M628 100.531c0 2.217.559 3.746 1.5 4.107.973.374 1.5 1.925 1.5 4.412 0 3.716 3.33 10.95 5.04 10.95 1.965 0 1.753-1.93-.498-4.55-2.512-2.923-2.636-3.269-4.529-12.7-1.285-6.398-3.013-7.671-3.013-2.219m97.636-2.024c-.386 1.005-.244 2.285.315 2.844 1.528 1.528 2.203.24 1.239-2.366-.773-2.091-.918-2.135-1.554-.478m-223.965 6.641c-.333 1.275-.23 2.693.228 3.151 1.086 1.086 2.08-2.715 1.117-4.273-.486-.787-.946-.403-1.345 1.122M715 106.559c0 1.451.433 2.292 1 1.941.55-.34 1-1.491 1-2.559s-.45-1.941-1-1.941-1 1.152-1 2.559M607.787 108c-.242 1.65-.069 3 .386 3s.827-1.35.827-3-.174-3-.387-3c-.212 0-.584 1.35-.826 3M720 111c0 .55.45 1 1 1s1-.45 1-1-.45-1-1-1-1 .45-1 1m10-.059c0 .518.45 1.219 1 1.559.55.34 1-.084 1-.941s-.45-1.559-1-1.559-1 .423-1 .941M499.232 115c0 1.925.206 2.713.457 1.75.252-.963.252-2.537 0-3.5-.251-.963-.457-.175-.457 1.75m106 4c0 1.925.206 2.713.457 1.75.252-.963.252-2.537 0-3.5-.251-.963-.457-.175-.457 1.75m-108.503 3.604c-.401.401-.729 1.419-.729 2.263 0 1.125.296 1.237 1.113.42.611-.611.94-1.63.729-2.262-.211-.633-.712-.822-1.113-.421M639 125.5c0 1.375.45 2.5 1 2.5s1-1.125 1-2.5-.45-2.5-1-2.5-1 1.125-1 2.5m-36.93 3.75c.059 2.724.21 2.926.93 1.25 1.187-2.763 1.187-4.5 0-4.5-.55 0-.968 1.463-.93 3.25m-108.403 3.417c-1.047 1.047-.779 5.333.333 5.333.55 0 1-1.35 1-3 0-3.107-.204-3.463-1.333-2.333m105.348 6.083c.012 2.789.264 3.366.985 2.25 1.274-1.971 1.274-6 0-6-.55 0-.993 1.688-.985 3.75m40.495-1.734c.346.559 1.047.758 1.559.441 1.387-.857 1.129-1.457-.628-1.457-.857 0-1.276.457-.931 1.016m97.49.043c0 .582.45.781 1 .441s1-.816 1-1.059-.45-.441-1-.441-1 .477-1 1.059m2.729 4.545c-1.352 1.353-.742 5.584 1.515 10.504 2.28 4.971 4.444 6.747 3.219 2.642l-2.166-7.25c-.822-2.75-1.572-5.366-1.666-5.812-.095-.447-.501-.485-.902-.084m-249.107 2.221c-.443 1.279-.539 2.592-.213 2.917 1.036 1.037 1.765-.492 1.385-2.906l-.368-2.336-.804 2.325m149.378.116c0 1.132.45 2.059 1 2.059s1-.648 1-1.441-.45-1.719-1-2.059c-.55-.34-1 .309-1 1.441m-43.25 3.636c-.413.416-.75 1.671-.75 2.79 0 1.471.302 1.731 1.094.939.601-.601.939-1.857.75-2.789-.189-.933-.681-1.356-1.094-.94M487.822 153.5c-.645 2.996-.333 4.344.753 3.258.317-.316.422-1.854.234-3.417l-.342-2.841-.645 3M647 159c0 .55.45 1 1 1s1-.45 1-1-.45-1-1-1-1 .45-1 1m14 .5c0 .825.45 1.5 1 1.5s1-.675 1-1.5-.45-1.5-1-1.5-1 .675-1 1.5m79 .059c0 .857.457 1.276 1.016.931.559-.346.758-1.047.441-1.559-.857-1.387-1.457-1.129-1.457.628m-146.269 2.361c-.435 1.663-.305 2.054.437 1.312.582-.582.86-1.647.62-2.369-.25-.749-.703-.295-1.057 1.057m-108.716 1.83c-.008 1.787.158 3.25.368 3.25.91 0 1.296-3.898.51-5.139-.586-.925-.867-.321-.878 1.889m257.624-2.056c-1.281 1.281-.591 3.855 1.361 5.074 1.1.687 2 1.92 2 2.74 0 1.979 1.625 1.911 2.397-.101.408-1.062-.056-1.767-1.393-2.116-1.28-.335-2.004-1.364-2.004-2.849 0-2.41-1.247-3.862-2.361-2.748m-97.56 2.889c.048 1.165.285 1.402.604.605.289-.722.253-1.585-.079-1.917-.332-.332-.568.258-.525 1.312m13.504-.717c-.431.697-.513 1.537-.183 1.867.895.895 1.871-.421 1.387-1.871-.338-1.016-.574-1.016-1.204.004M734 169.5c0 1.375.45 2.5 1 2.5s1-1.125 1-2.5-.45-2.5-1-2.5-1 1.125-1 2.5m-143.231 1.456c-.691 2.461-.278 3.886.812 2.797.319-.32.423-1.632.229-2.917l-.351-2.336-.69 2.456M648 172.059c0 1.785.417 2.802 1 2.441.55-.34 1-1.716 1-3.059 0-1.343-.45-2.441-1-2.441s-1 1.377-1 3.059m-165.985 1.691c.012 2.143.23 2.419.985 1.25 1.264-1.957 1.264-4 0-4-.55 0-.993 1.238-.985 2.75m179.516-1.457c-.428.986-.497 2.074-.155 2.417 1.016 1.015 1.835-.411 1.367-2.382-.414-1.747-.468-1.748-1.212-.035m78.469.648c0 1.132.45 2.059 1 2.059s1-.648 1-1.441-.45-1.719-1-2.059c-.55-.34-1 .309-1 1.441M588.195 181.5c.02 1.65.244 2.204.498 1.231.254-.973.237-2.323-.037-3-.274-.677-.481.119-.461 1.769M651 182.631c0 2.037.117 3.515.261 3.286.143-.229 1.08-1.394 2.083-2.587 1.772-2.111 1.765-2.201-.261-3.286-1.936-1.036-2.083-.854-2.083 2.587M479.757 182c-1.106 3.789-.97 5.613.321 4.322.593-.593.928-2.371.743-3.95l-.335-2.872-.729 2.5M751 186.255c0 .825.675 2.06 1.5 2.745 1.22 1.012 1.5.965 1.5-.255 0-.825-.675-2.06-1.5-2.745-1.22-1.012-1.5-.965-1.5.255m-165.932 5.795c.063 3.24.134 3.311 1.167 1.167.813-1.687.796-2.586-.068-3.45-.889-.889-1.151-.347-1.099 2.283m-108.494.247c-.448 1.538-.535 3.075-.194 3.416 1.119 1.12 1.778-.478 1.39-3.372l-.381-2.841-.815 2.797m177.195-.718c-.717 1.178 2.154 8.421 3.338 8.421 1.26 0 1.114-3.745-.177-4.543-.589-.364-1.415-1.593-1.835-2.73-.421-1.138-1.018-1.655-1.326-1.148M756 198.5c0 .825.45 1.5 1 1.5s1-.675 1-1.5-.45-1.5-1-1.5-1 .675-1 1.5m-94.968 1.75c-.018 1.512.391 2.75.909 2.75 1.743 0 2.005-1.692.559-3.603-1.361-1.797-1.438-1.753-1.468.853m-186.837 2.25c.02 1.65.244 2.204.498 1.231.254-.973.237-2.323-.037-3-.274-.677-.481.119-.461 1.769M740 201.059c0 .582.45.781 1 .441s1-.816 1-1.059-.45-.441-1-.441-1 .477-1 1.059M582 203c0 1.867.267 2.133 1.2 1.2.933-.933.933-1.467 0-2.4-.933-.933-1.2-.667-1.2 1.2m75.564 2.707c-.542 1.425-.428 1.54.56.56.684-.679.991-1.486.683-1.793-.308-.308-.867.247-1.243 1.233M756 209.5c0 .825.45 1.5 1 1.5s1-.675 1-1.5-.45-1.5-1-1.5-1 .675-1 1.5m-284.805 3c.02 1.65.244 2.204.498 1.231.254-.973.237-2.323-.037-3-.274-.677-.481.119-.461 1.769m108.141-.933c-.331.862-.092 2.077.531 2.7.844.844 1.133.444 1.133-1.567 0-3.009-.749-3.518-1.664-1.133m179.679 2.183c.037 1.778 1.747 3.444 2.419 2.357.376-.609.406-1.557.066-2.107-.721-1.166-2.507-1.346-2.485-.25M660 216.418c0 2.366 2.208 6.571 3.146 5.992 1.637-1.012.864-5.334-1.146-6.41-1.584-.847-2-.76-2 .418m-191.25 3.159c-.413.416-.736 1.919-.72 3.34.027 2.266.158 2.364 1.068.802 1.138-1.957.853-5.354-.348-4.142m108.502 2.923c.011 2.2.216 2.982.455 1.738.239-1.244.23-3.044-.02-4s-.446.062-.435 2.262m178.94-2.425c.197.591.785 1.075 1.308 1.075s1.111-.484 1.308-1.075c.197-.591-.391-1.075-1.308-1.075s-1.505.484-1.308 1.075m5.058 2.643c-.687.247-1.25 1.095-1.25 1.884 0 1.032.703 1.26 2.5.809 3.221-.809 3.432 1.968.395 5.201-1.978 2.105-1.906 4.388.138 4.388 1.843 0 3.999-5.786 3.068-8.235-1.102-2.898-3.193-4.643-4.851-4.047m-97.235 6.032c.009.412.452 1.425.985 2.25.784 1.213.972 1.069.985-.75.008-1.238-.435-2.25-.985-2.25s-.993.338-.985.75m-198.484 2.543c-.428.986-.497 2.074-.155 2.417 1.016 1.015 1.835-.411 1.367-2.382-.414-1.747-.468-1.748-1.212-.035M574.232 233c0 1.925.206 2.713.457 1.75.252-.963.252-2.537 0-3.5-.251-.963-.457-.175-.457 1.75m-111.61 7.825c-.443 1.279-.539 2.592-.213 2.917 1.036 1.037 1.765-.492 1.385-2.906l-.368-2.336-.804 2.325M571.232 245c0 1.925.206 2.713.457 1.75.252-.963.252-2.537 0-3.5-.251-.963-.457-.175-.457 1.75m194.997-1.812c.618 1.854 2.771 2.161 2.771.395 0-.87-.712-1.583-1.583-1.583s-1.406.534-1.188 1.188m3.771 5.086c0 1.985.425 3.871.945 4.192 1.089.673.881-5.973-.222-7.076-.398-.398-.723.9-.723 2.884m-8.823-.607c.486 2.509 2.823 2.853 2.823.416 0-1.228-.646-2.083-1.573-2.083-.932 0-1.442.68-1.25 1.667m-93.145-.325c-.018.464.868 1.987 1.968 3.385 1.1 1.399 2 3.805 2 5.349 0 3.534 1.575 4.638 2.373 1.663.99-3.697.71-5.739-.79-5.739-.779 0-2.339-1.238-3.468-2.75-1.128-1.512-2.066-2.371-2.083-1.908M167 250.059c0 .582.45.781 1 .441s1-.816 1-1.059-.45-.441-1-.441-1 .477-1 1.059m292.822 1.441c-.645 2.996-.333 4.344.753 3.258.317-.316.422-1.854.234-3.417l-.342-2.841-.645 3m108.928-.929c-.413.419-.75 2.127-.75 3.796 0 2.169.307 2.726 1.078 1.955.593-.593.931-2.301.75-3.796-.18-1.495-.665-2.375-1.078-1.955m113 4.006c-.413.416-.75 1.671-.75 2.79 0 1.471.302 1.731 1.094.939.601-.601.939-1.857.75-2.789-.189-.933-.681-1.356-1.094-.94m84.329 1.006c.048 1.165.285 1.402.604.605.289-.722.253-1.585-.079-1.917-.332-.332-.568.258-.525 1.312M457.232 261c0 1.925.206 2.712.457 1.75.252-.962.252-2.538 0-3.5-.251-.962-.457-.175-.457 1.75m108.488 2.332c-.396 1.007-.691 2.807-.657 4 .061 2.057.114 2.043 1.038-.27.535-1.34.831-3.14.657-4-.261-1.285-.445-1.237-1.038.27m202.947-.665c-.961.96-.822 4.333.178 4.333.968 0 4.155-3.32 4.155-4.329 0-.87-3.464-.873-4.333-.004m-95.191 4.372c-1.008 1.63 1.231 3.654 2.566 2.319.724-.724.598-1.412-.411-2.249-1.074-.891-1.636-.91-2.155-.07m8.986 1.023c-.361.584-1.765 1.483-3.119 1.998-2.502.951-2.382 2.94.177 2.94 1.472 0 5.48-3.795 5.48-5.189 0-1.172-1.767-.997-2.538.251m91.538.855c0 1.228.646 2.083 1.573 2.083.932 0 1.442-.68 1.25-1.667-.486-2.509-2.823-2.853-2.823-.416m-319.985 2.333c.012 2.466.249 2.888.985 1.75 1.27-1.965 1.27-5 0-5-.55 0-.993 1.462-.985 3.25m108.607 3.575c-.443 1.279-.539 2.592-.213 2.917 1.036 1.037 1.765-.492 1.385-2.906l-.368-2.336-.804 2.325M676 276.441c0 .857.45 1.559 1 1.559s1-.423 1-.941-.45-1.219-1-1.559c-.55-.34-1 .084-1 .941m5 1.559c0 1.1.45 2 1 2s1-.9 1-2-.45-2-1-2-1 .9-1 2m392.412-.631c-.751 1.956.272 3.631 2.217 3.631.981 0 1.398-.76 1.191-2.172-.388-2.637-2.594-3.581-3.408-1.459m5.588.579c0 .452 1.155 1.579 2.567 2.504 2.015 1.32 2.875 1.426 4 .492 2.647-2.196 1.617-3.706-2.567-3.763-2.2-.031-4 .314-4 .767M763.5 280c.34.55 1.041 1 1.559 1s.941-.45.941-1-.702-1-1.559-1-1.281.45-.941 1m299.25.758c-3.502 2.171-3.492 3.242.027 3.242 3.164 0 7.546-2.669 6.681-4.068-.874-1.414-3.646-1.073-6.708.826M560.272 285c0 2.475.195 3.488.434 2.25.238-1.238.238-3.262 0-4.5-.239-1.238-.434-.225-.434 2.25m185.228-2c.34.55 1.491 1 2.559 1s1.941-.45 1.941-1-1.152-1-2.559-1c-1.451 0-2.292.433-1.941 1m-68.35.887c-1.884 1.193 3.042 8.527 7.226 10.758 9.39 5.007 12.36 6.299 14.624 6.359 1.375.037 3.625.71 5 1.496 3.355 1.918 14.038 1.938 16.559.032 1.067-.808 3.542-1.483 5.5-1.5 1.957-.018 4.432-.67 5.499-1.451 1.858-1.358 1.817-1.449-.986-2.152-1.725-.433-4.185-.236-5.998.481-1.691.668-4.874 1.349-7.074 1.513-4.828.361-16.515-1.192-17.961-2.386-.572-.472-2.71-1.17-4.753-1.552-2.043-.382-4.236-1.322-4.873-2.09-.637-.767-2.017-1.395-3.067-1.395-1.05 0-2.168-.675-2.484-1.5-.317-.825-1.173-1.5-1.903-1.5-.729 0-1.469-1.203-1.643-2.673-.347-2.932-1.586-3.757-3.666-2.44m377.291 1.642c-1.88 1.481-1.864 1.521.481 1.25 1.332-.153 2.607-.841 2.833-1.529.56-1.701-.963-1.573-3.314.279M687 287c0 1.1.45 2 1 2s1-.9 1-2-.45-2-1-2-1 .9-1 2m-550.5 1c-.34.55-.141 1 .441 1s1.059-.45 1.059-1-.198-1-.441-1-.719.45-1.059 1m909.959.067c-1.01 1.634.03 2.099 3.018 1.349 1.992-.5 2.356-.907 1.368-1.533-1.841-1.167-3.597-1.094-4.386.184M557.252 295.5c.011 2.2.216 2.982.455 1.738.239-1.244.23-3.044-.02-4s-.446.062-.435 2.262m163.561-1.817c.721.289 1.584.253 1.916-.079.332-.332-.258-.568-1.312-.525-1.165.048-1.402.285-.604.604M1097 294c0 .55.45 1 1 1s1-.45 1-1-.45-1-1-1-1 .45-1 1m-902.5 4c.34.55.816 1 1.059 1s.441-.45.441-1-.477-1-1.059-1-.781.45-.441 1m908.313 1.683c.721.289 1.584.253 1.916-.079.332-.332-.258-.568-1.312-.525-1.165.048-1.402.285-.604.604m-548.798 7.067c.012 2.143.23 2.419.985 1.25 1.264-1.957 1.264-4 0-4-.55 0-.993 1.238-.985 2.75M122 306.059c0 .582.45.781 1 .441s1-.816 1-1.059-.45-.441-1-.441-1 .477-1 1.059m429 9.441c0 1.375.45 2.5 1 2.5s1-1.125 1-2.5-.45-2.5-1-2.5-1 1.125-1 2.5m-2.532 10.601c-.367 1.155-.172 2.595.433 3.2.799.799 1.099.225 1.099-2.101 0-3.694-.577-4.108-1.532-1.099M219.5 331c.34.55.816 1 1.059 1s.441-.45.441-1-.477-1-1.059-1-.781.45-.441 1m326.5 5.359c0 1.363-.291 3.302-.647 4.309-.437 1.236-.316 1.507.371.832 1.543-1.516 2.417-6.295 1.28-6.998-.569-.351-1.004.454-1.004 1.857m-2.93 10.391c.063 2.437.168 2.522.93.75 1.174-2.731 1.174-3.5 0-3.5-.55 0-.968 1.238-.93 2.75m-3.07 6.809c0 1.451.433 2.292 1 1.941.55-.34 1-1.491 1-2.559s-.45-1.941-1-1.941-1 1.152-1 2.559m-3 6.5c0 1.132.45 1.781 1 1.441.55-.34 1-1.266 1-2.059 0-.793-.45-1.441-1-1.441s-1 .927-1 2.059m-3 3.983c0 .981-.782 2.112-3.75 5.421-.687.767-1.25 1.941-1.25 2.609 0 .669 1.575-.847 3.5-3.368 3.725-4.879 4.087-5.704 2.5-5.704-.55 0-1 .469-1 1.042M119.5 370c.34.55.816 1 1.059 1s.441-.45.441-1-.477-1-1.059-1-.781.45-.441 1m988.5 0c0 .55.45 1 1 1s1-.45 1-1-.45-1-1-1-1 .45-1 1m-715.141 4.022c5.532 2.51 7.366 2.5 4.141-.022-1.375-1.076-3.85-1.956-5.5-1.956-2.875 0-2.819.082 1.359 1.978M526 375.059c0 .582.45.781 1 .441s1-.816 1-1.059-.45-.441-1-.441-1 .477-1 1.059M125 377c0 .55.477 1 1.059 1s.781-.45.441-1-.816-1-1.059-1-.441.45-.441 1m277.5 1c.34.55 1.518 1 2.618 1 1.1 0 1.722-.45 1.382-1-.34-.55-1.518-1-2.618-1-1.1 0-1.722.45-1.382 1m118.732 1c-.74 1.186-.838 2-.24 2 .554 0 1.008-.45 1.008-1s.675-1 1.5-1 1.5-.45 1.5-1c0-1.738-2.467-1.083-3.768 1M409 381c1.939 1.253 3 1.253 3 0 0-.55-1.012-.993-2.25-.985-1.819.013-1.963.201-.75.985m107 2c-1.293.835-1.266.971.191.985.93.008 1.969-.435 2.309-.985.782-1.266-.542-1.266-2.5 0m-99.187.683c.721.289 1.584.253 1.916-.079.332-.332-.258-.568-1.312-.525-1.165.048-1.402.285-.604.604M420 386c0 .55.702 1 1.559 1s1.281-.45.941-1c-.34-.55-1.041-1-1.559-1s-.941.45-.941 1m91.5 0c-.34.55.084 1 .941 1s1.559-.45 1.559-1-.423-1-.941-1-1.219.45-1.559 1m-84 3c.34.55 1.266 1 2.059 1 .793 0 1.441-.45 1.441-1s-.927-1-2.059-1c-1.132 0-1.781.45-1.441 1m79 0c-.34.55.057 1 .882 1s1.778-.45 2.118-1c.34-.55-.057-1-.882-1s-1.778.45-2.118 1m-72 3c.34.55 1.041 1 1.559 1s.941-.45.941-1-.702-1-1.559-1-1.281.45-.941 1m64.711.538c-.71.804-2.172 1.462-3.25 1.462-1.079 0-1.961.45-1.961 1s.436 1 .969 1c1.142 0 9.031-4.019 9.031-4.601 0-1.027-3.643-.16-4.789 1.139M136 394c0 .55.45 1 1 1s1-.45 1-1-.45-1-1-1-1 .45-1 1m304 .383c0 .91 3.898 1.296 5.139.51.925-.586.321-.867-1.889-.878-1.788-.008-3.25.158-3.25.368M450.5 397c-.367.594.725.971 2.691.93 2.757-.059 2.975-.214 1.309-.93-2.713-1.166-3.28-1.166-4 0m31.75.716c1.512.229 3.988.229 5.5 0s.275-.416-2.75-.416-4.262.187-2.75.416M287 424c0 .55.477 1 1.059 1s.781-.45.441-1-.816-1-1.059-1-.441.45-.441 1m664 1.5c0 .825.177 1.5.393 1.5.216 0 .652-.675.969-1.5.316-.825.139-1.5-.393-1.5-.533 0-.969.675-.969 1.5m-5 6.559c0 .582.45.781 1 .441s1-.816 1-1.059-.45-.441-1-.441-1 .477-1 1.059m10.51 10.957c.346.559 1.047.758 1.559.441 1.387-.857 1.129-1.457-.628-1.457-.857 0-1.276.457-.931 1.016m81.49 11.543c0 .857.457 1.276 1.016.931.559-.346.758-1.047.441-1.559-.857-1.387-1.457-1.129-1.457.628m-135.541 29.156c-16.366 22.269-19.762 27.281-22.578 33.315-6.022 12.904-7.829 21.14-7.857 35.806-.034 17.602 3.296 29.142 12.703 44.023 6.56 10.377 20.981 23.136 32.273 28.554 3.025 1.451 10 5.1 15.5 8.108 5.5 3.008 13.6 7.308 18 9.556 4.4 2.249 8.9 4.614 10 5.258 1.82 1.064 11.045 6.037 31.5 16.978 8.35 4.467 13.525 7.208 32.5 17.218 7.15 3.772 15.7 8.317 19 10.1 3.3 1.783 8.475 4.543 11.5 6.134 3.025 1.591 9.325 4.938 14 7.438a1714.923 1714.923 0 0015 7.922c3.575 1.856 6.725 3.6 7 3.876.275.275 2.525 1.541 5 2.812s9.45 4.938 15.5 8.148c6.05 3.21 17.075 8.906 24.5 12.657 7.425 3.751 13.65 7.171 13.833 7.601.184.429 1.366.781 2.628.781s2.854.675 3.539 1.5 1.929 1.5 2.764 1.5c1.97 0 13.417 7.146 19.415 12.12 2.574 2.134 5.109 3.88 5.634 3.88.525 0 1.267 2.925 1.65 6.5.779 7.274 1.985 8.393 2.966 2.75.359-2.062 1.026-4.875 1.482-6.25.457-1.375 1.602-6.1 2.546-10.5.943-4.4 2.162-9.8 2.708-12 .546-2.2 1.363-5.8 1.815-8 .452-2.2 1.51-6.925 2.351-10.5 3.859-16.405 4.897-20.964 6.263-27.5 4.082-19.542 4.22-29.023.529-36.258-2.361-4.629-10.623-12.373-18.228-17.085-11.445-7.092-24.173-14.157-25.504-14.157-.765 0-1.391-.42-1.391-.933 0-.513-1.013-1.253-2.25-1.646-1.237-.392-3.825-1.705-5.75-2.916-1.925-1.212-6.65-3.875-10.5-5.918-3.85-2.042-8.575-4.645-10.5-5.783-5.501-3.252-18.057-10.164-23-12.662-2.475-1.25-5.85-3.113-7.5-4.139-3.217-2.002-6.701-3.93-18.5-10.242-4.125-2.207-7.95-4.346-8.5-4.754-1.126-.836-9.825-5.651-16.255-8.999-2.34-1.218-4.504-2.619-4.809-3.112-.305-.493-1.427-.896-2.495-.896s-1.941-.356-1.941-.792c0-.435-1.463-1.479-3.25-2.32-1.787-.84-9.55-5.074-17.25-9.407-7.7-4.333-16.423-9.11-19.384-10.614-2.961-1.504-5.863-3.214-6.45-3.801-.586-.586-2.289-1.066-3.784-1.066-4.078 0-5.882-.989-5.882-3.224 0-1.587-.509-1.912-2.425-1.546-1.575.301-3.417-.347-5.25-1.847-1.554-1.271-3.8-2.327-4.992-2.347-1.191-.02-2.316-.381-2.5-.802-.58-1.333-9.17-7.234-10.53-7.234-.717 0-1.303-.42-1.303-.933 0-.513-.992-1.247-2.203-1.632-1.212-.384-2.819-1.314-3.571-2.066-.752-.753-3.136-1.651-5.297-1.996-2.161-.346-3.929-1.015-3.929-1.488 0-.473-1.777-1.982-3.948-3.352-2.172-1.371-8.212-6.695-13.423-11.83-7.796-7.682-9.533-9.945-9.802-12.77-.208-2.181-.856-3.433-1.776-3.433-.984 0-1.798-1.927-2.535-6-.598-3.3-1.404-6.513-1.792-7.139-.657-1.062.222-6.925 1.817-12.111.381-1.238.284-2.25-.215-2.25-.5 0-8.09 9.772-16.867 21.715M321 471c0 .55.477 1 1.059 1s.781-.45.441-1-.816-1-1.059-1-.441.45-.441 1m-128.5 2c.34.55.816 1 1.059 1s.441-.45.441-1-.477-1-1.059-1-.781.45-.441 1m716.946 8.087c-.873 1.412 1.055 3.34 2.467 2.467.598-.37 1.087-1.32 1.087-2.113 0-1.684-2.574-1.94-3.554-.354M1032 482c0 .55.45 1 1 1s1-.45 1-1-.45-1-1-1-1 .45-1 1m-2.5 3c-.34.55-.141 1 .441 1s1.059-.45 1.059-1-.198-1-.441-1-.719.45-1.059 1m-697 1c.34.55.816 1 1.059 1s.441-.45.441-1-.477-1-1.059-1-.781.45-.441 1m573.75 1.496c-.687.781-1.25 2.144-1.25 3.029 0 1.096-.575 1.427-1.802 1.038-1.491-.473-1.819.033-1.901 2.933-.054 1.927.016 3.504.156 3.504.954 0 5.434-5.068 5.968-6.751.36-1.136 1.342-2.328 2.18-2.65 1.683-.645.98-2.621-.91-2.561-.655.021-1.753.677-2.441 1.458M909 496c0 .55.45 1 1 1s1-.45 1-1-.45-1-1-1-1 .45-1 1m109 1.059c0 .582.45.781 1 .441s1-.816 1-1.059-.45-.441-1-.441-1 .477-1 1.059m-112.823 2.494c.452 2.172 2.227 2.305 2.633.197.21-1.095-.28-1.75-1.31-1.75-.961 0-1.512.647-1.323 1.553m-11.234 2.197a517.788 517.788 0 00-1.744 3.5c-.201.413.122.75.718.75s1.083-.675 1.083-1.5.675-1.5 1.5-1.5c.833 0 1.5-.889 1.5-2 0-2.832-1.439-2.479-3.057.75m18.136-1.167c.048 1.165.285 1.402.604.605.289-.722.253-1.585-.079-1.917-.332-.332-.568.258-.525 1.312m-9.85 4.605c.618 1.854 2.771 2.161 2.771.395 0-.871-.712-1.583-1.583-1.583s-1.406.534-1.188 1.188m-12.646 2.678c-.431.697-.513 1.537-.183 1.867.895.895 1.871-.421 1.387-1.871-.338-1.016-.574-1.016-1.204.004M894 510c0 .55.9 1 2 1s2-.45 2-1-.9-1-2-1-2 .45-2 1m-7.25 2.571c-.413.419-.764 2.15-.782 3.846-.017 1.695-.692 3.957-1.5 5.024-1.729 2.286-1.878 3.559-.417 3.559 1.594 0 4.101-6.808 3.755-10.197-.168-1.647-.643-2.651-1.056-2.232m15.231.441c-1.933 1.194-.938 1.903 1.453 1.035 1.063-.386 1.492-.975.952-1.309-.54-.333-1.622-.21-2.405.274M990 524c0 .55.45 1 1 1s1-.45 1-1-.45-1-1-1-1 .45-1 1m-5 3c0 .55.45 1 1 1s1-.45 1-1-.45-1-1-1-1 .45-1 1m-96 2c0 1.1.45 2 1 2s1-.9 1-2-.45-2-1-2-1 .9-1 2m-12.067 12.25c-.696 2.575-.75 6.947-.077 6.215 1.419-1.545 2.304-6.465 1.163-6.465-.56 0-1.049.112-1.086.25M990 548.535c0 1.441 3.398 5.465 4.615 5.465 2.125 0 1.644-2.12-.615-2.71-1.1-.288-2-1.146-2-1.907 0-.76-.45-1.383-1-1.383s-1 .241-1 .535m-103.921 2.048c.048 1.165.285 1.402.604.605.289-.722.253-1.585-.079-1.917-.332-.332-.568.258-.525 1.312m-10.064 5.226c-.009 2.621.377 4.067.985 3.691 1.269-.784 1.269-4.537 0-6.5-.709-1.097-.973-.342-.985 2.809M997 555.031c0 .533.675.969 1.5.969s1.5-.177 1.5-.393c0-.216-.675-.652-1.5-.969-.825-.316-1.5-.139-1.5.393m10.05 1.396c-1.347.747-2.989 1.15-3.648.897-.66-.253-1.497.02-1.86.608-.4.648.315 1.068 1.817 1.068 1.363 0 3.189.273 4.059.607 1.038.398 1.582.055 1.582-1 0-.884.45-1.607 1-1.607s1-.45 1-1c0-1.321-.984-1.215-3.95.427M983 558c0 .55.675 1 1.5 1s1.5-.45 1.5-1-.675-1-1.5-1-1.5.45-1.5 1m9.51 1.016c.346.559 1.047.758 1.559.441 1.387-.857 1.129-1.457-.628-1.457-.857 0-1.276.457-.931 1.016m21.49.362c0 1.661 2.433 3.856 3.307 2.982.813-.813-1.092-4.36-2.342-4.36-.531 0-.965.62-.965 1.378M882.5 561c-.34.55.084 1 .941 1s1.559-.45 1.559-1-.423-1-.941-1-1.219.45-1.559 1m104.5 0c0 .55.45 1 1 1s1-.45 1-1-.45-1-1-1-1 .45-1 1m35.5 4c.34.55 1.266 1 2.059 1 .793 0 1.441-.45 1.441-1s-.927-1-2.059-1c-1.132 0-1.781.45-1.441 1M883 566.382c0 .825.45 1.778 1 2.118.55.34 1-.057 1-.882s-.45-1.778-1-2.118c-.55-.34-1 .057-1 .882m-5 4.059c0 1.343.45 2.719 1 3.059.583.361 1-.656 1-2.441 0-1.682-.45-3.059-1-3.059s-1 1.098-1 2.441m153-.562c0 .483 1.335 1.431 2.967 2.107 1.632.676 3.487 1.856 4.122 2.622.636.765 2.071 1.392 3.188 1.392 1.97 0 1.977-.062.223-2-.995-1.1-2.654-2-3.686-2s-2.136-.675-2.452-1.5c-.609-1.586-4.362-2.12-4.362-.621m-146.25 3.201c-2.129 1.24-2.293 2.92-.285 2.92.805 0 1.946-.9 2.535-2 1.173-2.192.446-2.49-2.25-.92m142.815.815c-.305.493.119 1.153.941 1.469.822.315 1.494 1.262 1.494 2.105 0 1.083 1.024 1.531 3.5 1.531 1.925 0 3.5-.45 3.5-1s-1.32-1-2.933-1c-2.054 0-3.122-.599-3.567-2-.669-2.107-2.005-2.61-2.935-1.105m18.946 3.105c.417 1.375 1.247 2.813 1.845 3.196 2.048 1.312 1.871-.092-.366-2.893-2.217-2.777-2.231-2.78-1.479-.303m-8.011 4c.34.55 2.166 1 4.059 1 1.893 0 3.441-.45 3.441-1s-1.827-1-4.059-1c-2.451 0-3.814.396-3.441 1m13.167 1.667c-1.151 1.15-.729 2.333.833 2.333.825 0 1.5-.675 1.5-1.5 0-1.562-1.183-1.984-2.333-.833m-168.854 1.016c.721.289 1.584.253 1.916-.079.332-.332-.258-.568-1.312-.525-1.165.048-1.402.285-.604.604M1059.5 584c-.34.55.11 1 1 1s1.34-.45 1-1c-.34-.55-.79-1-1-1-.21 0-.66.45-1 1m-165.054 1.087c-.369.598-.171 1.588.441 2.2.817.817 1.113.528 1.113-1.087 0-2.415-.519-2.787-1.554-1.113M885 586c0 .55.702 1 1.559 1s1.281-.45.941-1c-.34-.55-1.041-1-1.559-1s-.941.45-.941 1m17.5 0c-.34.55.084 1 .941 1s1.559-.45 1.559-1-.423-1-.941-1-1.219.45-1.559 1m160.75 2.25c.228.688 1.264 1.414 2.301 1.615 1.631.316 1.705.148.545-1.25-1.586-1.911-3.44-2.149-2.846-.365M889 589.583c0 .871.534 1.406 1.188 1.188 1.854-.618 2.161-2.771.395-2.771-.871 0-1.583.712-1.583 1.583m10-.583c-.793.49-1.11 1.223-.704 1.629.405.406 1.262.213 1.904-.429 1.511-1.511.668-2.354-1.2-1.2m8.112 1.346c.665 1.459 1.849 2.654 2.632 2.654 1.957 0 1.112-2.019-1.598-3.819-2.2-1.461-2.22-1.438-1.034 1.165M1071 591.5c0 .825.73 1.5 1.622 1.5 1.329 0 1.398-.271.378-1.5-.685-.825-1.415-1.5-1.622-1.5-.208 0-.378.675-.378 1.5m-180.436 3.429c-1.037 1.146-1.577 2.391-1.201 2.768.949.949 3.959-2.232 3.477-3.676-.247-.743-1.083-.41-2.276.908m21.033-1.085c-.346.56-.142 1.319.453 1.687 1.538.95 2.53-.351 1.246-1.635-.718-.718-1.277-.735-1.699-.052M903 594.941c0 .518.45 1.219 1 1.559.55.34 1-.084 1-.941s-.45-1.559-1-1.559-1 .423-1 .941m172.079 1.642c.048 1.165.285 1.402.604.605.289-.722.253-1.585-.079-1.917-.332-.332-.568.258-.525 1.312m-178.703.037c-.688.283-.122 1.604 1.462 3.409 1.8 2.051 2.902 2.628 3.624 1.897.719-.728.501-1.354-.712-2.038-.962-.543-1.75-1.64-1.75-2.438 0-1.472-.601-1.662-2.624-.83M908 598c0 .55.45 1 1 1s1-.45 1-1-.45-1-1-1-1 .45-1 1m174.5 0c.34.55 1.266 1 2.059 1 .793 0 1.441-.45 1.441-1s-.927-1-2.059-1c-1.132 0-1.781.45-1.441 1M892 600.5c0 .825.45 1.5 1 1.5s1-.675 1-1.5-.45-1.5-1-1.5-1 .675-1 1.5m185.598-.764c-1.073 1.073-.63 2.264.843 2.264.793 0 1.69-.403 1.994-.895.636-1.03-1.936-2.271-2.837-1.369m-166.088 1.28c.346.559 1.047.758 1.559.441 1.387-.857 1.129-1.457-.628-1.457-.857 0-1.276.457-.931 1.016m174.922 1.234c-1.034 1.237-1.238 1.688-.455 1 .782-.687 2.458-1.25 3.723-1.25 1.265 0 2.3-.45 2.3-1 0-1.847-3.671-1.022-5.568 1.25M909 603c0 .55.45 1 1 1s1-.45 1-1-.45-1-1-1-1 .45-1 1m185.75.662c.688.278 1.813.278 2.5 0 .688-.277.125-.504-1.25-.504s-1.937.227-1.25.504M895 605c0 .55.45 1 1 1s1-.45 1-1-.45-1-1-1-1 .45-1 1m178.5 1c-.34.55.084 1 .941 1s1.559-.45 1.559-1-.423-1-.941-1-1.219.45-1.559 1m17.5 0c0 .55.45 1 1 1s1-.45 1-1-.45-1-1-1-1 .45-1 1m-185.5 1c-.34.55-.141 1 .441 1s1.059-.45 1.059-1-.198-1-.441-1-.719.45-1.059 1m-7.5 1c0 .55.45 1 1 1s1-.45 1-1-.45-1-1-1-1 .45-1 1m23.166-.124c-1.064.675-.997.975.332 1.485 2.327.893 2.502.832 2.502-.861 0-1.683-.863-1.873-2.834-.624m174.804 2.068c1.323 2.471 2.73 3.35 3.464 2.163.995-1.61-.571-4.107-2.576-4.107-1.6 0-1.751.331-.888 1.944m-193.303-.277c-1.151 1.15-.729 2.333.833 2.333.825 0 1.5-.675 1.5-1.5 0-1.562-1.183-1.984-2.333-.833m8.551.487c.246.741 1.25 1.501 2.23 1.692 1.14.22 1.621-.14 1.334-1-.246-.741-1.25-1.501-2.23-1.692-1.14-.22-1.621.14-1.334 1m193.782-.328c0 1.336 4.503 5.174 6.064 5.169.859-.002.151-1.209-1.76-3-3.295-3.088-4.304-3.597-4.304-2.169M906 614c0 .55.627 1 1.393 1s1.652.675 1.969 1.5c.316.825 1.209 1.5 1.984 1.5.775 0 1.965.67 2.645 1.489.68.819 1.635 1.242 2.122.941 1.213-.75 1.121-2.43-.133-2.43-.561 0-2.802-1.125-4.98-2.5-4.395-2.774-5-2.956-5-1.5m11 .417c0 .871.712 1.583 1.583 1.583 1.766 0 1.459-2.153-.395-2.771-.654-.218-1.188.317-1.188 1.188m8.218-.263c.519 1.558 2.756 1.83 2.835.346.029-.55-.698-1.155-1.615-1.346-1.043-.215-1.5.159-1.22 1m8.782.346c0 .825.45 1.5 1 1.5s1-.675 1-1.5-.45-1.5-1-1.5-1 .675-1 1.5m-5 2.393c0 1.124 2.601 2.173 3.402 1.371 1.204-1.203.547-2.264-1.402-2.264-1.1 0-2 .402-2 .893m173 .107c0 .55.45 1 1 1s1-.45 1-1-.45-1-1-1-1 .45-1 1m11.5 0c-.34.55.11 1 1 1s1.34-.45 1-1c-.34-.55-.79-1-1-1-.21 0-.66.45-1 1m-191.356 3.691c-.74.792-1.168 1.618-.951 1.835.641.641 4.807-.69 4.807-1.536 0-1.519-2.533-1.716-3.856-.299m11.399 1.24c-.74 1.197 1.141 2.382 2.473 1.559 1.119-.691.384-2.49-1.016-2.49-.485 0-1.141.419-1.457.931M1107 622c0 .55.702 1 1.559 1s1.281-.45.941-1c-.34-.55-1.041-1-1.559-1s-.941.45-.941 1m9.543-.069c-.317.512-.118 1.213.441 1.559.559.345 1.016-.074 1.016-.931 0-1.757-.6-2.015-1.457-.628m9.095.569c-.435 1.134.179 1.5 2.516 1.5 2.634 0 2.907-.222 1.846-1.5-.685-.825-1.817-1.5-2.515-1.5-.699 0-1.53.675-1.847 1.5m-804.825.183c.721.289 1.584.253 1.916-.079.332-.332-.258-.568-1.312-.525-1.165.048-1.402.285-.604.604M924 624.5c0 .924.938 1.5 2.441 1.5 1.343 0 2.719.45 3.059 1 .896 1.45 3.744 1.23 3.247-.25-.23-.687-1.151-1.255-2.045-1.262-.894-.006-2.182-.568-2.864-1.25-1.701-1.701-3.838-1.556-3.838.262m189.543.431c-.317.512-.118 1.213.441 1.559.559.345 1.016-.074 1.016-.931 0-1.757-.6-2.015-1.457-.628m21.457.869c0 1.243 2.257 3.2 3.69 3.2.913 0 .79-.585-.422-2-1.762-2.058-3.268-2.611-3.268-1.2m-15.333 1.867c-.367.366-.667 1.131-.667 1.7 0 .626.466.567 1.183-.15.651-.651.951-1.416.667-1.7-.284-.285-.817-.217-1.183.15m10.027-.028c-.766.767.084 2.361 1.258 2.361.459 0 1.093-.675 1.41-1.5.57-1.487-1.405-2.124-2.668-.861M941 631.5c.685.825 1.64 1.5 2.122 1.5.483 0 .878-.675.878-1.5 0-.862-.902-1.5-2.122-1.5-1.774 0-1.918.247-.878 1.5m9 2.531c0 .533.675.969 1.5.969s1.5-.177 1.5-.393c0-.216-.675-.652-1.5-.969-.825-.316-1.5-.139-1.5.393m29 .528c0 .857.45 1.281 1 .941.55-.34 1-1.041 1-1.559s-.45-.941-1-.941-1 .702-1 1.559M1149.5 636c1.807 1.996 4.5 2.715 4.5 1.2 0-1.458-2.371-3.2-4.355-3.2-1.892 0-1.896.065-.145 2M951 639c0 .55.423 1 .941 1s1.219-.45 1.559-1c.34-.55-.084-1-.941-1s-1.559.45-1.559 1m12 0c0 .55.477 1 1.059 1s.781-.45.441-1-.816-1-1.059-1-.441.45-.441 1m197.5 2c-.729 1.18.217 3 1.559 3 .518 0 .941-.9.941-2 0-2.109-1.455-2.691-2.5-1M284 642c0 .55.477 1 1.059 1s.781-.45.441-1-.816-1-1.059-1-.441.45-.441 1m685 0c0 .55.927 1 2.059 1 1.132 0 1.781-.45 1.441-1-.34-.55-1.266-1-2.059-1-.793 0-1.441.45-1.441 1m170.5 0c-.34.55.11 1 1 1s1.34-.45 1-1c-.34-.55-.79-1-1-1-.21 0-.66.45-1 1m11.5.43c0 1.021.903 1.57 2.583 1.57 3.133 0 2.79-2.348-.411-2.82-1.443-.212-2.172.208-2.172 1.25m-191.362 1.07c.317.825.964 1.5 1.438 1.5.473 0 .602-.675.286-1.5-.317-.825-.964-1.5-1.438-1.5-.473 0-.602.675-.286 1.5M1167 646.107c0 2.567.304 2.982 1.75 2.387a40.476 40.476 0 013.5-1.224c.963-.277 1.75-.931 1.75-1.454 0-.523-.902-.664-2.005-.314-1.332.422-2.207.11-2.607-.933-1.011-2.636-2.388-1.749-2.388 1.538M977.5 645c-.34.55.084 1 .941 1s1.559-.45 1.559-1-.423-1-.941-1-1.219.45-1.559 1m167.3 1.2c.933.933 1.467.933 2.4 0 .933-.933.667-1.2-1.2-1.2s-2.133.267-1.2 1.2M971 648.951c1.925 1.028 3.692 1.679 3.927 1.448.785-.771-3.4-3.336-5.427-3.325-1.472.007-1.076.503 1.5 1.877m190-.951c0 .55.45 1 1 1s1-.45 1-1-.45-1-1-1-1 .45-1 1m12.431 2.112c-.725 1.173 1.208 2.847 3.319 2.873.688.008 1.25-.885 1.25-1.985 0-2.187-3.362-2.841-4.569-.888M1148 651c0 .55.702 1 1.559 1s1.281-.45.941-1c-.34-.55-1.041-1-1.559-1s-.941.45-.941 1m-169.447.915a1.116 1.116 0 00.362 1.532c.521.322 1.21.159 1.532-.362a1.116 1.116 0 00-.362-1.532 1.116 1.116 0 00-1.532.362M982 656c0 .55.45 1 1 1s1-.45 1-1-.45-1-1-1-1 .45-1 1m16.154.438c.191.917.796 1.644 1.346 1.615 1.484-.079 1.212-2.316-.346-2.835-.841-.28-1.215.177-1 1.22m-5.626 3.499c2.842 2.792 7.472 3.786 7.472 1.604 0-1.222-.543-1.503-2.005-1.039-1.332.422-2.207.11-2.607-.933-.331-.863-1.554-1.569-2.717-1.569-2.105 0-2.105.01-.143 1.937M1009 659c0 .55 1.125 1 2.5 1s2.5-.45 2.5-1-1.125-1-2.5-1-2.5.45-2.5 1m13.5 0c.34.55.816 1 1.059 1s.441-.45.441-1-.477-1-1.059-1-.781.45-.441 1m161.5 0c0 .55.702 1 1.559 1s1.281-.45.941-1c-.34-.55-1.041-1-1.559-1s-.941.45-.941 1m10.242 2.031c1.037 1.674 1 2.191-.213 2.945-.809.503-1.085 1.277-.613 1.72.472.442 1.059.242 1.304-.446.246-.687 1.309-1.25 2.363-1.25 2.637 0 2.401-1.453-.548-3.385-3.261-2.137-3.813-2.037-2.293.416M1015 662.573c0 .932.68 1.442 1.667 1.25 2.509-.486 2.853-2.823.416-2.823-1.228 0-2.083.646-2.083 1.573m172.667-.906c-.367.366-.667 1.491-.667 2.5 0 1.722.121 1.712 2-.167 1.1-1.1 2-2.225 2-2.5 0-.736-2.558-.609-3.333.167m-185.417 3.583c.229.688 1.242 1.25 2.25 1.25s2.021-.562 2.25-1.25c.264-.792-.561-1.25-2.25-1.25s-2.514.458-2.25 1.25m8.921 2.068c-2.688 2.862-2.731 3.682-.19 3.682 1.289 0 2.204-.89 2.62-2.547.881-3.509.129-3.859-2.43-1.135m8.496-.651c-1.268 1.267-.659 2.333 1.333 2.333 1.111 0 2-.667 2-1.5 0-1.522-2.115-2.051-3.333-.833M1199.232 669c-1.023 1.639-.999 2 .137 2 1.703 0 3.859-2.438 2.956-3.342-1.075-1.074-1.773-.771-3.093 1.342m-184.732 3c-.34.55.335 1 1.5 1s1.84-.45 1.5-1c-.34-.55-1.015-1-1.5-1-.485 0-1.16.45-1.5 1m172.515 4.191c.012 3.151.276 3.906.985 2.809 1.269-1.963 1.269-5.716 0-6.5-.608-.376-.994 1.07-.985 3.691m7.151-3.315c-1.087.689-1.059.951.152 1.416 1.546.593 2.682-.025 2.682-1.459 0-1.058-1.124-1.041-2.834.043m7.501-.209c-1.151 1.15-.729 2.333.833 2.333.825 0 1.5-.675 1.5-1.5 0-1.562-1.183-1.984-2.333-.833M1021 674.605c0 .99 3.299 3.326 4.75 3.363.688.018 1.25-.67 1.25-1.527 0-.857-.441-1.287-.979-.954-.539.333-1.889.119-3-.476-1.112-.595-2.021-.778-2.021-.406m8.393 4.977c.334.87.607 1.77.607 2 0 .23.9.418 2 .418 2.369 0 2.509-.634.571-2.571-1.921-1.922-3.937-1.825-3.178.153M1038 679c0 .55.45 1 1 1s1-.45 1-1-.45-1-1-1-1 .45-1 1m8.553-.085a1.116 1.116 0 00.362 1.532c.521.322 1.21.159 1.532-.362a1.116 1.116 0 00-.362-1.532 1.116 1.116 0 00-1.532.362m-9.983 4.971c-.301.488.321 1.114 1.383 1.392 2.141.559 3.278-.095 2.461-1.417-.695-1.124-3.144-1.107-3.844.025m165.132 4.367c-1.232 2.571-1.506 4.274-.871 5.41.826 1.476 1.056 1.416 2.108-.549.65-1.214 1.041-3.648.871-5.41l-.31-3.204-1.798 3.753M1041 687c0 .55.45 1 1 1s1-.45 1-1-.45-1-1-1-1 .45-1 1m5.008.25c.004.688 1.129 1.77 2.5 2.406 2.944 1.366 3.087 1.061.77-1.645-1.959-2.288-3.282-2.595-3.27-.761M1061.5 698c.34.55 1.266 1 2.059 1 .793 0 1.441-.45 1.441-1s-.927-1-2.059-1c-1.132 0-1.781.45-1.441 1m136.5 2.878c0 1.938 2.644 4.811 3.573 3.882.288-.288.229-1.702-.133-3.142-.751-2.993-3.44-3.572-3.44-.74M1068 701c0 .55.675 1 1.5 1s1.5-.45 1.5-1-.675-1-1.5-1-1.5.45-1.5 1m7.362.5c-.317.825-1.203 1.5-1.969 1.5s-1.393.45-1.393 1c0 1.289.09 1.278 4.378-.513 1.992-.833 3.622-1.958 3.622-2.5 0-1.58-4.005-1.137-4.638.513m7.138 2.5c-.34.55.084 1 .941 1s1.559-.45 1.559-1-.423-1-.941-1-1.219.45-1.559 1m8.5 0c0 .55.9 1 2 1s2-.45 2-1-.9-1-2-1-2 .45-2 1m23 2.441c0 .857.45 1.559 1 1.559s1-.423 1-.941-.45-1.219-1-1.559c-.55-.34-1 .084-1 .941m-35.5.559c.34.55 1.266 1 2.059 1 .793 0 1.441-.45 1.441-1s-.927-1-2.059-1c-1.132 0-1.781.45-1.441 1m9.5 2.077c0 1.627 5.633 6.923 7.364 6.923.835 0 1.796.45 2.136 1 .34.55 1.266 1 2.059 1 .793 0 1.441-.45 1.441-1s-.83-1-1.845-1c-2.085 0-5.514-3.307-4.491-4.331.368-.368 3.069-.669 6.003-.669 2.933 0 5.333-.45 5.333-1s-1.313-1-2.918-1c-1.605 0-3.595-.26-4.423-.577-.844-.324-2.494.412-3.758 1.676l-2.254 2.254-1.446-2.176c-1.536-2.315-3.201-2.887-3.201-1.1m21.57 2.81c-.909 1.47 2.337 3.606 3.585 2.358.589-.589.768-1.56.399-2.158-.81-1.31-3.223-1.432-3.984-.2m87.815.552c-.304.792-.078 2.254.501 3.25.895 1.539 1.058 1.323 1.084-1.439.032-3.428-.661-4.22-1.585-1.811M1114 718c0 1.289.506 1.998 1.25 1.75.688-.229 1.25-1.017 1.25-1.75 0-.733-.562-1.521-1.25-1.75-.744-.248-1.25.461-1.25 1.75m-9.417.643c-.797 2.079-.305 2.571 1.774 1.774.904-.347 1.643-1.258 1.643-2.024 0-1.942-2.65-1.748-3.417.25m86.167.019c.688.278 1.25 1.872 1.25 3.544 0 2.588.223 2.854 1.5 1.794.825-.685 1.5-1.672 1.5-2.194 0-1.429-2.677-3.817-4.179-3.727-1.008.06-1.025.198-.071.583M1110 722.5c-1.04 1.253-.896 1.5.878 1.5 1.22 0 2.122-.638 2.122-1.5 0-.825-.395-1.5-.878-1.5-.482 0-1.437.675-2.122 1.5m15 1.042c0 1.187 4.022 4.769 4.65 4.141.369-.369-.146-1.573-1.144-2.677-1.72-1.9-3.506-2.646-3.506-1.464m-4 4.851c0 .216.698.661 1.552.989.89.341 1.291.173.941-.393-.587-.951-2.493-1.406-2.493-.596m4 3.607c0 .55.45 1 1 1s1-.45 1-1-.45-1-1-1-1 .45-1 1m8 .5c0 .825-.45 1.5-1 1.5s-1 .454-1 1.008c0 .598.814.5 2-.24 2.083-1.301 2.738-3.768 1-3.768-.55 0-1 .675-1 1.5m15.667 3.167c-1.151 1.15-.729 2.333.833 2.333.825 0 1.5-.675 1.5-1.5 0-1.562-1.183-1.984-2.333-.833m43.062.937c-.401.401-.729 1.689-.729 2.863 0 1.173-.533 2.666-1.183 3.316-.651.651-.864 1.504-.473 1.895.392.391 1.652-.23 2.802-1.379 1.67-1.67 1.911-2.627 1.201-4.757-.489-1.467-1.217-2.339-1.618-1.938m-7.729 3.955c0 .857.457 1.276 1.016.931.559-.346.758-1.047.441-1.559-.857-1.387-1.457-1.129-1.457.628m-43.187.124c.721.289 1.584.253 1.916-.079.332-.332-.258-.568-1.312-.525-1.165.048-1.402.285-.604.604m6.66 2.361c-.325.526-.376.956-.114.956.263 0 1.189.273 2.059.607.87.334 1.582.157 1.582-.393 0-1.399-2.809-2.331-3.527-1.17M41.195 745.5c.02 1.65.244 2.204.498 1.231.254-.973.237-2.323-.037-3-.274-.677-.481.119-.461 1.769m1114.805.891c0 .214 1.575.574 3.5.799 1.925.225 3.5.049 3.5-.391 0-.439-1.575-.799-3.5-.799s-3.5.176-3.5.391m25 .609c0 .55.675 1 1.5 1s1.5-.45 1.5-1-.675-1-1.5-1-1.5.45-1.5 1m4.635.509c-.34.885.237 2.018 1.393 2.741 1.085.677 1.972 1.798 1.972 2.491 0 .692.487 1.259 1.083 1.259s.904-.337.685-.75c-.219-.413-.975-2.212-1.681-4-1.392-3.528-2.543-4.109-3.452-1.741M1136.5 753c.34.55 1.465 1 2.5 1s2.16-.45 2.5-1c.362-.585-.676-1-2.5-1-1.824 0-2.862.415-2.5 1m35.692 1.075c.197.591.785 1.075 1.308 1.075s1.111-.484 1.308-1.075c.197-.591-.391-1.075-1.308-1.075s-1.505.484-1.308 1.075m-86.692.927c-6.994.482-4.56.662 10.917.809 10.954.104 19.655-.072 19.337-.391-.864-.863-19.96-1.128-30.254-.418m-36.25 2.687c.963.252 2.537.252 3.5 0 .963-.251.175-.457-1.75-.457s-2.713.206-1.75.457m-49.488 1.018c1.244.239 3.044.23 4-.02s-.062-.446-2.262-.435c-2.2.011-2.982.216-1.738.455m11.525.033c3.182.199 8.132.197 11-.004 2.867-.201.263-.364-5.787-.362-6.05.002-8.396.167-5.213.366M1186 763c0 2.75.45 5 1 5s1-2.25 1-5-.45-5-1-5-1 2.25-1 5m-239.141-1.892c-1.67 1.058 18.191.989 26.641-.093 4.533-.58 2.176-.768-9.641-.768-8.603 0-16.253.388-17 .861m-576.046 5.575c.721.289 1.584.253 1.916-.079.332-.332-.258-.568-1.312-.525-1.165.048-1.402.285-.604.604m8 3c.721.289 1.584.253 1.916-.079.332-.332-.258-.568-1.312-.525-1.165.048-1.402.285-.604.604M385 772c0 .55.702 1 1.559 1s1.281-.45.941-1c-.34-.55-1.041-1-1.559-1s-.941.45-.941 1m799.232 18c0 1.925.206 2.712.457 1.75.252-.962.252-2.538 0-3.5-.251-.962-.457-.175-.457 1.75m-2.98 11.5c.011 2.2.216 2.982.455 1.738.239-1.244.23-3.044-.02-4s-.446.062-.435 2.262m-3.02 14.5c0 1.925.206 2.712.457 1.75.252-.962.252-2.538 0-3.5-.251-.962-.457-.175-.457 1.75m-753.074 3c0 1.375.227 1.938.504 1.25.278-.687.278-1.812 0-2.5-.277-.687-.504-.125-.504 1.25m-367 1c0 1.375.227 1.938.504 1.25.278-.687.278-1.812 0-2.5-.277-.687-.504-.125-.504 1.25m1117.592 2.572c-.412.419-.75 1.901-.75 3.295 0 1.82.305 2.228 1.085 1.448.596-.596.934-2.079.75-3.295-.184-1.215-.673-1.867-1.085-1.448m-3 12.005c-.412.416-.75 1.419-.75 2.229 0 .811-.724 2.003-1.609 2.65-.885.647-1.442 2.041-1.239 3.097.299 1.549.814 1.169 2.656-1.953 2.076-3.519 2.754-7.85.942-6.023M63 838.941c0 .518.45 1.219 1 1.559.55.34 1-.084 1-.941S64.55 838 64 838s-1 .423-1 .941M66 844c0 .55.477 1 1.059 1s.781-.45.441-1-.816-1-1.059-1-.441.45-.441 1m3 3c0 .55.477 1 1.059 1s.781-.45.441-1-.816-1-1.059-1-.441.45-.441 1m3.5 3c.34.55 1.293 1 2.118 1s1.222-.45.882-1c-.34-.55-1.293-1-2.118-1s-1.222.45-.882 1m1087.5 0c-1.219.788-1.09.972.691.985 1.205.008 2.469-.435 2.809-.985.787-1.273-1.53-1.273-3.5 0m-9 3c0 1.194 2.721 1.194 5.5 0 1.604-.689 1.258-.873-1.75-.93-2.062-.038-3.75.38-3.75.93M91.762 855.707c1.244.239 3.044.23 4-.02s-.062-.446-2.262-.435c-2.2.011-2.982.216-1.738.455m1038.988-.045c.688.278 1.813.278 2.5 0 .688-.277.125-.504-1.25-.504s-1.937.227-1.25.504m11.012.045c1.244.239 3.044.23 4-.02s-.062-.446-2.262-.435c-2.2.011-2.982.216-1.738.455m-994.949 2.976c.721.289 1.584.253 1.916-.079.332-.332-.258-.568-1.312-.525-1.165.048-1.402.285-.604.604m936.479.059c3.735.193 9.585.192 13-.003 3.414-.194.358-.352-6.792-.35-7.15.001-9.944.161-6.208.353M1035 861c-7.49.553-6.688.65 6.75.814 9.624.117 15.25-.183 15.25-.814 0-1.063-7.604-1.063-22 0m-55 3c-1.028.665 1.408.974 7.75.985 5.51.009 9.25-.389 9.25-.985 0-1.294-14.997-1.294-17 0m-738.731.693c.973.254 2.323.237 3-.037.677-.274-.119-.481-1.769-.461-1.65.02-2.204.244-1.231.498m42.481 1.969c.688.278 1.813.278 2.5 0 .688-.277.125-.504-1.25-.504s-1.937.227-1.25.504m658.75.384c6.655 1.037 14.53 1.015 17-.046 1.254-.539-2.479-.836-10-.796-9.507.05-10.961.225-7 .842M608.5 893c-.361.583.656 1 2.441 1 1.682 0 3.059-.45 3.059-1s-1.098-1-2.441-1c-1.343 0-2.719.45-3.059 1m20.313.683c.721.289 1.584.253 1.916-.079.332-.332-.258-.568-1.312-.525-1.165.048-1.402.285-.604.604m-42.063 4.979c.688.278 1.813.278 2.5 0 .688-.277.125-.504-1.25-.504s-1.937.227-1.25.504m67.063 3.021c.721.289 1.584.253 1.916-.079.332-.332-.258-.568-1.312-.525-1.165.048-1.402.285-.604.604M658 904c0 .55.477 1 1.059 1s.781-.45.441-1-.816-1-1.059-1-.441.45-.441 1m-119.5 37c-.34.55-.141 1 .441 1s1.059-.45 1.059-1-.198-1-.441-1-.719.45-1.059 1M706 953.671c0 1.277 3.838 4.824 4.502 4.16.27-.269-.633-1.545-2.006-2.835-1.373-1.289-2.496-1.886-2.496-1.325M486.5 1002c-.34.55-.141 1 .441 1s1.059-.45 1.059-1-.198-1-.441-1-.719.45-1.059 1m-18.5 21.059c0 .582.45.781 1 .441s1-.816 1-1.059-.45-.441-1-.441-1 .477-1 1.059m131 11c0 .582.45.781 1 .441s1-.816 1-1.059-.45-.441-1-.441-1 .477-1 1.059M442.5 1053c-.34.55-.141 1 .441 1s1.059-.45 1.059-1-.198-1-.441-1-.719.45-1.059 1m125.5 16.059c0 .582.45.781 1 .441s1-.816 1-1.059-.45-.441-1-.441-1 .477-1 1.059m-8.5 8.941c-.34.55-.168 1 .382 1s1.278-.45 1.618-1c.34-.55.168-1-.382-1s-1.278.45-1.618 1m-47.5 53c0 .55.45 1 1 1s1-.45 1-1-.45-1-1-1-1 .45-1 1m-5 6.059c0 .582.45.781 1 .441s1-.816 1-1.059-.45-.441-1-.441-1 .477-1 1.059M349.5 1153c.34.55 1.068 1 1.618 1s.722-.45.382-1c-.34-.55-1.068-1-1.618-1s-.722.45-.382 1m129.5 15.059c0 .582.45.781 1 .441s1-.816 1-1.059-.45-.441-1-.441-1 .477-1 1.059m-93.187 2.624c.721.289 1.584.253 1.916-.079.332-.332-.258-.568-1.312-.525-1.165.048-1.402.285-.604.604m89.187 2.376c0 .582.45.781 1 .441s1-.816 1-1.059-.45-.441-1-.441-1 .477-1 1.059m-83.187.624c.721.289 1.584.253 1.916-.079.332-.332-.258-.568-1.312-.525-1.165.048-1.402.285-.604.604M403.5 1179c.34.55.816 1 1.059 1s.441-.45.441-1-.477-1-1.059-1-.781.45-.441 1m22.5 11c0 .55.702 1 1.559 1s1.281-.45.941-1c-.34-.55-1.041-1-1.559-1s-.941.45-.941 1" fill="undefined" fill-rule="evenodd"/></svg>