<svg xmlns="http://www.w3.org/2000/svg" width="1240" height="1240"><path d="M478.669 216.871c12.829.722 16.254 2.122 5.248 2.144-4.079.009-7.931.346-8.56.75-.628.404-1.303 3.201-1.5 6.215l-.357 5.479 3.647.597c4.129.674 5.844 2.093 8.318 6.876 1.315 2.543 1.434 3.512.504 4.087-1.417.876.903 12.829 4.216 21.723 3.72 9.986 12.059 15.641 22.98 15.583 11.602-.061 19.422-6.573 21.917-18.249 3.095-14.489-5.794-28.754-23.309-37.409-13.565-6.702-18.048-7.853-31.773-8.152l-12.5-.272 11.169.628m-17.856.812c.721.289 1.584.253 1.916-.079.332-.332-.258-.568-1.312-.525-1.165.048-1.402.285-.604.604m31.937 1.979c.688.278 1.813.278 2.5 0 .688-.277.125-.504-1.25-.504s-1.937.227-1.25.504M448 222c-.901.582-1.025.975-.309.985.655.008 1.469-.435 1.809-.985.767-1.242.421-1.242-1.5 0m55.388.818c.36.583 3.007 2.408 5.883 4.055 13.431 7.696 18.177 14.906 18.185 27.627.004 6.11-.448 8.756-1.911 11.199-4.817 8.042-14.24 10.893-25.545 7.729-2.087-.585-2.288-.474-1.218.668.787.84 4.156 1.514 8.728 1.744 6.533.33 7.969.07 11.719-2.128 6.054-3.548 7.84-5.878 9.291-12.123 2.873-12.359-1.692-24.565-11.713-31.316-6.584-4.436-14.152-8.64-13.419-7.455m90.019.337c-2.059.546-4.637 2.786-7.711 6.699-2.54 3.233-12.398 15.332-21.907 26.886A28342.289 28342.289 0 00530 297.889c-9.075 11.077-17.438 20.39-18.585 20.693-1.509.399-5.656-1.864-15-8.186-17.433-11.794-24.198-17.242-31.949-25.725-8.751-9.579-12.466-17.058-12.466-25.096 0-13.536 8.993-21.555 24.193-21.569 4.754-.005 5.951.361 7.25 2.217.856 1.222 1.557 1.733 1.557 1.134 0-2.258-4.22-6.324-7.505-7.231-5.2-1.436-15.726.233-21.013 3.332-2.49 1.459-5.75 4.54-7.245 6.847-2.416 3.727-2.72 5.146-2.728 12.729-.008 7.986.216 8.909 3.491 14.355 7.342 12.209 20.845 24.571 43 39.369 6.325 4.224 11.738 8.009 12.028 8.411.291.402 1.641 1.214 3 1.804 2.416 1.049 2.407 1.06-.378.506-2.363-.47-7.636-3.464-9.65-5.479-.275-.275-6.35-4.432-13.5-9.236-7.15-4.805-15.25-10.825-18-13.377a720.597 720.597 0 00-8.5-7.763l-3.5-3.121 3.676 3.998c3.034 3.3 3.579 4.523 3.116 6.999-.308 1.65-.906 3.45-1.328 4-.422.55-1.091 4.15-1.487 8-.396 3.85-1.056 7.45-1.468 8-.711.952-1.36 4.834-2.674 16-.323 2.75-.959 5.47-1.412 6.043-.454.574-1.134 4.058-1.511 7.742-.378 3.684-1.202 7.126-1.832 7.649-.787.652-3.097-.929-7.363-5.039-3.419-3.295-6.217-5.6-6.217-5.124 0 1.015 14.143 14.762 25.256 24.549 4.259 3.752 7.744 7.414 7.744 8.139 0 1.707-16.05 22.05-49.273 62.453-2.075 2.523-4.106 5.038-4.515 5.588-.408.55-2.483 3.25-4.611 6-3.586 4.635-3.621 4.74-.485 1.446 1.861-1.955 7.434-8.432 12.384-14.393 4.95-5.962 10.007-12.012 11.237-13.446l2.238-2.607-.639 6c-.351 3.3-.96 6.225-1.352 6.5-.392.275-1.02 2.998-1.396 6.05-.53 4.312-1.446 6.432-4.103 9.5-1.882 2.173-3.773 4.406-4.203 4.963-.43.557-1.4 1.795-2.154 2.75-.755.955-1.122 1.737-.815 1.737.307 0 3.384-3.488 6.837-7.75 3.453-4.262 6.535-7.975 6.85-8.25.315-.275 3.478-4.1 7.029-8.5 6.112-7.573 16.605-20.285 26.827-32.5 2.531-3.025 6.966-7.923 9.855-10.884 4.925-5.048 5.484-5.346 8.967-4.781 2.086.339 4.834 1.753 6.268 3.225l2.554 2.621-3.5-2.087c-7.633-4.551-9.668-3.328-24.125 14.501-9.382 11.57-41.19 50.411-49.877 60.905-3.643 4.4-9.413 11.459-12.823 15.687-6.59 8.17-8.462 9.348-13.197 8.308-4.147-.911-3.714.089 1.103 2.546 4.206 2.146 7.902 2.032 10.982-.338.859-.662 5.986-6.768 11.391-13.569 5.406-6.801 15.503-19.209 22.438-27.573 6.934-8.364 19.734-23.824 28.443-34.355C481.99 395.485 488.961 388 490.812 388c.409 0 1.744.701 2.967 1.558 1.224.857 2.743 1.237 3.377.845.688-.425.882-.274.482.374-.767 1.24 3.24 4.416 4.55 3.607.474-.293.738-.086.587.461-.151.546 5.575 5.766 12.725 11.6 21.433 17.487 31.295 28.19 31.769 34.475.102 1.351.551 1.614 1.685.986 1.722-.953 3.722-1.783 22.925-9.518 7.358-2.963 14.25-5.388 15.315-5.388 3.462 0 5.884-1.867 4.904-3.78-.486-.946-1.384-4.463-1.998-7.816-2.108-11.527-9.084-25.577-19.686-39.647-5.487-7.283-12.389-14.455-32.098-33.355-3.094-2.967-5.316-5.97-5.316-7.184 0-2.118 3.015-6.075 23.021-30.218 32.59-39.328 53.577-65.345 54.373-67.405 2.828-7.323-8.269-16.756-16.987-14.44m8.882 5.06c.941 1.493 1.711 3.421 1.711 4.285 0 .864-.77 2.792-1.711 4.285l-1.711 2.715 2.211-1.905c1.421-1.224 2.211-3.045 2.211-5.095s-.79-3.871-2.211-5.095l-2.211-1.905 1.711 2.715M465 231c0 .55.9 1 2 1s2-.45 2-1-.9-1-2-1-2 .45-2 1m-36 4.5c-2.429 2.475-4.191 4.5-3.916 4.5.275 0 2.487-2.025 4.916-4.5 2.429-2.475 4.191-4.5 3.916-4.5-.275 0-2.487 2.025-4.916 4.5m168.627 6.947c-.904 1.38-4.479 5.781-7.943 9.781-3.465 4-10.252 12.222-15.082 18.272-4.83 6.05-10.499 13.025-12.597 15.5-2.098 2.475-9.745 11.7-16.993 20.5-7.247 8.8-14.016 16.988-15.041 18.196-1.025 1.208-2.574 3.57-3.443 5.25-1.415 2.736-1.422 3.357-.072 5.969.829 1.603 5.903 6.891 11.276 11.75 17.215 15.571 28.414 28.765 36.35 42.825 1.71 3.031 3.33 5.51 3.6 5.51 1.021 0-7.234-13.806-12.557-21-5.437-7.347-19.454-21.955-31.875-33.215-3.684-3.339-6.25-6.485-6.25-7.66 0-2.938 1.538-6.297 4.178-9.125 2.365-2.533 20.063-23.855 31.956-38.5l21.782-26.816c8.406-10.349 15.075-19.026 14.82-19.282-.256-.255-1.205.665-2.109 2.045M320 242.5c0 .933-.944 1.5-2.5 1.5-3.1 0-3.349 2.545-.326 3.335 2.559.669 3.826.07 3.826-1.811 0-.746.53-1.534 1.177-1.75.647-.215.846-.928.441-1.583-1.033-1.671-2.618-1.484-2.618.309m-22 1.566c0 1.663.535 2.005 2.741 1.75 1.654-.19 2.874-1.011 3.074-2.066.258-1.359-.355-1.75-2.742-1.75-2.439 0-3.073.426-3.073 2.066m8-.066c0 1.619.667 2 3.5 2s3.5-.381 3.5-2-.667-2-3.5-2-3.5.381-3.5 2m-15.655.543c-.793 2.067.082 2.774 2.487 2.01 3.145-.998 3.58-3.553.605-3.553-1.375 0-2.766.694-3.092 1.543m196.85 1.957c.02 1.65.244 2.204.498 1.231.254-.973.237-2.323-.037-3-.274-.677-.481.119-.461 1.769m-204.85.043c-.326.849-.331 1.804-.012 2.124 1.009 1.009 3.667-.539 3.667-2.136 0-1.996-2.888-1.986-3.655.012M323 247.5c0 .825-.675 1.5-1.5 1.5-2.19 0-1.833 2.751.521 4.011 2.833 1.516 4.838.09 2.389-1.7-1.734-1.269-1.61-1.36 1.49-1.097 4.146.351 5.079-1.447 1.579-3.042-3.415-1.556-4.479-1.478-4.479.328m621.131.121c-7.245 5.075-19.443 36.748-20.777 53.952-.763 9.839.513 14.325 5.061 17.794 7.502 5.723 12.599 4.063 22.249-7.246 9.943-11.653 25.677-35.959 27.386-42.306 1.93-7.168-3.436-12.392-19.747-19.224-10.29-4.31-11.806-4.627-14.172-2.97M305.5 248c.34.55 1.041 1 1.559 1s.941-.45.941-1-.702-1-1.559-1-1.281.45-.941 1m6.931.112c-.725 1.173 1.208 2.847 3.319 2.873 1.803.022 1.54-2.66-.332-3.378-2.094-.804-2.188-.788-2.987.505M292.5 250c-.816 1.32.277 3 1.952 3 1.955 0 2.678-2.736.903-3.417-2.005-.77-2.133-.751-2.855.417m7 0c-.994 1.608.425 3 3.059 3 1.774 0 2.441-.546 2.441-2s-.667-2-2.441-2c-1.343 0-2.719.45-3.059 1m7.845 1.543c-.731 1.905-.518 2.124 2.898 2.982 2.079.522 2.896.276 3.393-1.02.383-.996.074-2.075-.74-2.591-2.176-1.378-4.899-1.069-5.551.629m22.655-.698c0 1.245 3.456 4.155 4.935 4.155.702 0 2.162 1.125 3.244 2.5 1.081 1.375 2.62 2.5 3.418 2.5.799 0 1.885 1.137 2.413 2.526.528 1.389 1.642 2.787 2.475 3.107.833.319 1.515 1.138 1.515 1.819 0 1.268 3.122 4.548 4.329 4.548 1.589 0 .468-3.927-1.829-6.405-1.375-1.484-2.5-3.095-2.5-3.579 0-.485-.877-1.16-1.949-1.5-1.072-.34-2.233-1.514-2.58-2.608-.368-1.16-1.85-2.234-3.551-2.574-1.606-.321-2.92-1.041-2.92-1.599s-.788-1.612-1.75-2.343c-1.968-1.494-5.25-1.836-5.25-.547m158.195 2.655c.02 1.65.244 2.204.498 1.231.254-.973.237-2.323-.037-3-.274-.677-.481.119-.461 1.769m-172.556-.002c-.728 1.899 3.477 4.779 5.72 3.918 2.116-.812 2.071-1.717-.188-3.761-2.276-2.06-4.774-2.131-5.532-.157m-25.951.148c-1.416 1.415-.615 3.354 1.385 3.354 1.398 0 1.968-.543 1.75-1.667-.357-1.841-2.064-2.759-3.135-1.687m6.846.299c-.965 1.561.305 3.055 2.598 3.055 1.375 0 1.908-.552 1.68-1.739-.384-1.992-3.305-2.891-4.278-1.316m31.008-.013c-.555.898 3.092 4.068 4.681 4.068 1.579 0 .714-2.963-1.157-3.965-2.377-1.272-2.794-1.284-3.524-.103m-23.379.967c-1.59.983.006 2.854 3.097 3.63 1.752.44 2.74.288 2.74-.421 0-.609-.477-1.108-1.059-1.108s-.813-.399-.511-.886c.682-1.105-2.827-2.104-4.267-1.215m7.871 2.56c-.93 1.121-.647 1.748 1.391 3.084 2.558 1.676 5.575 1.413 5.575-.486 0-.553-1.305-1.68-2.899-2.505-2.487-1.286-3.066-1.299-4.067-.093m11.366-.297c-.707 1.144 2.913 4.838 4.742 4.838 1.584 0 2.139-2.956.847-4.513-1.471-1.773-4.583-1.954-5.589-.325m-37.15.505c-2.307.922-1.35 3.333 1.323 3.333 1.865 0 2.485-.459 2.25-1.667-.355-1.833-1.648-2.436-3.573-1.666m7-.005c-1.726.697-1.57 3.001.25 3.7 2.003.768 4.5-.265 4.5-1.862 0-1.005-2.491-2.815-3.332-2.421-.092.043-.73.306-1.418.583m41.201.417c-.699 1.131 2.998 4.848 4.872 4.899 1.563.042.171-3.243-1.978-4.667-1.636-1.085-2.332-1.141-2.894-.232m155.17-.275c-.436.706-.353 1.826.185 2.49.538.663 1.2 2.106 1.47 3.206l.492 2 .016-2c.03-3.622-1.293-7.104-2.163-5.696m-189.241 1.648c-.821 2.139.419 3.548 3.12 3.548 3.184 0 4.248-1.98 1.962-3.652-2.399-1.753-4.385-1.713-5.082.104m-21.686.187c-.933.934.194 2.361 1.865 2.361.793 0 1.441-.675 1.441-1.5 0-1.506-2.111-2.056-3.306-.861m29.216 1.969c-1.134 1.367-1.048 1.818.569 3 1.047.766 2.717 1.392 3.712 1.392.995 0 2.709.9 3.809 2s2.9 2 4 2c2.462 0 2.657 1.721.25 2.206-.962.193-2.588-.697-3.613-1.979-1.025-1.281-2.595-2.189-3.489-2.017-.894.172-2.457-.519-3.473-1.535-1.224-1.224-2.639-1.65-4.189-1.261-1.461.367-2.932-.003-3.912-.983-2.171-2.171-6.074-1.484-6.074 1.069 0 1.627.652 1.992 3.5 1.956 1.925-.024 3.959.559 4.519 1.295.561.736 2.127 1.422 3.48 1.524 1.354.102 3.258.982 4.231 1.955.974.974 2.485 1.77 3.36 1.77.874 0 2.379.975 3.344 2.167 2.06 2.544 5.066 1.908 5.066-1.073 0-1.353.626-1.923 2-1.819 1.198.09 2 .867 2 1.938 0 .983.337 1.82.75 1.861.413.041 1.762.263 3 .494 3.365.627 2.654-3.974-.733-4.738-.805-.181-1.939-1.23-2.52-2.33s-1.943-2-3.027-2c-1.083 0-2.433-.9-3-2-.608-1.182-2.039-2-3.5-2-1.358 0-3.29-1.012-4.293-2.25-2.151-2.656-3.931-2.854-5.767-.642m11.49-.446c-.707 1.144 2.913 4.838 4.742 4.838 1.925 0 2.16-3.306.329-4.645-2.273-1.662-4.12-1.732-5.071-.193m11.061-.099c-.794 1.284 2.309 4.937 4.194 4.937.74 0 1.345.685 1.345 1.521 0 .837 1.125 2.034 2.5 2.661 1.375.626 2.5 1.663 2.5 2.304 0 .641 1.087 2.186 2.415 3.435 1.329 1.248 2.675 3.301 2.992 4.564.317 1.262 1.255 2.555 2.084 2.873 2.261.868 1.919-3.085-.391-4.528-1.045-.652-1.704-1.698-1.464-2.323.24-.626-.669-2.33-2.02-3.787-1.351-1.458-2.604-3.405-2.786-4.328-.181-.923-1.212-2.176-2.29-2.785s-2.798-2.119-3.822-3.357c-1.998-2.413-4.193-2.908-5.257-1.187m-86.445 3.767c-3.108 3.108-4.81 11.279-3.547 17.029.505 2.298-.249 5.391-3.009 12.353-2.025 5.109-4.519 13.427-5.541 18.486-1.023 5.058-2.773 10.902-3.889 12.985-1.117 2.083-2.03 4.76-2.03 5.948 0 1.239-7.782 12.616-18.25 26.682a26278.576 26278.576 0 00-54.283 73.187c-6.505 8.8-18.191 24.55-25.967 35-17.254 23.184-17.151 23.022-17.974 28.147-.923 5.739.92 6.367 3.304 1.127 1.07-2.351 11.732-17.549 23.695-33.774 28.92-39.224 28.52-38.667 30.384-42.317 1.434-2.809 15.489-22.133 48.366-66.497 11.519-15.544 11.522-15.545 14.266-3.421 1.215 5.37 12.274 19.376 20.648 26.152 5.601 4.532 16.268 10.623 19.787 11.299.812.156 2.082.847 2.822 1.534 1.224 1.137 4.304 1.75 6.61 1.316.5-.095 1.26.397 1.689 1.091.601.973 1.242.847 2.784-.549 1.102-.997 2.483-1.653 3.07-1.458.587.196-2.425 3.327-6.692 6.958a47749.144 47749.144 0 00-36.331 30.997c-99.946 85.334-101.584 86.722-105.642 89.475-2.001 1.359-5.022 2.42-6.887 2.42-4.228 0-5.775 1.688-12.142 13.25-6.489 11.784-9.257 20.06-9.257 27.681 0 6.258 2.845 15.317 5.675 18.069 1.23 1.196 1.186.792-.217-1.992-3.064-6.081-3.106-15.698-.109-25.215 2.669-8.474 11.21-24.594 13.744-25.939.774-.41 3.027-1.003 5.007-1.317 2.66-.422 6.789-3.242 15.817-10.804 12.814-10.732 111.179-94.665 128.826-109.925 5.634-4.871 12.363-9.984 14.953-11.361 2.591-1.378 5.406-3.131 6.257-3.897.851-.765 3.919-2.325 6.817-3.464 6.992-2.75 14.171-6.425 22.91-11.729 5.899-3.58 8.058-4.357 12.101-4.357 2.706 0 6.326-.49 8.043-1.088 3.816-1.331 7.472-6.841 6.695-10.09-.419-1.752.908-4.355 5.402-10.601 9.432-13.107 12.845-25.203 11.566-40.989-1.161-14.334-1.984-13.721-2.06 1.536-.062 12.524-.388 15.525-2.178 20.022-2.705 6.794-6.263 12.841-10.644 18.085-1.917 2.293-3.767 5.06-4.112 6.148-.345 1.087-1.407 1.977-2.36 1.977-.953 0-2.247.514-2.875 1.142-1.599 1.599-11.575-.47-19.584-4.064-14.139-6.344-35.578-21.188-48.681-33.707-14.783-14.123-24.624-27.862-27.628-38.568-1.911-6.811-3.867-7.788-3.108-1.553.637 5.24 1.591 7.388 7.213 16.25 2.442 3.85 5.316 8.582 6.386 10.516 2.149 3.883 20.514 22.36 29.144 29.322 15.134 12.208 40.975 26.484 48.733 26.923 2.514.142 4.453.806 4.775 1.635.877 2.261-12.159.573-22.055-2.856-10.506-3.64-18.626-7.912-28.591-15.04-23.133-16.547-42.171-37.181-48.748-52.834-3.668-8.729-2.477-19.535 2.286-20.73 1.916-.481 5.6-4.981 5.6-6.84 0-.328-1.835-.596-4.077-.596-3.142 0-4.726.649-6.907 2.83m37.546-1.249c-1.717 1.717-1.257 3.419.926 3.419 1.554 0 4.512-2.669 4.512-4.071 0-1.508-3.725-1.061-5.438.652m7.688-.919c-.687.278-1.25 1.183-1.25 2.011 0 .829-1.012 2.334-2.25 3.346-1.695 1.385-1.968 2.126-1.106 3.004 1.8 1.833 4.866.718 4.783-1.74-.048-1.454.684-2.345 2.25-2.738 1.453-.365 2.323-1.325 2.323-2.564 0-1.936-1.908-2.466-4.75-1.319m-14.809 1.771c-1.578 1.164-1.702 1.675-.663 2.727 1.536 1.557 4.538.059 5.045-2.517.399-2.025-1.782-2.129-4.382-.21m51.865 1.212c-.597 1.556 1.92 4.355 3.917 4.355 1.518 0 2.026-2.994.766-4.513-1.632-1.966-3.897-1.89-4.683.158m-58.961 1.898c-.326.849-.331 1.804-.012 2.124 1.009 1.009 3.667-.539 3.667-2.136 0-1.996-2.888-1.986-3.655.012m9.62 1.999c-.894 1.078-.964 1.859-.23 2.593 1.362 1.362 5.265-.617 5.265-2.67 0-1.933-3.41-1.88-5.035.077m15.139-.628c-.797.505-1.121 1.599-.755 2.552.892 2.327 6.013 1.668 6.489-.834.22-1.16-.062-1.612-.742-1.191-.603.372-1.096.2-1.096-.382 0-1.281-1.984-1.355-3.896-.145m52.481-.051c-.329.532.435 2.243 1.697 3.802 1.263 1.559 2.831 4.073 3.485 5.585.655 1.512 1.623 2.75 2.153 2.75 1.857 0 1.98-1.697.297-4.087-.935-1.327-2.379-3.736-3.208-5.353-1.616-3.149-3.453-4.269-4.424-2.697M271.2 270.2c-1.774 1.774-1.509 4.133.382 3.407.87-.334 1.77-.607 2-.607.23 0 .418-.9.418-2 0-2.267-1.037-2.563-2.8-.8m60.97.97c.181 1.281.893 2.386 1.58 2.455.688.069 1.638.181 2.111.25.474.069.633 1.32.354 2.78-.453 2.372-.26 2.59 1.814 2.048 3.198-.837 5.047 1.722 3.56 4.93-.599 1.293-1.877 2.355-2.839 2.359-1.992.009-2.214 1.273-.715 4.074 1.506 2.813 4.313 2.537 3.758-.369-.438-2.293 1.181-4.697 3.165-4.697.573 0 1.042.477 1.042 1.059s.433.791.962.464c1.326-.819-.908-5.523-2.623-5.523-.736 0-1.339-.867-1.339-1.927 0-1.061-1.012-2.766-2.25-3.791-1.238-1.024-2.746-2.744-3.352-3.822-.606-1.078-2.105-2.109-3.33-2.29-1.832-.271-2.169.085-1.898 2M494 269.711c0 .574.788 1.662 1.75 2.417 1.619 1.269 1.64 1.222.283-.628-.807-1.1-1.594-2.187-1.75-2.417-.156-.229-.283.054-.283.628m-194.333.956c-1.295 1.295-.641 3.276 1.45 4.395 1.677.898 2.437.812 3.664-.414 1.274-1.274 1.32-1.822.261-3.098-1.323-1.594-4.193-2.065-5.375-.883M264 274c0 2.274 2.508 2.725 3.324.598.628-1.636-.11-2.598-1.991-2.598-.733 0-1.333.9-1.333 2m17.223-.443c-1.237.866-2.223 2.611-2.223 3.932 0 1.498-.739 2.611-2 3.011-2.101.667-2.688 2.957-1.021 3.987 1.789 1.105 5.246-1.518 4.709-3.573-.296-1.132.01-1.914.751-1.914 1.965 0 4.867-3.761 4.214-5.463-.744-1.938-1.642-1.934-4.43.02m71.333-.647c-.828 1.34.368 3.847 2.164 4.536 2.153.826 2.631.089 1.881-2.899-.627-2.498-2.936-3.433-4.045-1.637m55.639 1.59c.02 1.65.244 2.204.498 1.231.254-.973.237-2.323-.037-3-.274-.677-.481.119-.461 1.769m-135.021.814c-2.66 2.832-2.79 4.686-.329 4.686 2.447 0 5.551-3.526 4.808-5.463-.815-2.123-1.937-1.928-4.479.777m14.36-.351c-.977 1.079-1.511 2.654-1.187 3.5.655 1.705 2.653 2.109 2.653.537 0-.55.914-1 2.031-1 2.481 0 3.79-2.867 1.865-4.086-2.133-1.35-3.419-1.098-5.362 1.049m19.716-1.301c-.687.278-1.25 1.42-1.25 2.538 0 1.583.472 1.91 2.131 1.476 2.089-.546 4.869 1.244 4.869 3.136 0 .525-.9 1.19-2 1.478-1.282.335-2 .03-2-.848 0-1.662-3.672-3.782-5.4-3.119-.684.263-1.778-.378-2.43-1.423-1.502-2.405-4.375-2.436-6.515-.071-2.852 3.151-2.09 4.41 2.3 3.796 3.081-.431 3.839-.252 3.432.81-.73 1.902 1.408 2.98 3.11 1.568 1.083-.899 1.732-.868 2.805.134 1.836 1.716 1.108 4.204-1.581 5.402-1.186.529-2.395 1.861-2.688 2.961-.293 1.1-1.266 2.12-2.162 2.266-2.101.343-2.976-2.945-1.22-4.585.792-.74 1.349-.831 1.349-.22 0 1.622 1.994 1.219 2.668-.539.333-.867-.118-2.3-1.002-3.184-1.392-1.392-1.948-1.425-4.148-.248-1.781.954-2.368 1.906-1.962 3.185.425 1.34.061 1.825-1.366 1.825-2.457 0-4.595 2.503-3.833 4.487.319.832 1.521 1.513 2.671 1.513 1.149 0 1.815-.445 1.479-.989-.35-.566.051-.734.941-.393.854.328 1.552 1.659 1.552 2.958 0 1.61-.444 2.191-1.396 1.825-2.066-.792-4.866 3.578-3.414 5.328.774.933 1.345 1.023 1.802.284 1.243-2.012 3.74-.06 3.243 2.537-.51 2.669.605 3.167 2.69 1.2 1.06-1 1.417-1 1.783 0 .939 2.559 2.533 1.206 1.959-1.663-.745-3.729 1.519-6.044 3.741-3.822 1.038 1.038 1.153 1.774.395 2.532-.588.588-.778 1.824-.424 2.748.532 1.386.913 1.458 2.175.41 1.16-.962 1.812-.989 2.688-.113 1.516 1.516 2.766 1.474 2.725-.092-.043-1.597-3.481-5.75-4.761-5.75-1.753 0-2.224-4.411-.64-5.994 1.338-1.338 1.614-1.339 2.47-.006.848 1.32 1.078 1.323 1.913.023.656-1.021.454-2.025-.655-3.25-2.353-2.601-4.318-2.17-5.6 1.227-1.261 3.34-3.213 3.947-3.926 1.22-.54-2.064 1.208-4.061 3.024-3.456.698.233 1.72-.936 2.316-2.645.587-1.683 1.365-3.02 1.73-2.971 2.167.291 3.162-.384 3.162-2.148 0-1.1.477-2 1.059-2s.762-.48.4-1.067c-.396-.64.08-.94 1.191-.75 1.289.221 1.85-.289 1.85-1.683 0-1.333-.667-2-2-2-1.1 0-2.82-1.012-3.823-2.25-1.801-2.223-2.99-2.571-5.427-1.588m-49.583 2.005c-1.003 1.002-.802 4.333.262 4.333.51 0 1.635-.707 2.5-1.571.864-.865 1.571-1.99 1.571-2.5 0-1.064-3.331-1.265-4.333-.262m8.287 2.419c-.614 1.147-.833 2.368-.487 2.714.937.938 3.985-1.271 4.356-3.157.47-2.385-2.54-2.041-3.869.443M323 279c0 1.321-.667 2-1.965 2-1.08 0-2.502 1.004-3.159 2.231-.656 1.227-2.247 3.06-3.535 4.073-1.287 1.012-2.341 2.457-2.341 3.21 0 1.96 2.08 2.975 3.011 1.468.445-.72 1.534-.987 2.507-.613 1.383.53 1.634.205 1.278-1.658-.566-2.959 1.735-5.345 3.634-3.769 1.005.834 1.479.739 1.91-.384.315-.822.094-1.79-.49-2.151-1.568-.969 1.263-2.482 3.4-1.817 2.032.632 2.386-1.554.55-3.39-1.933-1.933-4.8-1.455-4.8.8m9.357.513c-.71 1.849 1.471 4.711 2.911 3.821.604-.373.742-.159.327.511-.422.685-.078 1.155.846 1.155 2.133 0 1.966-3.322-.27-5.345-2.264-2.049-3.071-2.079-3.814-.142m24.023-.061c-.712 1.856.327 3.548 2.179 3.548.793 0 1.441.477 1.441 1.059s.448.782.996.443c.628-.387.433-1.706-.525-3.559-1.657-3.203-3.216-3.772-4.091-1.491m96.258 1.048c.317.825 1.033 1.5 1.591 1.5.586 0 .489-.635-.229-1.5-.685-.825-1.401-1.5-1.591-1.5-.19 0-.087.675.229 1.5m-169.409.671c-2.192 2.192-1.444 3.987 1.521 3.645 1.971-.226 2.75-.879 2.75-2.302 0-2.325-2.502-3.112-4.271-1.343M268.2 282.2c-1.962 1.962-1.378 2.953 1.541 2.616 3.198-.369 4.581-3.816 1.532-3.816-1.03 0-2.413.54-3.073 1.2m22.524-.066c-2.623 1.468-2.22 4.866.576 4.866 2.253 0 4.7-1.648 4.7-3.165 0-1.541-3.528-2.678-5.276-1.701m37.322 1.31c-.698.842-.989 2.262-.646 3.156.525 1.369.876 1.416 2.22.3 1.351-1.121 1.809-1.034 2.978.565 2.061 2.818 3.073.879 1.178-2.255-1.954-3.231-3.992-3.859-5.73-1.766m24.471-.472c-.684 1.107 2.253 6.028 3.598 6.028 1.025 0 1.109-1.564.255-4.75-.617-2.303-2.777-3.019-3.853-1.278m-90.058 1.095c-.92 1.489.147 2.298 2.061 1.564.884-.339 1.327-1.07.984-1.624-.81-1.311-2.215-1.284-3.045.06m9.505 2.969c-2.25 2.25-1.829 3.964.973 3.964 2.349 0 4.451-2.546 3.706-4.487-.791-2.063-2.257-1.899-4.679.523m-6.764.164c-1.21 1.21-1.684 4.8-.634 4.8 1.842 0 4.434-2.359 4.434-4.035 0-2.198-1.971-2.594-3.8-.765m13.248.55c-.421.962-.681 2.125-.579 2.584.103.459-.951 1.729-2.341 2.823-2.717 2.137-3.378 4.843-1.183 4.843 1.547 0 4.655-3.147 4.655-4.714 0-.581 1.125-1.793 2.5-2.694s2.5-2.303 2.5-3.115c0-2.103-4.611-1.876-5.552.273m81.046-.741c-.922 1.492.48 5.125 1.69 4.377.572-.353 1.432-.022 1.912.736.654 1.032.877.833.889-.79.031-4.499-2.735-7.163-4.491-4.323m-75 1.997c-.998 1.104-1.52 2.301-1.16 2.661.36.36-.356 1.156-1.59 1.769s-2.38 2.054-2.546 3.202c-.302 2.094-5.198 5.241-5.198 3.341 0-.539-.9-.979-2-.979-1.367 0-2 .667-2 2.107 0 1.462.459 1.931 1.5 1.531.896-.344 1.5-.008 1.5.834 0 2.348 1.774 2.696 5.067.993 2.288-1.183 2.992-2.133 2.623-3.541-.357-1.368.013-1.924 1.281-1.924 2.371 0 4.217-2.347 3.439-4.373-.422-1.101-.086-1.627 1.042-1.627.916 0 1.391-.445 1.055-.989-.35-.565.049-.735.933-.396 2.038.782 3.334-2.511 1.456-3.701-2.141-1.355-3.421-1.097-5.402 1.092m38.676-.256c-1.369 2.662-.372 4.662 1.535 3.079 1.237-1.025 1.747-.931 2.807.519 1.993 2.725 2.839.117.915-2.82-1.933-2.949-3.984-3.253-5.257-.778m22.009 1.75c-1.082 1.375-2.465 2.5-3.073 2.5-.608 0-1.106 1.125-1.106 2.5 0 1.556.567 2.5 1.5 2.5.825 0 1.5.525 1.5 1.167 0 .641.337.826.75.411.413-.416.75-1.9.75-3.298 0-3.217 3.111-5.479 4.513-3.28 1.09 1.71 1.241.549.357-2.75-.79-2.947-2.751-2.853-5.191.25m24.9-.917c.048 1.165.285 1.402.604.605.289-.722.253-1.585-.079-1.917-.332-.332-.568.258-.525 1.312m38 0c.048 1.165.285 1.402.604.605.289-.722.253-1.585-.079-1.917-.332-.332-.568.258-.525 1.312M333.2 291.2c-.66.66-1.2 1.785-1.2 2.5 0 .715-.62 1.3-1.378 1.3-2.053 0-3.936 2.738-3.201 4.654.484 1.261.93 1.395 1.788.537s1.514-.837 2.628.083c1.26 1.04 1.412.838 1.001-1.327-.476-2.506 1.063-4.947 3.12-4.947.573 0 1.042.54 1.042 1.2 0 .868.302.898 1.093.107.79-.79.78-1.676-.036-3.2-1.264-2.363-3.065-2.699-4.857-.907m22.333-.253c-.358.579-.326 1.579.072 2.223.486.787.178.961-.941.531-1.087-.417-1.664-.129-1.664.83 0 .808-.642 1.469-1.427 1.469-.786 0-2.248 1.036-3.25 2.303-1.003 1.267-2.611 2.603-3.573 2.969-.962.366-1.75 1.529-1.75 2.586 0 1.212-.643 1.869-1.744 1.781-1.02-.081-2.37 1.107-3.251 2.861-.828 1.65-2.181 3-3.006 3-.824 0-1.931.985-2.46 2.188-.528 1.204-1.721 2.388-2.65 2.631-2.285.597-3.971 3.931-2.88 5.695.724 1.172 1.212 1.096 2.93-.459 1.134-1.026 2.061-2.47 2.061-3.21 0-.74.914-1.345 2.031-1.345 1.118 0 2.332-.788 2.7-1.75 1.066-2.794 4.02-5.522 5.192-4.797.601.371 1.077-.056 1.077-.965 0-2.347 2.667-4.835 3.588-3.346.431.699 1.16-.189 1.839-2.243.738-2.232 1.716-3.351 2.849-3.26 1.063.086 1.724-.573 1.724-1.719 0-1.24.498-1.666 1.5-1.282.95.365 1.5-.013 1.5-1.031 0-1.898 1.638-2.155 2.28-.357.245.688.817.904 1.269.48 1.04-.971-.66-5.937-2.207-6.451-.637-.212-1.452.089-1.809.668M267.2 293.2c-1.857 1.857-1.462 4.8.645 4.8 2.275 0 5.59-3.487 4.694-4.937-.881-1.425-3.853-1.349-5.339.137m50.467 1.74c-.715 1.701-1.536 2.858-1.823 2.571-1.035-1.035-4.08 3.431-3.453 5.064.513 1.339.914 1.417 2.121.415 1.182-.981 1.801-.975 3.012.03 2.062 1.711 2.895.631 1.509-1.958-.904-1.689-.796-2.442.541-3.779 1.56-1.56 1.76-1.547 3.038.201 2.051 2.804 3.052.848 1.164-2.274-2.339-3.867-4.555-3.964-6.109-.27m44.101 2.06c-.687 1.1-1.816 2-2.509 2-.692 0-1.259 1.125-1.259 2.5 0 3.048 2.938 3.453 3.707.511.286-1.094.868-1.774 1.293-1.511 1.234.763 3.281-2.325 2.643-3.987-.802-2.091-2.389-1.892-3.875.487m-75.732.456c-.664.801-.918 1.926-.563 2.5.355.574.091 1.044-.585 1.044-1.987 0-4.8 3.067-4.214 4.594.297.773 1.842 1.406 3.433 1.406 3.46 0 3.846 2.108.643 3.513-1.238.543-2.25 1.873-2.25 2.957 0 1.533.741 2.006 3.345 2.137 3.018.152 3.301-.065 2.89-2.213-.532-2.782 1.269-4.764 2.765-3.044.55.633 1.045 1.713 1.1 2.4.265 3.316.422 3.477 2.063 2.122 1.296-1.07 1.755-1.097 2.083-.122.636 1.891 2.254 1.496 2.254-.55 0-2.361-1.912-4.2-4.367-4.2-1.081 0-1.682-.284-1.335-.631 1.256-1.256-1.44-4.565-3.319-4.074-1.066.279-2.089-.14-2.414-.987-.8-2.084-.728-2.308.744-2.308.72 0 2.165-.626 3.212-1.392 1.617-1.182 1.703-1.633.569-3-1.662-2.002-4.46-2.072-6.054-.152M335.84 300c-.731 1.65-2.07 3-2.977 3-1.745 0-3.237 2.586-2.334 4.047.294.476 1.196.612 2.003.302.807-.309 1.468-.038 1.468.603s.481.869 1.068.506c.588-.363.818-1.314.511-2.113-.306-.798.358-2.434 1.477-3.635 1.606-1.725 2.208-1.901 2.864-.84 1.327 2.148 2.344-.508 1.091-2.849-1.547-2.891-3.633-2.495-5.171.979m-37.202-.5c-.766 1.998.263 4.5 1.852 4.5 1.86 0 2.543-4.773.78-5.45-1.962-.753-1.981-.746-2.632.95m24.402 1.952c-.672.81-.908 2.388-.533 3.569.642 2.023.733 2.036 2.063.298 1.13-1.477 1.56-1.564 2.286-.462 1.391 2.11 2.433-.449 1.155-2.836-1.271-2.375-3.281-2.605-4.971-.569m40.16 1.748c-.66.66-1.2 1.771-1.2 2.469 0 .697-.634 1.025-1.41.727-.845-.324-1.67.281-2.061 1.511-.358 1.129-1.159 1.949-1.781 1.823-1.583-.322-2.18 3.242-.774 4.626.873.861 1.481.71 2.454-.606.711-.962 1.621-1.75 2.022-1.75.401 0 1.623-1.012 2.716-2.25 1.092-1.238 1.658-1.618 1.256-.845-.481.923-.336 1.16.423.69 1.291-.797 1.608-7.595.355-7.595-.44 0-1.34.54-2 1.2m-45.442 4.63c-.587 1.556-2.011 3.243-3.163 3.75-1.152.506-2.539 1.932-3.082 3.17-.543 1.238-1.556 2.25-2.25 2.25-.695 0-1.263.382-1.263.849 0 .467-2.099 2.918-4.665 5.448-3.969 3.913-4.473 4.831-3.378 6.151 1.531 1.845 3.145 2.045 2.793.347-.137-.662.425-1.232 1.25-1.267.868-.036 1.471-.961 1.431-2.194-.047-1.487.38-1.96 1.414-1.563.888.34 1.221.145.83-.488-.829-1.342 1.889-3.67 3.281-2.81.586.362 1.044-.191 1.044-1.259 0-1.047.9-2.719 2-3.714 1.241-1.123 2-1.349 2-.596 0 .668.489.912 1.087.542.598-.369.891-1.422.651-2.338-.546-2.091 1.884-4.467 3.813-3.727 1.701.653 1.867-.731.414-3.447-1.458-2.724-2.961-2.404-4.207.896m32.231-.809c-1.219 2.277-.563 3.979 1.535 3.979 1.679 0 3.822-3.631 2.963-5.021-1.013-1.639-3.354-1.097-4.498 1.042M277 308.378c0 1.975 2.71 3.947 4.487 3.265 1.984-.761 1.941-3.265-.069-4.036-2.616-1.004-4.418-.69-4.418.771m49.655.451C324.83 310.846 324.43 314 326 314c.55 0 1-.502 1-1.117 0-.624.882-.886 2-.593 2.069.541 2.541-.716 1.393-3.708-.789-2.058-1.708-1.997-3.738.247m-23 2c-1.703 1.881-2.152 4.34-1.004 5.489.358.358 1.21-.113 1.892-1.046 1.048-1.434 1.49-1.49 2.849-.362 1.389 1.153 1.608 1.055 1.608-.716 0-1.669-2.318-5.194-3.416-5.194-.151 0-1.019.823-1.929 1.829m41.012-.162c-1.03 1.029-.789 4.14.377 4.86 1.462.904 3.956-1.397 3.956-3.649 0-1.837-2.898-2.647-4.333-1.211M415 312.941c0 .518.445 1.216.989 1.552.566.35.734-.051.393-.941-.665-1.732-1.382-2.049-1.382-.611m-94.374 1.592c-.344.897-.626 2.549-.626 3.671 0 1.673.262 1.823 1.456.832.801-.664 1.961-.897 2.577-.516.751.464 1.013-.246.794-2.155-.365-3.179-3.208-4.42-4.201-1.832m30.041-.866c-1.288 1.288-.683 5.333.798 5.333 1.715 0 3.463-2.947 2.817-4.75-.482-1.343-2.526-1.673-3.615-.583m-10.917 1.413c-.962.561-1.75 1.672-1.75 2.47 0 .805-.931 1.45-2.094 1.45-1.252 0-2.303.803-2.616 2-.288 1.1-1.076 2-1.752 2-1.712 0-4.538 3.318-4.538 5.329 0 2.465 2.719 2.03 4.524-.725.863-1.317 2.482-2.634 3.597-2.925 1.115-.292 2.263-1.433 2.552-2.536.288-1.102 1.071-1.795 1.739-1.539 1.711.657 4.951-3.215 4.241-5.067-.683-1.779-1.474-1.871-3.903-.457m-50.55 1.12c-.66.66-1.2 2.019-1.2 3.019 0 1.442.519 1.689 2.503 1.191 2.185-.549 2.581-.241 3.112 2.417.644 3.217 2.849 4.849 4.012 2.967.38-.615-.315-1.932-1.544-2.928-1.23-.996-1.995-2.199-1.701-2.675.589-.953-2.055-5.191-3.239-5.191-.409 0-1.283.54-1.943 1.2m295.886-.383c-6.129.927-14.479 8.897-15.696 14.981-1.512 7.56 3.413 15.659 13.432 22.088 10.002 6.418 20.222 2.726 26.537-9.586 4.65-9.068-.704-21.43-10.978-25.349-4.038-1.54-10.436-2.567-13.295-2.134M298.2 317.2c-1.392 1.392-1.625 5.8-.307 5.8.491 0 1.171-.726 1.512-1.613.466-1.216.946-1.341 1.949-.508 1.934 1.605 2.683.296 1.419-2.479-1.203-2.64-2.732-3.041-4.573-1.2m47.55.88c-.962.561-1.75 1.928-1.75 3.039 0 3.339 4.419 2.083 4.816-1.369.339-2.942-.292-3.286-3.066-1.67m-30.095 1.749c-.91 1.006-1.655 2.566-1.655 3.468 0 .984-.552 1.428-1.38 1.111-.763-.293-2.327.675-3.5 2.166-2.325 2.956-2.958 8.872-.874 8.177.685-.228 1.247-1.278 1.25-2.333.002-1.055 1.016-2.362 2.254-2.905 1.238-.543 2.25-1.582 2.25-2.309 0-.727.399-1.076.886-.774.488.301 1.136-.406 1.441-1.571.369-1.413 1.073-1.919 2.113-1.52 1.64.629 2.037-.933.953-3.757-.789-2.058-1.708-1.997-3.738.247m38.918-.159c-.654 1.704 1.186 3.597 2.629 2.705.439-.271.798-1.366.798-2.434 0-2.375-2.542-2.576-3.427-.271m245.05 2.33c1.167 1.375 2.369 3.175 2.671 4 .469 1.284.559 1.274.627-.076.043-.866-1.158-2.666-2.671-4l-2.75-2.424 2.123 2.5M350 323.5c0 2.972 2.53 3.403 3.275.558.571-2.185.016-3.058-1.942-3.058-.755 0-1.333 1.083-1.333 2.5m-89 0c0 .825.45 1.5 1 1.5s1-.675 1-1.5-.45-1.5-1-1.5-1 .675-1 1.5m61.2-.3c-1.806 1.806-1.443 3.8.693 3.8 1.735 0 3.107-1.803 3.107-4.082 0-1.311-2.383-1.135-3.8.282m16.811.287c-1.313 1.582-.728 4.513.901 4.513 1.337 0 4.126-4.129 3.487-5.163-.811-1.312-3.033-.983-4.388.65m19.166 1.066c.452 2.172 2.227 2.305 2.633.197.21-1.095-.28-1.75-1.31-1.75-.961 0-1.512.647-1.323 1.553M249 325.583c0 1.766 2.153 1.459 2.771-.395.218-.654-.317-1.188-1.188-1.188-.87 0-1.583.712-1.583 1.583m95.035 1.351c-1.419 2.652-1.315 3.066.765 3.066 2.106 0 4.2-1.845 4.2-3.7 0-2.017-3.806-1.531-4.965.634m9.632-1.267c-.367.366-.667 1.491-.667 2.5 0 2.25 2.556 2.433 3.396.243.972-2.533-.979-4.494-2.729-2.743M256.5 327c-.816 1.32.38 3.192 1.569 2.457 1.215-.75 1.207-3.457-.01-3.457-.518 0-1.219.45-1.559 1m8.5 2c0 2.384 1.536 2.653 2.393.418.858-2.235.79-2.418-.893-2.418-.833 0-1.5.889-1.5 2m51.479.024c-1.308 1.444-1.524 2.331-.755 3.1 1.279 1.279 5.716-2.603 4.753-4.16-.9-1.458-1.979-1.172-3.998 1.06m16.583-.139c-.555 1.037-2.096 2.158-3.425 2.491-2.724.684-4.219 3.442-2.693 4.968 1.176 1.176 5.056-1.868 5.056-3.968 0-.808.633-1.07 1.645-.682 1.544.592 4.355-1.915 4.355-3.885 0-1.62-3.957-.758-4.938 1.076m16.06.468c-1.216 1.465-.526 2.647 1.545 2.647 1.489 0 1.825-2.578.446-3.43-.487-.301-1.383.051-1.991.783m74.878-.975c0 .207.788.995 1.75 1.75 1.586 1.243 1.621 1.208.378-.378-1.307-1.666-2.128-2.195-2.128-1.372m-102.333 1.289c-.979.978-.813 4.125.252 4.783 1.173.725 4.081-2.141 4.081-4.021 0-1.445-3.105-1.991-4.333-.762m17.76.098c-.59.404-1.363 1.523-1.719 2.485-.355.962-1.544 1.75-2.641 1.75-2.033 0-4.514 3.22-3.365 4.369 1.356 1.355 3.393.517 4.466-1.838.618-1.357 1.528-2.219 2.022-1.914 1.341.829 3.81-1.594 3.81-3.739 0-1.982-.799-2.327-2.573-1.113m264.652.818c.048 1.165.285 1.402.604.605.289-.722.253-1.585-.079-1.917-.332-.332-.568.258-.525 1.312m59.921.952c-6.198 1.923-17.975 11.603-25.631 21.069-7.938 9.813-17.883 29.576-22.801 45.311-1.962 6.278-3.588 12.128-3.612 13-.024.872-.651 3.288-1.394 5.369-.904 2.535-.972 3.479-.206 2.858.629-.51 3.844-1.648 7.144-2.528 3.3-.881 10.725-2.939 16.5-4.573 5.775-1.633 11.625-2.993 13-3.021 3.112-.063 5.29-1.387 5.585-3.396 1.216-8.287 12.461-31.837 19.116-40.036 7.361-9.068 11.436-11.952 16.99-12.026 4.289-.057 4.822.215 6.717 3.431 1.616 2.74 2.137 5.648 2.421 13.5.416 11.513-1.104 24.431-3.018 25.645-.798.506-.872.837-.189.847 1.244.017-1.745 14.62-3.265 15.953-.472.413-7.607 2.448-15.857 4.522-30.491 7.666-67.181 19.61-96 31.255-19.386 7.833-18.594 7.479-41.385 18.442-10.112 4.864-18.719 8.843-19.127 8.843-.409 0-1.285.653-1.947 1.451-1.026 1.236-1.637 1.008-4.123-1.535-1.605-1.642-2.942-3.307-2.971-3.7-.028-.394-.256-5.891-.505-12.216-.598-15.175-1.033-17.36-4.199-21.123-4.895-5.818-15.137-8.329-24.112-5.912C473.164 435.11 466 446.471 466 456.961c0 9.916 4.339 17.087 16.459 27.201 4.147 3.461 7.541 6.551 7.541 6.866 0 .316-1.913 1.505-4.25 2.644-2.337 1.138-20 11.147-39.25 22.241-30.813 17.758-74.979 41.001-75.929 39.959-.186-.205 2.302-5.005 5.529-10.668 11.903-20.887 12.935-38.053 2.967-49.399-2.08-2.368-4.749-6.205-5.931-8.527-5.268-10.353-13.86-16.728-29.636-21.989-10.674-3.56-11.445-3.67-26-3.711-16.933-.048-25.092 1.684-37.804 8.027-12.804 6.387-21.079 12.519-34.042 25.225-23.576 23.109-44.315 60.216-54.595 97.685-1.194 4.353-2.651 8.493-3.237 9.2-1.388 1.672-.216 1.659 14.216-.157 11.934-1.501 30.151-5.861 40.86-9.779l6.23-2.279 2.999-9c4.321-12.968 16.429-37.238 24.943-50 7.94-11.901 23.01-27.92 31.325-33.298 11.155-7.216 21.74-9.563 28.882-6.404 6.842 3.027 10.099 8.509 10.567 17.786.55 10.889-1.353 15.41-11.405 27.096a3288.514 3288.514 0 00-16.047 18.82c-4.18 4.95-8.135 9.45-8.788 10-2.27 1.912-5.884 8.707-7.626 14.336l-1.751 5.664-20.864 8.294c-45.704 18.17-70.174 24.331-96.863 24.39-16.037.035-28.584-1.835-41.737-6.223-10.495-3.5-16.128-6.367-24.763-12.6-5.637-4.07-6.102-4.261-3.5-1.44 4.457 4.833 17.85 13.319 27.5 17.424 10.879 4.628 18.967 6.489 31.75 7.305 11.815.754 11.02-.401 9.19 13.35-1.521 11.423-1.296 36.164.432 47.5 4.966 32.593 20.846 55.296 45.628 65.232 9.258 3.712 17.016 5.268 26.269 5.268 5.012 0 8.607.392 8.291.903-1.031 1.668 12.253-3.558 18.496-7.277 4.594-2.736 5.993-3.225 5.455-1.903-.398.977-1.379 4.858-2.179 8.623-1.993 9.379-2.357 10.174-8.743 19.074-13.588 18.939-19.714 40.709-16.183 57.51 2.762 13.143 13.267 30.86 23.461 39.57 2.781 2.375 2.331 1.542-2.155-4-6.763-8.353-13.104-20.547-15.342-29.5-3.5-14.008.373-33.841 9.86-50.487 2.349-4.12 4.563-7.497 4.922-7.502.359-.006 1.098 1.269 1.644 2.833 2.385 6.842 10.476 13.393 21.808 17.659 11.879 4.471 14.601 3.123 15.795-7.82 1.197-10.977 8.974-46.633 15.712-72.037.995-3.753 1.4-4.034 15.466-10.75 7.944-3.793 14.91-6.896 15.479-6.896.61 0 .816 1.334.502 3.25-1.436 8.755-2.558 19.444-2.558 24.365 0 5.141.284 5.774 4.713 10.509 6.553 7.006 21.047 14.127 27.85 13.684 5.565-.362 5.839-.759 7.337-10.607 1.373-9.028 10.159-35.681 17.025-51.649 2.825-6.571 5.259-12.069 5.407-12.217.246-.247 31.891-11.335 32.348-11.335.109 0 2.286 1.807 4.837 4.015 5.704 4.936 18.06 10.841 25.634 12.25 14.917 2.775 26.988-4.741 44.074-27.442 3.252-4.322 6.695-7.833 7.994-8.155 2.779-.687 27.931-2.885 28.232-2.466.118.164 1.947 3.191 4.063 6.727 6.947 11.606 16.204 19.209 34.486 28.327l4.5 2.244.245 12.5c.287 14.674.698 16.989 3.024 17.032.952.017 2.605.692 3.672 1.5 2.604 1.97 4.904 1.849 6.904-.361 1.362-1.505 1.655-4.139 1.655-14.877 0-14.319.19-14.814 6.095-15.919 1.873-.35 6.341-2.156 9.93-4.012 11.606-6.002 20.518-14.695 28.029-27.336l4.107-6.915 12.67-.306c14.344-.346 13.32-.811 19.169 8.709 6.612 10.763 15.027 17.953 30.178 25.783l8.322 4.301.5 13.95.5 13.951 4.628 2.445c4.457 2.354 4.725 2.381 7.25.727C763 711.954 763 711.953 763 698.005v-13.949l5.75-1.631c15.395-4.367 31.258-17.824 39.439-33.458l2.338-4.467 13.882-.279 13.882-.279-.671 6.279c-2.4 22.467-3.724 42.928-3.908 60.42l-.212 20.141 3.073 3.859c6.941 8.717 24.458 17.3 36.927 18.093 6.58.418 7.289.251 11.819-2.785 9.297-6.229 29.435-34.631 49.068-69.199 1.483-2.612 2.848-4.75 3.033-4.75.185 0 2.073.726 4.196 1.613 6.316 2.639 18.305 1.524 26.237-2.439 3.494-1.746 6.419-3.174 6.5-3.174.081 0 .178 6.862.216 15.25.051 11.262.529 16.95 1.831 21.75 5.809 21.426 19.339 34.953 42.519 42.507 11.692 3.81 32.101 1.374 44.521-5.314 6.694-3.605 21.587-18.487 30.215-30.193 13.298-18.041 25.526-40.571 36.635-67.5 11.05-26.782 11.455-28.09 9.68-31.203-.954-1.674-3.139-3.107-6.228-4.086-4.387-1.39-4.908-1.371-6.692.244-1.065.963-3.266 5.417-4.892 9.898-6.785 18.696-20.113 47.008-27.607 58.647-2.301 3.575-5.183 8.154-6.403 10.175-7.383 12.231-23.613 29.195-32.425 33.892-7.751 4.131-17.407 5.126-23.179 2.387-7.818-3.71-13.353-16.124-13.802-30.954l-.242-8 6-.615c18.349-1.882 39.087-11.823 53.87-25.825 6.825-6.464 13.454-14.806 16.456-20.708 3.211-6.312 6.168-18.111 6.224-24.832.049-5.996.069-6.036 5.021-10.02 11.602-9.336 25.29-28.704 29.837-42.218 2.885-8.576 2.941-30.747.11-43.55-1.929-8.722-8.919-24.605-11.885-27.004-.834-.676-1.26-.778-.946-.228 4.329 7.585 9.302 22.119 10.776 31.5 1.524 9.693 1.272 25.678-.513 32.54-1.629 6.262-6.92 16.798-13.211 26.305-4.417 6.677-16.953 20.155-18.745 20.155-.688 0-1.803-1.332-2.478-2.961-1.14-2.753-12.323-14.444-18.016-18.835-4.818-3.715-14.028-8.396-20.236-10.284-11.89-3.616-23.051-1.819-34.05 5.482-5.073 3.367-18.195 15.993-22.802 21.94-3.251 4.196-12.39 19.173-16.42 26.908-1.935 3.712-3.624 6.77-3.755 6.794-2.679.492-24.323 2.674-24.536 2.474-.165-.156 1.022-3.011 2.638-6.346 1.615-3.335 2.753-6.247 2.528-6.472-.225-.225 1.455-4.412 3.734-9.304 6.159-13.221 5.616-21.652-2.013-31.285-5.002-6.315-16.421-11.248-22.504-9.721-3.036.761-9.82 10.775-16.041 23.674-5.018 10.405-9.962 27.678-12.503 43.686-.022.138-7.27.25-16.107.25-14.824 0-16.03-.135-15.575-1.75.979-3.478 1.666-7.862 2.147-13.709.53-6.435 3.285-18.398 7.105-30.852 1.782-5.81 2.134-8.299 1.374-9.718-3.332-6.228-32.75-15.307-38.911-12.01-1.193.638-2.635 2.371-3.206 3.85-1.463 3.796-6.578 24.785-7.377 30.274-.961 6.598-1.753 7.572-4.965 6.108-1.47-.669-6.997-1.193-12.593-1.193-11.39 0-9.988 1.209-13.918-12-3.028-10.177-7.192-17.751-13.734-24.98-9.363-10.346-19.794-17.475-29.286-20.013-2.472-.662-5.056-1.664-5.744-2.227-.886-.726-1.25-4.889-1.25-14.28 0-14.564.097-14.322-6.606-16.432-3.135-.987-4.612-1.022-6.25-.145-2.034 1.088-2.144 1.86-2.144 14.99 0 9.879-.358 14.126-1.25 14.832-.687.545-3.506 1.726-6.263 2.624-6.009 1.959-17.191 9.282-22.919 15.01-8.561 8.562-17.014 23.81-18.811 33.934-1.509 8.5-1.876 8.825-9.605 8.479l-6.533-.292-2.598-9c-3.55-12.295-8.236-20.63-16.521-29.38-8.65-9.136-14.677-13.269-24.438-16.756-4.159-1.486-8.124-3.131-8.812-3.655-.889-.679-1.25-4.78-1.25-14.209 0-14.625.131-14.309-6.838-16.509-7.224-2.28-7.616-1.562-7.941 14.549-.154 7.604-.711 14.346-1.239 14.981-.527.635-2.876 1.717-5.22 2.404-9.56 2.8-21.775 11.682-29.308 21.309-6.893 8.81-13.355 22.052-14.132 28.963-.328 2.917-1.04 5.866-1.582 6.553-.679.862-4.336 1.25-11.781 1.25-12.349 0-13.959.388-13.959 3.361 0 2.361-4.435 10.064-13.218 22.958l-5.718 8.395-8.565 1.701c-4.711.935-10.667 2.333-13.236 3.106-2.568.773-4.77 1.305-4.894 1.182-.123-.124.395-3.788 1.152-8.143.756-4.356 1.178-8.237.939-8.625-.681-1.101 4.039-13.379 7.579-19.716 1.756-3.146 6.741-9.377 11.077-13.847 4.732-4.878 7.884-8.962 7.884-10.215 0-5.602-11.287-13.29-25.151-17.132-11.262-3.12-15.76-2.777-21.003 1.604-11.019 9.206-26.999 30.933-40.228 54.697-2.09 3.754-4.035 6.59-4.322 6.303-.834-.834 9.202-30.422 13.024-38.396 2.117-4.416 3.268-8.091 2.935-9.366-1.459-5.58-25.407-16.867-35.786-16.867-4.143 0-4.557.252-6.424 3.912-6.991 13.703-17.16 44.801-24.566 75.124-3.152 12.905-6.082 24.179-6.512 25.053-.43.873-1.37 5.087-2.089 9.363-.876 5.214-1.812 7.955-2.842 8.321-.845.3-7.048 3.142-13.786 6.315-6.738 3.173-12.25 5.527-12.25 5.231 0-.295.88-4.201 1.956-8.678 5.138-21.387 5.576-24.649 3.737-27.853-2.419-4.215-2.17-4.662 2.271-4.066 3.505.47 4.095.243 5.099-1.96 1.462-3.209-.357-12.594-3.121-16.109-5.163-6.564-47.2-8.433-76.746-3.413-8.448 1.435-16.441 3.346-17.843 4.264-3.569 2.339-6.569 9.781-7.136 17.703-.527 7.367.99 12.793 3.576 12.793.852 0 2.366.739 3.363 1.642 1.692 1.531 2.302 1.437 9.079-1.398C281.364 672.497 307 665.562 307 667.945c0 2.061-6.494 19.079-9.751 25.555-7.529 14.97-17.558 26.803-26.504 31.27-16.962 8.472-29.596-1.592-35.385-28.19-1.891-8.688-2.13-35.32-.427-47.58 1.493-10.748 6.071-34.06 7.044-35.869.405-.754 6.538-3.307 13.63-5.676 7.091-2.368 20.543-7.263 29.893-10.878 9.35-3.614 17.054-6.573 17.12-6.575.066-.001.706 2.091 1.422 4.648 2.822 10.078 20.234 22.704 31.449 22.805l4.992.045.75-6.718c.413-3.695 1.596-8.942 2.628-11.659 2.385-6.277 9.767-19.752 15.335-27.993 3.828-5.666 5.023-6.668 10.804-9.061 20.445-8.464 49.405-23.512 88-45.729 12.375-7.123 26.785-15.25 32.023-18.058l9.522-5.107 5.478 1.47c8.964 2.406 31.2 2.945 38.97.944 16.655-4.289 31.829-17.764 40.641-36.089l3.366-7 9.122-3.673c6.699-2.697 9.688-3.444 11.25-2.813 1.17.473 1.566.888.878.923-3.117.158-.192 12.474 5.596 23.562 5.058 9.689 13.166 17.419 23.794 22.686 7.624 3.777 9.389 4.248 17.353 4.629 7.06.338 10.29-.009 15.861-1.701 13.441-4.083 30.062-17.987 40.794-34.127 3.246-4.882 6.642-8.444 11.04-11.583 3.494-2.493 9.731-7.491 13.86-11.107 4.129-3.615 7.697-6.384 7.929-6.153.231.232.017 2.207-.476 4.389-1.792 7.926-4.089 24.177-4.683 33.125l-.607 9.157 5.151 5.447c8.297 8.772 24.69 15.623 27.746 11.595.566-.746 1.535-5.013 2.155-9.482 1.914-13.816 12.451-43.107 25.063-69.671L805.857 405h6.139c5.403 0 6.072.211 5.58 1.759-2.409 7.592-8.578 39.856-11.099 58.049-1.601 11.561-1.602 12.575-.015 16.731 1.851 4.847 8.265 11.141 14.313 14.046 2.049.984 6.291 1.982 9.427 2.219 11.461.864 22.615-7.068 36.128-25.689l6.17-8.503.541 7.444c.901 12.381 6.336 20.127 17.625 25.12 5.693 2.519 11.996 2.134 18.771-1.145 6.176-2.99 17.997-15.001 25.2-25.605 3.148-4.634 5.98-8.425 6.293-8.423.314.002 2.234 3.538 4.268 7.859 6.651 14.134 19.593 24.503 34.532 27.669 12.77 2.706 26.749 1.326 36.389-3.592 9.469-4.83 21.802-17.561 32.638-33.689 3.049-4.538 5.921-8.25 6.383-8.25 3.407 0 48.752 33.214 48.898 35.817.022.376 2.094 2.933 4.607 5.683 2.856 3.127 3.76 3.793 2.413 1.778-7.359-11.007-23.751-25.089-47.413-40.733-25.388-16.784-45.039-25.981-71.645-33.527-4.125-1.17-8.04-2.305-8.701-2.522-.896-.295-.741-2.051.609-6.92.995-3.589 1.599-6.736 1.341-6.993-.665-.666 4.415-13.807 8.536-22.083 9.497-19.069 23.162-32.037 30.707-29.141 2.257.866 1.786 5.261-1.437 13.432-3.543 8.979-9.598 17.165-16.212 21.917-5.517 3.964-7.425 7.336-5.833 10.311 1.575 2.944 11.956 11.027 17.49 13.619 6.448 3.021 10.581 3.011 14.173-.035 7.798-6.611 14.693-26.254 14.778-42.103.043-7.881-.298-9.706-2.739-14.678-7.038-14.332-28.646-26.474-43.492-24.439-16.937 2.322-37.175 24.281-49.876 54.117-3.255 7.648-4.796 10.153-6.55 10.65-1.795.509-1.89.672-.437.75 1.352.073 1.668.576 1.163 1.85-.382.962-1.211 3.884-1.842 6.493-.83 3.431-1.567 4.63-2.663 4.337-.833-.223-4.553-.977-8.265-1.676-3.714-.699-6.75-1.792-6.75-2.429 0-.636.644-3.297 1.431-5.913.788-2.616 1.248-5.275 1.022-5.909-.383-1.079 8.854-29.25 13.12-40.014l1.927-4.86-4-3.474c-4.684-4.067-18.816-11.157-23.875-11.978-6.719-1.091-8.061-.088-11.921 8.911-3.718 8.667-12.928 35.765-14.195 41.762-.407 1.925-1.088 3.95-1.513 4.5-.425.55-1.337 3.551-2.026 6.669-.689 3.118-1.526 6.088-1.861 6.6-.942 1.441-23.109.253-23.109-1.239 0-.666.67-3.421 1.489-6.121.819-2.7 1.494-6.103 1.5-7.562.012-2.901 5.595-19.587 9.532-28.491 4.205-9.508 3.222-12.427-6.032-17.895-6.53-3.86-17.203-7.461-22.109-7.461-4.275 0-5.017.427-11.337 6.529-3.72 3.591-9.262 10.004-12.315 14.25-6.574 9.142-21.728 33.605-21.728 35.076 0 .565-.461 1.312-1.024 1.66-2.743 1.695 2.44-17.349 8.815-32.384 4.097-9.662 4.05-9.855-3.725-15.326-7.72-5.433-19.259-9.982-24.377-9.609-3.995.29-4.313.559-6.855 5.804-1.467 3.025-5.455 14.05-8.864 24.5-7.96 24.407-7.476 23.273-10.163 23.787l-2.307.441 2.317.136c1.924.113 2.2.519 1.623 2.386-.811 2.626-4.671 9.298-7.189 12.426-1.14 1.417-3.416 2.418-6.521 2.867l-4.769.69 1.137-2.867c.639-1.611 1.195-9.215 1.27-17.366.164-18.035-1.11-22.447-8.922-30.885-7.564-8.17-21.042-14.782-33.946-16.653-2.75-.399-6.602-1.531-8.56-2.517-3.977-2.002-14.728-4.983-17.584-4.875-1.021.038-3.881.697-6.356 1.465M252 333c0 1.1.402 2 .893 2 1.124 0 2.173-2.601 1.371-3.402-1.203-1.204-2.264-.547-2.264 1.402m-23 .704c0 3.428 8.998 19.979 14.408 26.501 6.195 7.468 18.238 17.145 20.337 16.339.747-.286 1.106-.111.796.39-.577.934 9.287 6.068 11.647 6.063.722-.002-1.388-1.317-4.688-2.923-3.3-1.607-5.595-2.955-5.1-2.997 1.097-.094-7.027-6.077-8.251-6.077-1.621 0-10.174-8.185-14.478-13.854-6.031-7.944-9.194-13.811-10.727-19.896-1.245-4.945-3.944-7.371-3.944-3.546m114.2-.504c-1.608 1.608-1.524 3.8.145 3.8 1.35 0 4.655-3.073 4.655-4.329 0-1.132-3.527-.744-4.8.529m85.3.8c.995 1.1 2.035 2 2.31 2 .275 0-.315-.9-1.31-2-.995-1.1-2.035-2-2.31-2-.275 0 .315.9 1.31 2m-167.862.5c-.316.825-.139 1.5.393 1.5.533 0 .969-.675.969-1.5s-.177-1.5-.393-1.5c-.216 0-.652.675-.969 1.5m55.585.057c-2.425 1.698-2.891 3.912-1.061 5.043 1.295.8 4.838-3.016 4.838-5.211 0-1.801-1.032-1.755-3.777.168M269 335.5c0 .917.484 1.505 1.075 1.308.591-.197 1.075-.786 1.075-1.308s-.484-1.111-1.075-1.308c-.591-.197-1.075.391-1.075 1.308m51.557 2.723c-1.911 2.727-1.97 3.777-.212 3.777 1.601 0 4.655-3.168 4.655-4.829 0-1.966-2.793-1.305-4.443 1.052m283.522-.64c.048 1.165.285 1.402.604.605.289-.722.253-1.585-.079-1.917-.332-.332-.568.258-.525 1.312m-267.505 1.084c-.963 2.511.892 3.724 2.79 1.826.9-.9 1.636-2.054 1.636-2.564 0-1.625-3.76-.998-4.426.738M431 337.409c0 .19.675.906 1.5 1.591.865.718 1.5.815 1.5.229 0-.558-.675-1.274-1.5-1.591-.825-.316-1.5-.419-1.5-.229m-105.184 3.095c-.627 1.378-.821 2.824-.43 3.215 1.141 1.141 4.085-1.23 4.434-3.571.454-3.055-2.572-2.785-4.004.356m-60.572-.84c-.691.279-1.002.918-.691 1.421.878 1.421 2.114 1.079 2.114-.585 0-.825-.038-1.464-.084-1.421-.045.043-.648.307-1.339.585m9.45-.025c-.799.799.104 2.361 1.365 2.361.518 0 .941-.675.941-1.5 0-1.546-1.18-1.987-2.306-.861m65.863 1.584c-1.887 2.693-2.033 5.777-.273 5.777 1.326 0 4.716-4.963 4.716-6.904 0-1.903-2.823-1.187-4.443 1.127m-9.357.977c-1.371 1.371-1.625 4.8-.355 4.8 1.499 0 4.372-3.84 3.694-4.937-.856-1.385-1.858-1.344-3.339.137m270.424.339c-.965 2.514-.681 3.163.498 1.136.584-1.004.851-2.036.593-2.293-.257-.258-.749.263-1.091 1.157m-320.874 2.123c.688.278 1.813.278 2.5 0 .688-.277.125-.504-1.25-.504s-1.937.227-1.25.504m317.624 1.806c-.37.965-2.068 2.362-3.774 3.104-1.734.755-2.354 1.367-1.406 1.389 2.112.049 7.568-4.528 6.58-5.519-.4-.401-1.03.061-1.4 1.026m-11.624 6.194c.688.278 1.813.278 2.5 0 .688-.277.125-.504-1.25-.504s-1.937.227-1.25.504m-185.988 3.045c1.244.239 3.044.23 4-.02s-.062-.446-2.262-.435c-2.2.011-2.982.216-1.738.455m9.738 2.825c1.65 1.352 3.301 2.46 3.668 2.463 1.053.008 4.855 6.598 5.891 10.212 1.427 4.974-1.22 11.765-6.471 16.605-4.953 4.565-8.89 5.751-14.216 4.28-2.068-.571-3.921-.877-4.117-.68-.665.664 10.12 5.588 12.191 5.566 3.924-.042 10.236-3.754 13.781-8.103 6.822-8.371 6.85-16.92.081-24.829-3.762-4.394-5.862-5.792-10.697-7.119l-3.111-.854 3 2.459M230.06 360.5c-.016 1.65.648 5.7 1.474 9 2.173 8.675 3.056 28.182 1.491 32.926-.787 2.382-5.933 9.058-13.826 17.935-16.899 19.005-83.152 85.589-85.833 86.262-2.917.732-9.056-2.617-13.819-7.538-2.174-2.247-4.248-4.085-4.61-4.085-1.34 0-.014 8.231 1.743 10.819 1.001 1.474 1.821 3.339 1.823 4.143.003 1.987 5.931 5.841 10.22 6.646 2.298.431 4.577.133 6.638-.868 1.727-.839 16.414-12.866 32.639-26.728 16.225-13.861 41.425-35.377 56-47.812 31.923-27.235 40.978-35.259 40.714-36.08-.11-.341 1.822-2.528 4.293-4.86 3.297-3.112 4.151-4.464 3.209-5.08-.706-.462-1.031-1.498-.723-2.302.411-1.071-1.521-2.316-7.216-4.651-4.277-1.754-10.895-5.572-14.707-8.485-5.943-4.542-9.292-8.305-18.019-20.242-1.403-1.919-1.463-1.879-1.491 1m844.867 8.481c-.866.507-3.294 5.33-5.397 10.72l-7.334 18.799c-4.466 11.446-13.771 30.192-15.229 30.678-.613.204.831 1.448 3.209 2.765 2.378 1.316 5.596 3.443 7.151 4.725 3.626 2.991 4.303 2.934 4.973-.419.303-1.513 2.107-6.126 4.009-10.25 10.172-22.056 20.691-47.912 20.691-50.86 0-2.093-2.253-4.22-6.297-5.946-3.297-1.406-3.709-1.421-5.776-.212m-250.068 3.763c-2.501 3.003-6.859 10.161-6.859 11.265 0 .579-1.8 4.229-4 8.111-2.2 3.883-4 7.201-4 7.375 0 .173 1.884.219 4.187.1 3.689-.189 4.291-.565 5.065-3.155.484-1.617 2.469-7.808 4.412-13.759 1.942-5.95 3.335-11.015 3.095-11.256-.241-.24-1.096.353-1.9 1.319M283.75 385.662c.688.278 1.813.278 2.5 0 .688-.277.125-.504-1.25-.504s-1.937.227-1.25.504M390 387.5c1.292 1.375 2.574 2.5 2.849 2.5.275 0-.557-1.125-1.849-2.5-1.292-1.375-2.574-2.5-2.849-2.5-.275 0 .557 1.125 1.849 2.5m482.269.193c.973.254 2.323.237 3-.037.677-.274-.119-.481-1.769-.461-1.65.02-2.204.244-1.231.498m8 1c.973.254 2.323.237 3-.037.677-.274-.119-.481-1.769-.461-1.65.02-2.204.244-1.231.498m-302.247 8.948c-.012.627.868 3.102 1.956 5.5 1.088 2.397 1.988 3.846 2 3.218.012-.627-.868-3.102-1.956-5.5-1.088-2.397-1.988-3.846-2-3.218m68.057 3.942c.048 1.165.285 1.402.604.605.289-.722.253-1.585-.079-1.917-.332-.332-.568.258-.525 1.312m211.417 5.667c-.652 1.849-8.054 32.143-9.834 40.25-3.236 14.736-4.869 24.625-4.178 25.299 1.072 1.045 7.755-6.963 15.688-18.799 6.237-9.305 23.828-43.036 23.828-45.69 0-2.088-24.778-3.118-25.504-1.06M582.17 409.5c-.016 1.1.357 2.9.83 4 1.095 2.548 1.095-.081 0-3.5-.644-2.01-.806-2.108-.83-.5m156.153 1.196c-2.962.577-4.029 2.093-4.789 6.804l-.645 4 4.053-4.5c2.229-2.475 4.054-5.062 4.055-5.75.002-.687-.109-1.189-.247-1.114-.138.075-1.23.327-2.427.56m184.505 2.012c-1.376 1.657-6.602 23.411-11.769 48.984-2.407 11.915-2.354 11.308-.994 11.308 2.535 0 15.688-18.18 23.755-32.833 5.605-10.184 7.159-15.407 7.634-25.667.025-.55-3.91-1.473-8.746-2.052-7.034-.842-9.009-.79-9.88.26m-338.749 4.875c.048 1.165.285 1.402.604.605.289-.722.253-1.585-.079-1.917-.332-.332-.568.258-.525 1.312M670 425.131c-9.625 2.735-18.618 5.318-19.984 5.739-1.955.602-2.659 1.709-3.308 5.198-1.02 5.488-.251 21.102 1.294 26.284l1.148 3.853 4.675-.65c2.571-.358 7.857-1.571 11.747-2.696 6.722-1.944 7.223-2.299 10.137-7.202C680.25 448.018 690 424.253 690 420.825c0-1.286-1.356-.994-20 4.306m309.642-1.381c-1.478 6.879-1.884 24.344-.707 30.411 3.38 17.411 10.584 24.206 23.14 21.825 7.46-1.415 13.082-4.362 19.488-10.218 5.18-4.734 18.437-21.326 18.437-23.075 0-1.515-15.477-7.872-36-14.786-11.275-3.798-21.235-6.906-22.133-6.906-.973-.001-1.873 1.112-2.225 2.749m-482.459 13.584c3.523 3.224 5.149 9.5 4.316 16.671-1.402 12.085-.971 16.688 1.921 20.479 2.643 3.465 7.236 6.522 9.78 6.51.715-.004-.05-.708-1.7-1.567-8.58-4.462-10.118-8.331-8.631-21.707 1.5-13.485.083-18.704-5.869-21.617l-2.5-1.224 2.683 2.455m-286.179 3.162c-1.29 1.373-2.042 2.8-1.671 3.171.731.73 5.667-3.487 5.667-4.841 0-1.527-1.635-.844-3.996 1.67M575.5 458.462c-1.65.733-4.125 1.832-5.5 2.441-2.177.965-2.21 1.042-.25.602a96.388 96.388 0 004.244-1.07c2.774-.787 1.77 1.606-3.665 8.735-7.256 9.517-18.398 17.878-27.829 20.882-2.2.701-3.445 1.461-2.767 1.689.679.228 4.696-1.251 8.927-3.286 6.018-2.894 9.564-5.58 16.28-12.328 4.723-4.745 9.82-10.99 11.327-13.877 1.508-2.887 2.627-5.221 2.487-5.186-.14.035-1.604.664-3.254 1.398m-180.095 5.788l-1.905 2.25 2.25-1.905c2.114-1.79 2.705-2.595 1.905-2.595-.19 0-1.202 1.012-2.25 2.25M562.5 464c-1.319.567-1.489.878-.5.914.825.031 2.175-.381 3-.914 1.828-1.181.249-1.181-2.5 0m-171.576 5.75l-2.424 2.75 2.75-2.424c2.57-2.266 3.209-3.076 2.424-3.076-.179 0-1.416 1.238-2.75 2.75m151.176 3.795c-10.747 5.178-14.347 6.455-18.191 6.455-2.635 0-5.106.51-5.491 1.133-.509.822.913.947 5.191.455 4.389-.504 9.462-2.435 19.891-7.569 7.7-3.79 13.55-6.9 13-6.91-.55-.011-7.03 2.885-14.4 6.436M1103.5 470c.995 1.1 2.035 2 2.31 2 .275 0-.315-.9-1.31-2-.995-1.1-2.035-2-2.31-2-.275 0 .315.9 1.31 2m-716.943 5.223c-.856 1.222-1.511 3.359-1.455 4.75.089 2.195.204 2.1.873-.717.423-1.784 1.332-3.921 2.02-4.75.687-.828.995-1.506.684-1.506-.311 0-1.266 1-2.122 2.223m720.443-1.91c0 .172 1.463 1.635 3.25 3.25l3.25 2.937-2.937-3.25c-2.738-3.029-3.563-3.71-3.563-2.937m-721 10.065c0 .207.788.995 1.75 1.75 1.586 1.243 1.621 1.208.378-.378-1.307-1.666-2.128-2.195-2.128-1.372m107 4.752c0 .964 4.413 2.232 5.965 1.715.578-.193-.527-.845-2.457-1.449-1.929-.603-3.508-.723-3.508-.266m9.5 3.046c1.413.916 6.845 1.331 18.5 1.413l16.5.115-15.5-.727c-8.525-.4-16.85-1.036-18.5-1.413-2.721-.622-2.814-.565-1 .612m-395.418 10.137c-.088 3.023 4.674 13.687 6.112 13.687 2.055 0 1.794-3.151-.515-6.201-1.373-1.814-3.176-4.874-4.007-6.799-1.506-3.494-1.509-3.495-1.59-.687m1016.997 25.27c.048 1.165.285 1.402.604.605.289-.722.253-1.585-.079-1.917-.332-.332-.568.258-.525 1.312m1.116 7.917c.02 1.65.244 2.204.498 1.231.254-.973.237-2.323-.037-3-.274-.677-.481.119-.461 1.769m-.037 8.5c0 1.375.227 1.938.504 1.25.278-.687.278-1.812 0-2.5-.277-.687-.504-.125-.504 1.25m-495.672 23.25c-.303 1.237-.424 11.925-.269 23.75l.283 21.5 8.51.285c12.763.428 12.82.345 9.453-13.838-2.886-12.153-7.332-22.723-12.492-29.697-3.56-4.813-4.694-5.226-5.485-2m133.963-.977c-.269.7-.367 11.387-.219 23.75l.27 22.477 9.098.286c12.338.387 12.305.439 8.912-14.15-2.9-12.471-6.61-21.28-12.13-28.8-3.631-4.946-5.069-5.81-5.931-3.563m-154.708 7.977c-6.143 9.338-12.247 27.916-11.544 35.135.3 3.084.365 3.118 6.531 3.412 10.699.511 10.272 1.459 10.272-22.832 0-11.805-.394-20.965-.903-20.965-.496 0-2.457 2.362-4.356 5.25m134.49-1c-6.622 9.824-12.789 28.171-12.055 35.861l.324 3.389 6.228.297c10.699.511 10.272 1.459 10.272-22.832 0-12.605-.38-20.965-.952-20.965-.524 0-2.241 1.913-3.817 4.25m312.72 27.566c-4.906 3.111-12.638 11.455-11.093 11.97.523.174-.018 1.372-1.203 2.661-3.314 3.606-8.718 13.555-7.353 13.538 1.622-.021 22.783-3.88 24.835-4.53 1.191-.377 1.828-2.3 2.338-7.065.386-3.601.443-6.805.129-7.12-.315-.315.206-1.142 1.159-1.839 1.593-1.164 1.612-1.614.235-5.588-.824-2.376-2.178-4.451-3.009-4.609-.831-.159-3.549 1.003-6.038 2.582m-70.138 21.867c.721.289 1.584.253 1.916-.079.332-.332-.258-.568-1.312-.525-1.165.048-1.402.285-.604.604m-7.563 1.006c.962.252 2.538.252 3.5 0 .962-.251.175-.457-1.75-.457s-2.712.206-1.75.457m-7.5.973c.688.278 1.813.278 2.5 0 .688-.277.125-.504-1.25-.504s-1.937.227-1.25.504m-417.124 3.691c-.796 1.905-3.089 6.029-5.094 9.165-2.006 3.135-3.509 5.831-3.339 5.99.382.361 19.832-1.495 21.592-2.06.979-.314.862-1.057-.49-3.121-.977-1.49-2.005-4.986-2.285-7.768l-.51-5.059-4.213-.306c-3.971-.288-4.297-.106-5.661 3.159m45.927-2.016c-1.531 1.12-1.712 2.119-1.11 6.128.395 2.635.912 5.296 1.149 5.913.314.817 24.911 1.151 90.437 1.227l90.006.105.552-2.605c.304-1.433 1.145-4.551 1.87-6.93 1.624-5.327 1.57-5.355-9.541-4.968-6.079.212-8.347.64-8.166 1.543.398 1.988-16.623 1.744-17.388-.25-.434-1.13-2.255-1.5-7.386-1.5-3.904 0-6.96.452-7.162 1.059-.243.729-13.6.978-42.834.797-23.364-.144-50.243-.119-59.73.056-12.207.225-17.25-.008-17.25-.797 0-1.609-11.196-1.423-13.447.222m217.578.005c-.612.738-.892 1.564-.621 1.835.272.271-.177 2.705-.997 5.408-2.36 7.78-2.873 7.415 10.426 7.415h11.938l.626-4.25c.343-2.337.733-5.024.865-5.971.133-.947.554-2.034.936-2.417.383-.382.696-1.295.696-2.029 0-1.925-22.271-1.917-23.869.009m-368.152 11.624c-3.894 6.582-7.252 12.857-7.462 13.946-.21 1.089-2.212 5.454-4.449 9.701-2.237 4.246-3.886 7.903-3.663 8.125.223.223 5.352-1.225 11.398-3.217l10.993-3.623-1.44-2.887c-.793-1.588-1.487-4.828-1.544-7.199-.129-5.388 1.848-17.598 3.701-22.848 2.543-7.208-.354-4.13-7.534 8.002m452.271-8.25c1.513.229 3.987.229 5.5 0s.275-.416-2.75-.416-4.263.187-2.75.416m151.75.86c-3.575.72-9.775 1.827-13.778 2.461-6.939 1.099-7.365 1.324-9.135 4.808-3.293 6.483-6.844 18.788-10.652 36.905-.634 3.015 1.418 2.931 7.898-.323 10.985-5.518 22.613-18.25 29.24-32.018 3.554-7.383 5.307-13.505 3.802-13.276-.481.074-3.8.723-7.375 1.443m-540.187 3.107c.721.289 1.584.253 1.916-.079.332-.332-.258-.568-1.312-.525-1.165.048-1.402.285-.604.604m-5 1c.721.289 1.584.253 1.916-.079.332-.332-.258-.568-1.312-.525-1.165.048-1.402.285-.604.604M966 640.55c-5.225.703-9.798 1.317-10.162 1.364-1.284.167-11.904 21.171-11.244 22.239.885 1.43 8.473.373 12.673-1.766 6.331-3.223 12.594-8.495 18.123-15.253 3.086-3.771 5.61-7.144 5.61-7.495 0-.846-3.543-.631-15 .911m-232 3.884C734 648.96 744.31 668 746.761 668c1.012 0 1.238-2.718 1.02-12.25l-.281-12.25-6.75-.296c-5.513-.241-6.75-.016-6.75 1.23m29.667-.767c-1.024 1.024-.791 25.138.249 25.781 2.392 1.479 13.181-15.557 14.692-23.198l.642-3.25h-7.458c-4.102 0-7.759.3-8.125.667m-161.33 1.005c-1.828.375-2.044.864-1.389 3.145 1.95 6.802 9.996 20.183 12.135 20.183.601 0 .871-4.545.699-11.75l-.282-11.75-4.5-.136c-2.475-.075-5.474.064-6.663.308M629 656.441c0 6.843.416 12.698.923 13.012.901.556 6.025-5.262 9.366-10.634 1.662-2.673 5.71-12.645 5.71-14.069.001-.413-3.599-.75-7.999-.75h-8v12.441m251.546-9.191c-.271 1.237-1.215 6.525-2.097 11.75-6.339 37.549-9.457 63-7.717 63 2.666 0 41.268-70.715 41.268-75.599 0-1.141-2.87-1.401-15.481-1.401-15.242 0-15.489.035-15.973 2.25M500 655.425c-7.889 2.073-8.48 2.408-8.218 4.651.799 6.851 7.816 5.968 16.429-2.066 4.805-4.483 5.06-4.928 2.789-4.876-1.375.031-6.325 1.063-11 2.291m47.762 61.282c1.244.239 3.044.23 4-.02s-.062-.446-2.262-.435c-2.2.011-2.982.216-1.738.455m14.507.986c.973.254 2.323.237 3-.037.677-.274-.119-.481-1.769-.461-1.65.02-2.204.244-1.231.498m7.544.99c.721.289 1.584.253 1.916-.079.332-.332-.258-.568-1.312-.525-1.165.048-1.402.285-.604.604m6 1c.721.289 1.584.253 1.916-.079.332-.332-.258-.568-1.312-.525-1.165.048-1.402.285-.604.604M539 724.966c-16.666 2.139-30.722 8.104-44.856 19.035-23.745 18.363-40.7 49.113-63.614 115.369-4.019 11.622-8.979 25.561-11.022 30.976-2.431 6.443-3.376 10.186-2.733 10.829.964.964 6.959.803 6.48-.175-.134-.275 1.592-5.675 3.836-12 2.245-6.325 6.546-18.696 9.559-27.492 12.736-37.178 27.139-69.61 38.351-86.357 7.917-11.825 20.271-24.472 30.209-30.925 15.233-9.891 30.117-14.271 49.29-14.505 10.045-.122 11.519.105 16.973 2.619 3.285 1.514 6.885 3.51 8 4.435 1.115.925.452-.022-1.473-2.105-5.683-6.15-14.016-9.664-24.04-10.138-4.653-.22-11.385-.024-14.96.434m61 4.412c0 .207.788.995 1.75 1.75 1.586 1.243 1.621 1.208.378-.378-1.307-1.666-2.128-2.195-2.128-1.372m-11 4c0 .757.701 1.959 1.558 2.67 5.036 4.18 9.965 18.402 11.073 31.952.756 9.245-1.682 26.886-5.3 38.358-2.383 7.555-7.918 19.469-12.008 25.852-2.985 4.657-.312 4.509 3.802-.21 4.362-5.004 11.815-15.809 14.239-20.642.867-1.728 1.816-6.064 2.11-9.636.294-3.571.983-8.856 1.53-11.744 2.971-15.664-.999-37.727-8.575-47.66-2.548-3.34-3.117-4.861-1.429-3.818 2.562 1.583.62-1.688-2.344-3.949-3.812-2.907-4.656-3.12-4.656-1.173M608.213 738c6.448 8.184 10.794 19.217 12.8 32.5 3.966 26.253-9.034 55.698-34.209 77.489-38.749 33.54-95.705 53.938-163.621 58.598l-10.317.708-1.595 4.103c-2.413 6.207-17.036 34.293-21.4 41.102l-3.845 6 2.737 2.245c1.505 1.235 2.962 2.233 3.237 2.217.275-.015 1.225-1.475 2.111-3.245.885-1.769 5.629-10.67 10.542-19.779 4.912-9.108 9.704-18.558 10.649-21 .944-2.441 2.05-4.908 2.458-5.483.407-.575 9.965-1.862 21.24-2.859 40.49-3.582 74.25-12.536 107.5-28.514 41.218-19.806 68.017-46.421 77.658-77.125 3.377-10.754 3.377-30.142 0-40.957-3.393-10.866-8.476-19.922-14.35-25.563l-5.141-4.937 3.546 4.5m-160.751 18.25l-4.962 5.25 5.25-4.962c2.887-2.73 5.25-5.092 5.25-5.25 0-.747-.926.084-5.538 4.962m140.617-.667c.048 1.165.285 1.402.604.605.289-.722.253-1.585-.079-1.917-.332-.332-.568.258-.525 1.312m1.153 5.417c0 1.925.206 2.712.457 1.75.252-.962.252-2.538 0-3.5-.251-.962-.457-.175-.457 1.75m-333.779 3.25l-3.953 4.25 4.25-3.953c3.952-3.676 4.71-4.547 3.953-4.547-.163 0-2.076 1.913-4.25 4.25m182.419 2.5c-1.243 1.586-1.208 1.621.378.378 1.666-1.307 2.195-2.128 1.372-2.128-.207 0-.995.788-1.75 1.75m10.839 8.5c-5.423 6.734-14.092 19.602-18.571 27.568-10.48 18.636-24.126 52.601-35.63 88.682-3.682 11.55-7.73 24.15-8.995 28-2.813 8.559-9.879 26.332-12.551 31.57-2.29 4.489-2.456 5.93-.683 5.93 1.419 0 9.273-12.941 15.698-25.864 4.872-9.801 10.252-23.397 8.936-22.583-1.5.927-1.143-.488 4.195-16.615 11.304-34.149 26.246-71.796 30.167-76.005.99-1.063 1.446-1.94 1.012-1.948-.434-.009-.3-.346.298-.75s5.148-9.107 10.111-19.34c4.964-10.233 9.537-18.922 10.163-19.309 1.368-.846 1.525-3.586.206-3.586-.513 0-2.473 1.913-4.356 4.25m161.617 3.25c.005 3.85.185 5.302.402 3.228.216-2.075.213-5.225-.008-7-.221-1.776-.398-.078-.394 3.772m-21.096 2.5c0 1.925.206 2.712.457 1.75.252-.962.252-2.538 0-3.5-.251-.962-.457-.175-.457 1.75m-336.088 4.326c-2.026 2.441-6.391 13.102-8.26 20.174-3.587 13.572-1.648 27.637 5.74 41.641C255.934 857.208 276 877.82 276 873.209c0-.435-3.131-3.854-6.959-7.598-11.714-11.459-17.071-21.885-19.107-37.181-2.045-15.37-.51-27.083 5.595-42.68.804-2.054-.796-2.339-2.385-.424m386.669 10.357c.721.289 1.584.253 1.916-.079.332-.332-.258-.568-1.312-.525-1.165.048-1.402.285-.604.604m15 0c.721.289 1.584.253 1.916-.079.332-.332-.258-.568-1.312-.525-1.165.048-1.402.285-.604.604m-23.23 2.183c-.295.477.466 1.714 1.691 2.75 2.22 1.879 2.221 1.879.474-.197-.964-1.145-1.451-2.382-1.084-2.75.368-.368.396-.669.062-.669-.335 0-.849.39-1.143.866m35.561 3.751c6.217 7.741 6.142 13.948-.252 20.884-4.37 4.741-10.733 8.209-18.286 9.965-4.241.986-4.933 1.498-5.182 3.836-.329 3.085-.126 3.126 8.142 1.611 11.696-2.142 23.572-10.8 24.959-18.194 1.082-5.77-.973-10.764-6.68-16.232-2.863-2.743-4.078-3.584-2.701-1.87m445.125.076c.973.254 2.323.237 3-.037.677-.274-.119-.481-1.769-.461-1.65.02-2.204.244-1.231.498m-462.746 1.27c-.327.529.546 3.214 1.941 5.966 1.395 2.753 2.536 5.919 2.536 7.038 0 1.159.658 2.033 1.532 2.033 1.891 0 3.738-4.318 2.096-4.9-1.588-.563-2.595-2.283-2.613-4.467-.011-1.377.51-1.729 1.985-1.343 2.437.637 2.68-1.468.429-3.719-1.729-1.728-6.965-2.131-7.906-.608m458.097 4.455c-3.864 4.717-4.487 6.582-2.198 6.582 1.686 0 8.578-7.778 8.578-9.68 0-2.61-2.827-1.238-6.38 3.098m8.38-1.624c0 1.079-.736 2.572-1.636 3.319-.9.747-2.739 3.105-4.087 5.241-1.348 2.135-6.237 8.348-10.864 13.806-8.222 9.698-9.639 12.265-7.221 13.071 1.302.434 14.49-14.202 18.646-20.692 1.422-2.222 3.873-5.719 5.445-7.773 1.65-2.155 2.724-4.66 2.539-5.922-.411-2.79-2.822-3.687-2.822-1.05m-17.952 10.655c-2.338 2.489-2.238 5.551.18 5.551.71 0 1.894-.966 2.632-2.147 1.082-1.733 1.511-1.878 2.225-.75.68 1.074.888.923.9-.653.014-1.953-1.675-4.45-3.011-4.45-.344 0-1.661 1.102-2.926 2.449m-456.89.551c0 1.375.227 1.938.504 1.25.278-.687.278-1.812 0-2.5-.277-.687-.504-.125-.504 1.25m448.279 5.25l-2.937 3.25 3.25-2.937c3.029-2.738 3.71-3.563 2.937-3.563-.172 0-1.635 1.462-3.25 3.25m-.814 4.297c-3.716 4.445-4.216 7.453-1.238 7.453.796 0 2.873-1.8 4.615-4s3.805-4 4.584-4c1.732 0 1.824-1.192.216-2.8-2.157-2.157-4.315-1.274-8.177 3.347m-447.544-1.964c.048 1.165.285 1.402.604.605.289-.722.253-1.585-.079-1.917-.332-.332-.568.258-.525 1.312M1076 827.378c0 .207.787.995 1.75 1.75 1.586 1.243 1.621 1.208.378-.378-1.307-1.666-2.128-2.195-2.128-1.372m-133.731 2.315c.973.254 2.323.237 3-.037.677-.274-.119-.481-1.769-.461-1.65.02-2.204.244-1.231.498m122.799 10.503c-4.987 5.607-9.068 10.787-9.068 11.512 0 2.712-2.471 6.07-11.539 15.679-5.43 5.754-6.62 9.101-3.246 9.125.925.007 3.013 1.503 4.64 3.326l2.959 3.313 3.017-3.325c5.642-6.219 7.169-8.131 7.169-8.979 0-.466.567-.847 1.259-.847.693 0 1.856-.954 2.583-2.119 1.204-1.927.993-2.392-2.31-5.116-1.999-1.647-3.397-3.233-3.106-3.524.638-.638 7.557 3.943 7.567 5.009.004.413.457.75 1.007.75 2.225 0 .769-3.042-3-6.268-2.2-1.883-4-3.858-4-4.389 0-.531 3.857-5.09 8.57-10.131 8.473-9.061 8.599-9.147 11-7.574 2.778 1.82 3.142.823.879-2.408-3.745-5.347-4.653-4.97-14.381 5.966M941 832.826c0 .454 1.205 1.916 2.678 3.25l2.677 2.424-2.246-3.25c-2.266-3.28-3.109-3.937-3.109-2.424m-302.267 1.298c.679.684 1.486.991 1.793.683.308-.308-.247-.867-1.233-1.243-1.425-.542-1.54-.428-.56.56m70.017 3.538c.688.278 1.813.278 2.5 0 .688-.277.125-.504-1.25-.504s-1.937.227-1.25.504m-2.75.716c0 .207.788.995 1.75 1.75 1.586 1.243 1.621 1.208.378-.378-1.307-1.666-2.128-2.195-2.128-1.372m12.813 1.305c.721.289 1.584.253 1.916-.079.332-.332-.258-.568-1.312-.525-1.165.048-1.402.285-.604.604m207.437.006c.962.252 2.538.252 3.5 0 .962-.251.175-.457-1.75-.457s-2.712.206-1.75.457m13.5-.027c.688.278 1.813.278 2.5 0 .688-.277.125-.504-1.25-.504s-1.937.227-1.25.504m4.75.338c-.34.55-.141 1 .441 1s1.059-.45 1.059-1-.198-1-.441-1-.719.45-1.059 1m-33.687 2.683c.721.289 1.584.253 1.916-.079.332-.332-.258-.568-1.312-.525-1.165.048-1.402.285-.604.604m48.797.139c-.301.487-.016 2.291.633 4.01 2.33 6.175-1.329 17.07-9.263 27.579-2.189 2.899-3.98 5.567-3.98 5.93 0 4.005 13.65-9.608 18.418-18.367 1.577-2.897 2.353-4.95 1.724-4.562-.752.465-1.147-.254-1.156-2.103-.007-1.545-.303-3.893-.658-5.217-.564-2.11-.37-2.336 1.571-1.829 3.534.924 1.962-1.48-2.644-4.045-2.254-1.254-4.344-1.883-4.645-1.396m135.39 2.307c0 2.47-20.061 23.871-22.379 23.874-1.41.002-4.561 2.808-9.402 8.373-10.918 12.551-10.739 12.424-13.655 9.684-2.893-2.718-3.337-2.499-10.397 5.127-8.657 9.35-35.718 32.948-48.86 42.607-14.612 10.74-27.632 17.599-43.807 23.079-17.18 5.819-25.048 7.283-39.5 7.347-16.205.071-27.923-2.957-37.072-9.582-.864-.626.217.56 2.404 2.634 15.53 14.736 46.966 15.606 80.168 2.218 4.95-1.996 13.611-5.94 19.247-8.764 16.652-8.345 41.066-27.586 65.461-51.591 11.195-11.015 11.791-11.446 13.579-9.828 1.029.931 2.569 1.693 3.423 1.693.854 0 5.482-4.388 10.285-9.75 5.574-6.223 9.35-9.648 10.438-9.468 2.107.349 23.067-22.141 23.067-24.75 0-.983-.675-2.347-1.5-3.032-1.21-1.004-1.5-.979-1.5.129m-271.364 2.806c5.726 6.876 7.063 17.46 3.506 27.753-3.947 11.422-18.249 30.946-29.142 39.784a3470.17 3470.17 0 00-6.25 5.08c-2.532 2.067-2.17 6.516.79 9.708 2.659 2.867 5.73 3.976 3.471 1.253-1.969-2.372-.371-5.992 3.977-9.005 6.436-4.46 17.231-16.459 23.858-26.518 9.503-14.425 12.462-24.368 10.137-34.061-.979-4.082-2.393-6.319-6.858-10.85-3.094-3.14-4.664-4.554-3.489-3.144M814 846.846c0 .466.736 2.321 1.635 4.124 4.329 8.677-2.223 28.599-16.115 49.001-3.036 4.458-5.52 8.314-5.52 8.568 0 3.513 12.144-9.005 19.44-20.039 7.672-11.605 8.951-15.12 8.693-23.904-.147-5.011-.789-8.94-1.685-10.311-1.847-2.825-1.832-3.646.052-2.923 2.199.843 1.845.039-1.24-2.822-2.709-2.512-5.26-3.333-5.26-1.694m-181 1.246c0 .601.888 2.222 1.974 3.602 1.085 1.38 2.266 4.068 2.623 5.974 1.393 7.422-4.8 28.873-13.077 45.298-7.188 14.264-15.264 39.932-14.066 44.706 1.045 4.165 3.226 2.681 3.854-2.623.69-5.824 4.099-14.52 12.956-33.049 11.511-24.081 16.688-39.177 16.721-48.757.012-3.305-.544-4.742-2.485-6.43-2.567-2.232-3.505-5.449-1.25-4.287.688.354-.22-.744-2.016-2.441-3.371-3.185-5.234-3.894-5.234-1.993m17.64 1.843c4.73 5.669 6.689 11.217 6.73 19.065.049 9.448-1.466 14.007-11.633 35-14.372 29.676-16.617 34.722-18.36 41.265-1.672 6.274-1.665 6.557.255 9.844 2.94 5.035 5.024 4.969 4.536-.143-.51-5.345.683-8.396 15.428-39.466 15.687-33.056 17.402-39.409 13.859-51.34-1.154-3.884-2.991-6.671-7.25-10.996-3.138-3.186-4.742-4.639-3.565-3.229m60.439-1.352c.048 1.165.285 1.402.604.605.289-.722.253-1.585-.079-1.917-.332-.332-.568.258-.525 1.312m9.921-1.136c0 .246 1.164 2.608 2.587 5.25 2.298 4.267 2.515 5.528 1.951 11.303-.808 8.283-5.879 23.436-12.548 37.5-10.851 22.886-17.16 42.637-15.078 47.206 1.351 2.965 3.086 2.114 3.094-1.515.01-5.174 2.23-10.858 12.964-33.191 11.72-24.386 16.679-37.163 17.658-45.496.631-5.363-.245-13.22-1.35-12.115-.327.327-1.198.092-1.936-.52-1.716-1.424-1.795-4.246-.092-3.273.688.392-.072-.706-1.687-2.441-2.511-2.697-5.563-4.183-5.563-2.708m260.641 3.508c.315 1.576.041 4.477-.609 6.447-2.455 7.438-17.782 25.414-29.032 34.048-13.321 10.224-45.189 26.408-63.5 32.25-3.594 1.146-4.195 3.645-2.455 10.197 1.684 6.339 5.378 12.556 8.99 15.128l3.027 2.155-2.553-3.762c-2.776-4.09-5.851-13.403-5.326-16.128.221-1.151 3.883-3.02 11.322-5.781 12.324-4.572 39.269-18.219 49.967-25.306 9.259-6.135 23.766-20.756 30.297-30.537 5.702-8.539 6.705-13.487 3.671-18.117-2.449-3.739-4.492-4.058-3.799-.594m-47.141.893c-17.745 5.863-32.485 19.786-41.98 39.652-5.443 11.39-9.441 27.5-6.824 27.5.776 0 8.304-5.081 8.304-5.605 0-.183-.675-.073-1.5.243-1.901.73-1.93.978.856-7.213 8.947-26.299 27.811-45.507 49.894-50.804 2.198-.527 2.766-.304 2.829 1.11.05 1.125.448.756 1.094-1.014.559-1.531.762-3.443.453-4.25-.743-1.935-6.632-1.765-13.126.381m-191.808 4.157c2.199 4.238 2.59 6.268 2.549 13.25-.06 10.353-1.541 14.392-15.503 42.278-13.142 26.25-15.541 31.942-16.344 38.773-.555 4.72-.357 5.731 1.483 7.571 2.397 2.397 6.165 3.084 4.249.774-2.448-2.949 1.035-12.573 14.125-39.032 15.745-31.826 18.148-38.427 17.519-48.119-.486-7.494-2.729-12.991-7.243-17.75-1.434-1.513-2.793-2.75-3.02-2.75-.226 0 .757 2.252 2.185 5.005M1084 851.881c0 .668-1.237 2.381-2.75 3.807-1.513 1.426-2.102 2.389-1.311 2.139 1.933-.609 5.602-5.619 4.744-6.477-.376-.376-.683-.137-.683.531M712.3 857c0 3.025.187 4.263.416 2.75.229-1.513.229-3.987 0-5.5s-.416-.275-.416 2.75m182.646 3.919c-13.675 8.979-24.611 24.289-29.983 41.977-1.851 6.094-2.142 8.935-1.751 17.069.396 8.208.959 10.803 3.544 16.327 2.822 6.03 10.922 16.363 11.991 15.295.25-.25-.545-1.497-1.767-2.771-3.066-3.197-6.716-11.24-8.084-17.816-1.407-6.759-.6-20.983 1.273-22.455.732-.575 2.41-4.195 3.729-8.045 4.882-14.253 10.641-23.859 20.812-34.71 3.46-3.691 6.29-6.954 6.29-7.25 0-1.132-1.761-.44-6.054 2.379m-70.788.081c0 1.375.227 1.938.504 1.25.278-.687.278-1.812 0-2.5-.277-.687-.504-.125-.504 1.25m245.592-1.338c.688.278 1.813.278 2.5 0 .688-.277.125-.504-1.25-.504s-1.937.227-1.25.504m5.063.021c.721.289 1.584.253 1.916-.079.332-.332-.258-.568-1.312-.525-1.165.048-1.402.285-.604.604m-821.855 5.567c4.144 4.415 5.042 5.209 5.042 4.458 0-.16-2.137-2.298-4.75-4.75l-4.75-4.458 4.458 4.75m616.504 2l-4.962 5.25 5.25-4.962c4.878-4.612 5.709-5.538 4.962-5.538-.158 0-2.52 2.362-5.25 5.25m-158.383-.667c.048 1.165.285 1.402.604.605.289-.722.253-1.585-.079-1.917-.332-.332-.568.258-.525 1.312m112 0c.048 1.165.285 1.402.604.605.289-.722.253-1.585-.079-1.917-.332-.332-.568.258-.525 1.312m229.109-.52c.24.721 1.028 1.509 1.75 1.75.75.25 1.125-.125.875-.875-.241-.722-1.029-1.51-1.75-1.75-.75-.25-1.125.125-.875.875m16.062-.355c-1.406.516-1.734 4.292-.372 4.292.482 0 1.453-.694 2.157-1.542 1.412-1.702.248-3.495-1.785-2.75M264 875.017c14.849 13.25 41.197 25.335 67.808 31.1 14.565 3.156 40.491 6.009 41.414 4.558 1.789-2.813.207-3.331-15.262-4.995-40-4.301-64.624-12.2-89.96-28.856-5.292-3.479-6.47-4.011-4-1.807m784.496-1.01c-.343.554.1 1.285.984 1.624 1.914.734 2.981-.075 2.061-1.564-.83-1.344-2.235-1.371-3.045-.06m-10.932 3.286c.376.986.935 1.541 1.243 1.233.308-.307.001-1.114-.683-1.793-.988-.98-1.102-.865-.56.56m20.13.346c-.799.799.104 2.361 1.365 2.361.518 0 .941-.675.941-1.5 0-1.546-1.18-1.987-2.306-.861M926 886.5c-4.097 4.125-7.225 7.5-6.95 7.5.275 0 3.853-3.375 7.95-7.5 4.097-4.125 7.225-7.5 6.95-7.5-.275 0-3.853 3.375-7.95 7.5m126.75-3.607c-2.1 2.129-2.275 4.107-.365 4.107 1.591 0 4.82-4.462 3.896-5.385-.921-.922-1.605-.674-3.531 1.278m-220.2 6.973c.522.477 3.2.537 5.95.134l5-.733-5.95-.133c-3.41-.077-5.544.236-5 .732M672.5 891c.34.55.816 1 1.059 1s.441-.45.441-1-.477-1-1.059-1-.781.45-.441 1m9.25-.338c.688.278 1.813.278 2.5 0 .688-.277.125-.504-1.25-.504s-1.937.227-1.25.504m5.063 1.021c.721.289 1.584.253 1.916-.079.332-.332-.258-.568-1.312-.525-1.165.048-1.402.285-.604.604m-10.121 2.099c.269.945 2.446 2.651 4.839 3.791 4.014 1.913 4.274 1.932 3.376.253-.536-1.001-2.713-2.707-4.839-3.791-3.505-1.789-3.819-1.812-3.376-.253m161.365-.351c-.86 1.037-.147 1.632 3.327 2.775 4.166 1.372 4.358 1.354 3.323-.304-1.696-2.715-5.327-4.064-6.65-2.471m-500.244 1.252c.721.289 1.584.253 1.916-.079.332-.332-.258-.568-1.312-.525-1.165.048-1.402.285-.604.604m118.937 2.979c.688.278 1.813.278 2.5 0 .688-.277.125-.504-1.25-.504s-1.937.227-1.25.504m456.122 1.088c-1.243 1.586-1.208 1.621.378.378 1.666-1.307 2.195-2.128 1.372-2.128-.207 0-.995.788-1.75 1.75m-461.122-.088c.688.278 1.813.278 2.5 0 .688-.277.125-.504-1.25-.504s-1.937.227-1.25.504m-9.481 1.031c.973.254 2.323.237 3-.037.677-.274-.119-.481-1.769-.461-1.65.02-2.204.244-1.231.498m-13.507 1.014c1.244.239 3.044.23 4-.02s-.062-.446-2.262-.435c-2.2.011-2.982.216-1.738.455m418.317 1.876c.048 1.165.285 1.402.604.605.289-.722.253-1.585-.079-1.917-.332-.332-.568.258-.525 1.312m60.793.167c-1.243 1.586-1.208 1.621.378.378 1.666-1.307 2.195-2.128 1.372-2.128-.207 0-.995.788-1.75 1.75m-5 4c-1.243 1.586-1.208 1.621.378.378 1.666-1.307 2.195-2.128 1.372-2.128-.207 0-.995.788-1.75 1.75m-56.308 3.957c-.542 1.425-.428 1.54.56.56.684-.679.991-1.486.683-1.793-.308-.308-.867.247-1.243 1.233m-319.788.026c2.352.212 5.952.209 8-.006s.124-.388-4.276-.384c-4.4.003-6.076.179-3.724.39m14.037.95c.721.289 1.584.253 1.916-.079.332-.332-.258-.568-1.312-.525-1.165.048-1.402.285-.604.604m234.266.9c.048 1.165.285 1.402.604.605.289-.722.253-1.585-.079-1.917-.332-.332-.568.258-.525 1.312M550 914c.825.533 1.95.969 2.5.969s.325-.436-.5-.969c-.825-.533-1.95-.969-2.5-.969s-.325.436.5.969m290.453 5.25l-3.953 4.25 4.25-3.953c3.952-3.676 4.71-4.547 3.953-4.547-.163 0-2.076 1.913-4.25 4.25M529 917.878c0 1.296 1.983 2.605 6.75 4.456 2.541.986 4.25 1.233 4.25.613 0-1.568 6.738-.12 12.5 2.685l5 2.434-3.897-3.516c-2.144-1.934-6.323-4.424-9.288-5.533-5.431-2.032-15.315-2.768-15.315-1.139m-259.272 1.844c1.775.221 4.925.224 7 .008 2.074-.217.622-.397-3.228-.402-3.85-.004-5.548.173-3.772.394M564.17 922.5c5.47 5.986 10.576 16.095 11.709 23.183 6.566 41.072-47.948 71.892-107.313 60.67-22.251-4.206-44.433-13.207-79.466-32.245-5.17-2.809-9.67-5.104-10-5.1-.33.004-4.385 3.636-9.012 8.07-13.508 12.947-28.161 20.428-49.088 25.063-8.828 1.955-13.367 2.327-28.5 2.336-22.586.015-34.475-2.368-49.542-9.93-3.827-1.92-6.958-3.334-6.958-3.141 0 .193 2.363 1.967 5.25 3.944 19.852 13.587 55.483 18.233 86.25 11.246 21.322-4.842 34.584-11.758 48.688-25.391l7.688-7.432 13.812 7.3c29.036 15.346 43.109 21.559 59.767 26.386 34.095 9.88 63.71 8.259 90.095-4.934 12.623-6.311 20.386-12.682 26.368-21.64 12.724-19.055 10.084-40.007-7.106-56.385-3.464-3.3-4.653-4.2-2.642-2m-272.42-1.838c.688.278 1.813.278 2.5 0 .688-.277.125-.504-1.25-.504s-1.937.227-1.25.504m7 1c.688.278 1.813.278 2.5 0 .688-.277.125-.504-1.25-.504s-1.937.227-1.25.504m205.41 3.522c-2.387.533-4.073 1.236-3.747 1.563.327.326-.119 1.681-.989 3.01-.871 1.329-1.352 2.648-1.069 2.932.284.283 2.682-.19 5.33-1.051 13.932-4.529 30.093-2.175 39.308 5.725l2.493 2.137-1.993-2.492c-3.347-4.184-5.582-5.906-10.895-8.393-9.247-4.328-19.102-5.517-28.438-3.431m343.59.208c-.765.766-3.61 2.511-6.321 3.876-19.78 9.967-41.863 12.239-55.706 5.732l-4.709-2.214-5.757 5.279c-16.913 15.508-42.925 27.264-63.361 28.635-10.466.702-14.522.019-19.545-3.289l-3.851-2.536 4.43 4.189c5.934 5.61 9.526 6.936 18.788 6.935 21.23-.004 48.076-11.336 67.899-28.663l6.117-5.347 5.883 2.747c5.381 2.513 6.863 2.742 17.383 2.685 13.39-.073 20.214-1.656 33.318-7.73 7.387-3.424 8.975-3.853 9.781-2.639 1.05 1.581.274-2.743-1.221-6.802-.97-2.634-1.269-2.716-3.128-.858m-80.345 1.858l-1.905 2.25 2.25-1.905c2.114-1.79 2.705-2.595 1.905-2.595-.19 0-1.202 1.013-2.25 2.25m-498.905.379c-2.2.24-7.825 1.353-12.5 2.474-20.61 4.943-33.967 16.323-33.994 28.965-.009 3.868 2.796 12.522 4.521 13.955 2.259 1.874 2.916.46 1.441-3.1-2.038-4.919-1.568-10.86 1.305-16.5 3.741-7.347 11.049-12.392 22.88-15.796 8.237-2.37 31.338-4.885 38.347-4.176 4.361.442 5.59.319 4.5-.451-1.088-.768.286-.895 5-.462 9.336.858 24.785 4.39 26.44 6.044.809.81 2.189 1.132 3.236.756 1.003-.361 1.475-.273 1.048.195-.426.468 1.824 1.825 5 3.015 3.177 1.19 9.294 3.606 13.594 5.369 17 6.968 9.066.204-9.318-7.945-19.901-8.821-33.369-11.982-53-12.44-7.975-.186-16.3-.142-18.5.097m276.5-.251c0 .207.788.995 1.75 1.75 1.586 1.243 1.621 1.208.378-.378-1.307-1.666-2.128-2.195-2.128-1.372m8.324 9.622c1.962 3.025 4.099 7.656 4.75 10.29 1.181 4.778.837 17.586-.562 20.96-1.375 3.316 2.202 1.873 3.822-1.542 2.858-6.022 4.906-18.593 2.82-17.303-.465.287-1.876-1.677-3.136-4.366-1.259-2.689-4.308-6.835-6.775-9.214l-4.485-4.325 3.566 5.5m256.489-3.317c.721.289 1.584.253 1.916-.079.332-.332-.258-.568-1.312-.525-1.165.048-1.402.285-.604.604m-506 1c.721.289 1.584.253 1.916-.079.332-.332-.258-.568-1.312-.525-1.165.048-1.402.285-.604.604m6 1c.721.289 1.584.253 1.916-.079.332-.332-.258-.568-1.312-.525-1.165.048-1.402.285-.604.604m-94.941 2.067c-1.243 1.586-1.208 1.621.378.378 1.666-1.307 2.195-2.128 1.372-2.128-.207 0-.995.788-1.75 1.75m384.286.25c0 1.375.227 1.938.504 1.25.278-.687.278-1.812 0-2.5-.277-.687-.504-.125-.504 1.25m154.247 3.25l-1.905 2.25 2.25-1.905c1.237-1.048 2.25-2.06 2.25-2.25 0-.8-.805-.209-2.595 1.905M274 941.08c-14.276 1.814-27.42 7.218-32.99 13.562-7.289 8.301-6.043 17.888 3.689 28.4 7.28 7.863 10.731 9.685 4.986 2.632-5.846-7.178-8.296-14.293-6.643-19.3 5.007-15.172 29.655-23.445 60.961-20.461 14.829 1.414 42.8 9.189 47.706 13.261 1.248 1.035 1.428.86 1.137-1.1-.294-1.979-2.134-2.998-12.195-6.752-26.301-9.815-46.089-12.856-66.651-10.242m324.195 2.42c.02 1.65.244 2.204.498 1.231.254-.973.237-2.323-.037-3-.274-.677-.481.119-.461 1.769m70.677.25c-1.243 1.586-1.208 1.621.378.378 1.666-1.307 2.195-2.128 1.372-2.128-.207 0-.995.788-1.75 1.75m9.628 2.315c-7.89 6.251-27.595 15.599-38.878 18.444-11.677 2.944-24.626 3.352-30.362.955l-3.676-1.536 2.329 2.48c3.932 4.184 8.191 5.592 16.923 5.592 16.623 0 37.206-6.761 53.058-17.429 6.047-4.069 6.782-4.249 7.417-1.821.251.962.509-1.062.573-4.5.139-7.491-.462-7.669-7.384-2.185M953 945c-.901.582-1.025.975-.309.985.655.008 1.469-.435 1.809-.985.767-1.242.421-1.242-1.5 0m-404.714 6.5c.008 2.75.202 3.756.432 2.236.229-1.52.223-3.77-.014-5-.237-1.23-.425.014-.418 2.764m314.714-1c1.866 1.925 3.617 3.5 3.892 3.5.275 0-1.026-1.575-2.892-3.5-1.866-1.925-3.617-3.5-3.892-3.5-.275 0 1.026 1.575 2.892 3.5m18.751-.452c1.787 1.951 3.249 4.088 3.249 4.75 0 .661.45 1.202 1 1.202 1.92 0 .969-1.623-3.249-5.547-3.88-3.61-3.967-3.646-1-.405m-283.672.535c.048 1.165.285 1.402.604.605.289-.722.253-1.585-.079-1.917-.332-.332-.568.258-.525 1.312M650 955c-.901.582-1.025.975-.309.985.655.008 1.469-.435 1.809-.985.767-1.242.421-1.242-1.5 0m263.776-.267c2.352.212 5.952.209 8-.006s.124-.388-4.276-.384c-4.4.003-6.076.179-3.724.39m-273.963 3.95c.721.289 1.584.253 1.916-.079.332-.332-.258-.568-1.312-.525-1.165.048-1.402.285-.604.604m-95.189 9.856c-.965 2.514-.681 3.163.498 1.136.584-1.004.851-2.036.593-2.293-.257-.258-.749.263-1.091 1.157m-9.219 15.711l-1.905 2.25 2.25-1.905c1.237-1.048 2.25-2.06 2.25-2.25 0-.8-.805-.209-2.595 1.905m-102.964 1.195c1.068.855 2.38 1.555 2.917 1.555 1.27 0 .703-.462-2.358-1.92-2.357-1.122-2.389-1.102-.559.365m97.964 3.805l-1.905 2.25 2.25-1.905c2.114-1.79 2.705-2.595 1.905-2.595-.19 0-1.202 1.013-2.25 2.25m-4.533 3.5c-1.243 1.586-1.208 1.621.378.378 1.666-1.307 2.195-2.128 1.372-2.128-.207 0-.995.788-1.75 1.75m-226.059 6.933c.721.289 1.584.253 1.916-.079.332-.332-.258-.568-1.312-.525-1.165.048-1.402.285-.604.604m211 0c.721.289 1.584.253 1.916-.079.332-.332-.258-.568-1.312-.525-1.165.048-1.402.285-.604.604m-33.063.979c.688.278 1.813.278 2.5 0 .688-.277.125-.504-1.25-.504s-1.937.227-1.25.504m29.063.021c.721.289 1.584.253 1.916-.079.332-.332-.258-.568-1.312-.525-1.165.048-1.402.285-.604.604m-14.549 1.035c1.52.229 3.77.223 5-.014 1.23-.237-.014-.425-2.764-.418-2.75.008-3.756.202-2.236.432" fill="undefined" fill-rule="evenodd"/></svg>