<svg xmlns="http://www.w3.org/2000/svg" width="1240" height="1240"><path d="M406.19 97.17c-.93.369-70.087 69.103-153.683 152.744L100.515 401.988l-.224 215.756-.224 215.756 152.716 152.95L405.5 1139.399l215.898.068 215.899.068 152.851-152.454L1143 834.628l-.011-216.064-.011-216.064-152.383-152.688L838.212 97.123l-215.166-.311c-118.342-.172-215.927-.01-216.856.358m-86.342 349.266c-.192.164-4.661.583-9.932.929-5.272.347-11.684 1.263-14.25 2.035-2.566.772-4.666 1.243-4.666 1.047 0-.197-3.038.779-6.75 2.169-19.994 7.481-34.853 20.396-44.163 38.384-4.278 8.265-8.496 20.762-9.618 28.5-.399 2.75-.901 5.9-1.115 7-.526 2.707-.47 25.375.071 28.5.238 1.375.69 4.525 1.005 7 1.233 9.68 4.11 19.095 8.751 28.637 6.469 13.299 19.261 24.679 36.643 32.596 3.672 1.673 16.801 6.841 29.176 11.485 41.827 15.696 46.229 18.778 49.58 34.709 1.734 8.246 1.64 40.36-.143 48.866-3.897 18.588-13.117 25.663-34.196 26.24-15.06.412-23.772-2.238-30.313-9.22-7.609-8.124-10.048-15.229-10.233-29.807-.078-6.191-.553-10.594-1.163-10.79-.568-.182-12.507-.303-26.532-.27l-25.5.061.01 13.496c.013 18.376 1.194 24.937 6.569 36.497 12.037 25.888 37.422 43.68 68.921 48.305 10.252 1.506 34.96.501 42.772-1.74 1.775-.509 3.228-.752 3.228-.54 0 .659 12.801-4.396 18.802-7.425 6.337-3.199 16.611-10.636 19.698-14.259 5.445-6.39 8.56-10.9 11.424-16.536 4.745-9.336 6.697-15.505 9.593-30.305 2.68-13.692 2.599-47.015-.155-64-3.124-19.266-13.178-35.406-28.332-45.48-9.204-6.119-14.999-8.63-45.03-19.517-14.025-5.084-28.184-10.565-31.465-12.179-13.089-6.441-18.174-13.348-19.418-26.376-.774-8.096-.605-24.397.294-28.448.306-1.375.843-3.85 1.195-5.5 2.406-11.275 12.971-21.877 23.894-23.977 3.7-.712 16.194-.736 19.25-.037 1.238.283 3.21.725 4.383.982 3.879.852 10.324 4.703 13.206 7.891 6.64 7.347 9.732 16.349 10.524 30.641l.637 11.5h53l.133-15c.155-17.443-1.219-25.57-6.111-36.159-4.304-9.314-8.112-14.772-15.829-22.681-14.603-14.967-36.032-24.754-57.527-26.273-4.216-.298-8.185-.701-8.818-.895-.634-.195-1.309-.22-1.5-.056m386 .005c-.192.167-3.723.572-7.848.899-10.223.813-13.08 1.388-23.5 4.734-32.329 10.381-54.558 36.926-57.178 68.277-.872 10.435-.868 193.234.004 200.972 4.23 37.509 32.805 64.851 74.674 71.45 5.68.896 21.894.933 28.615.067 7.701-.993 20.021-4.653 28.007-8.321 26.95-12.377 43.605-34.851 46.972-63.384.898-7.602.85-197.479-.051-203.15-2.865-18.043-9.315-31.35-21.419-44.186-13.386-14.197-36.462-24.69-57.958-26.353-4.216-.326-8.185-.754-8.818-.951-.634-.196-1.309-.221-1.5-.054m-282.428 3.473c-.231.231-.42 10.644-.42 23.141v22.722l31-.139 31-.138v295.533l26.75-.267 26.75-.266V495.592l30-.145c16.5-.08 30.452-.213 31.006-.296 1.02-.153 1.515-45.026.5-45.275-1.446-.356-176.231-.318-176.586.038m420.446-.442c-.073.015-.195 76.865-.271 170.778L843.458 791H897V658l13.75-.087c22.745-.143 31.49-.804 43.75-3.304 14.914-3.042 33.427-14.25 42.504-25.733 8.831-11.172 15.886-26.328 17.397-37.376.952-6.952 1.642-12.839 2.11-18 .569-6.27.572-35.638.004-41-1.333-12.601-1.764-15.597-3.088-21.5-3.401-15.156-9.394-26.042-20.389-37.038-9.666-9.665-18.649-15.235-30.538-18.935-8.682-2.702-9.615-2.892-23-4.677-3.463-.462-93.657-1.29-95.634-.878M701.5 496.14c-7.277 1.059-8.623 1.437-13.831 3.885-5.285 2.485-10.967 7.734-13.397 12.379-3.954 7.558-4.039 10.008-3.83 110.219.232 110.741-.427 102.638 9.103 111.956 15.53 15.185 47.032 12.724 57.92-4.524 5.212-8.256 5.204-8.076 5.048-112.055l-.144-96.5-2.247-5.726c-3.867-9.851-15.317-18.115-26.914-19.424-2.039-.23-4.383-.535-5.208-.678-.825-.142-3.75.068-6.5.468m195.929-.236c-.236.236-.429 26.387-.429 58.113V611.7l18.25-.224c10.038-.124 19.6-.502 21.25-.84 1.65-.339 3.954-.808 5.121-1.043 4.678-.945 12.352-5.755 16.257-10.192 4.607-5.234 6.888-11.447 7.856-21.401.839-8.627.854-38.733.023-47.349-1.983-20.581-11.427-31.409-29.938-34.327-4.05-.638-37.802-1.008-38.39-.42M471.614 915.75c.079 9.763.198 17.99.265 18.283.099.437 3.005.459 6.266.048.355-.044.698-8.181.763-18.081l.118-18h-7.554l.142 17.75M607 916c0 16.444.151 18.007 1.75 18.083.962.046 2.65.188 3.75.315 1.864.216 1.989-.312 1.839-7.731-.145-7.136.944-12.532 2.572-12.744a62.734 62.734 0 002.354-.413c3.571-.682 4.735 2.132 4.735 11.448v8.815l3.044.447c1.674.245 3.324-.007 3.667-.561.342-.554.572-5.245.511-10.424-.127-10.774-1.382-13.688-6.477-15.044-3.601-.958-8.669.086-9.909 2.041-.453.714-.812-1.683-.821-5.482L614 898h-7v18m33.2-16.8c-2.934 2.934.977 6.846 4.8 4.8 2.126-1.138 2.363-1.89 1.393-4.418-.715-1.864-4.479-2.096-6.193-.382m53.109.436c-.345.9-.169 2.362.391 3.25.902 1.43 1.985 1.688 5.193 1.239 1.54-.216 2.193-3.316 1.002-4.752-1.573-1.895-5.822-1.726-6.586.263m-105.82 5.69c-.739 1.746-2.264 3.732-3.389 4.415-2.094 1.272-1.903 4.383.245 3.977.771-.145 1.329 2.69 1.679 8.521.603 10.039 1.699 11.802 7.606 12.229 5.032.364 7.37-.927 7.37-4.071 0-2.077-.359-2.418-2-1.897-1.1.349-2.841.368-3.868.042-1.613-.512-1.853-1.581-1.75-7.818l.118-7.224 3.25.08c1.788.044 3.307-.181 3.378-.5.981-4.456.588-5.08-3.198-5.08-3.365 0-3.833-.303-4.114-2.661-.47-3.958-3.652-3.966-5.327-.013m255.412-.088c-.646 1.561-2.041 3.302-3.098 3.868-2.181 1.167-2.04 4.394.192 4.394 1.152 0 1.481 1.606 1.536 7.5.082 8.98.785 11.37 3.738 12.706 2.874 1.302 9.778.837 10.742-.723 1.55-2.509-.01-4.637-3.07-4.188-2.269.333-3.094-.034-3.689-1.642-.606-1.639-.831-10.245-.346-13.233.052-.319 1.556-.544 3.344-.5 2.826.07 3.291-.279 3.566-2.67.298-2.588.085-2.75-3.618-2.75-3.721 0-3.918-.152-3.61-2.8.278-2.385-.032-2.8-2.092-2.8-1.714 0-2.762.827-3.595 2.838m-442.504 3.4c-1.568.813-3.199 2.015-3.624 2.671-.521.802-.974.456-1.39-1.059-.456-1.666-1.36-2.25-3.48-2.25h-2.864l.087 13 .087 13h7.342l-.112-7.594c-.128-8.679 1.218-11.303 6.057-11.806 2.519-.261 3.049-.795 3.304-3.328.376-3.733-1.514-4.654-5.407-2.634m16.965-.029c-3.555 1.222-4.264 1.85-6.481 5.734-3.904 6.844.861 19.245 7.619 19.827 9.513.82 13.5-.307 13.5-3.813 0-2.28-.256-2.402-3.75-1.78-4.065.723-3.968.715-6.429.541-2.081-.146-4.821-2.789-4.821-4.649 0-1.049 2.018-1.459 8.25-1.679 9.095-.32 8.351.355 7.869-7.139-.172-2.67-5.577-7.344-9.089-7.86-1.654-.243-4.654.125-6.668.818m34.638-.413c-1.344.497-2.802 1.444-3.24 2.104-.582.877-1.074.729-1.828-.55-.6-1.019-2.227-1.75-3.892-1.75h-2.862l.161 18.75.161 18.75 2.891.33c3.765.43 4.364-.741 4.042-7.896-.147-3.264-.063-5.934.185-5.934.249 0 1.51.693 2.803 1.54 4.101 2.687 10.599.241 12.675-4.772 2.716-6.556 1.171-16.836-2.894-19.255-3.043-1.811-5.71-2.239-8.202-1.317m41.966-.191c-4.795.828-5.871 1.644-5.257 3.991.466 1.78 1.089 1.928 5.804 1.374 4.714-.555 5.405-.391 6.428 1.519 1.328 2.481.867 2.759-5.661 3.417-4.715.474-9.215 2.971-9.405 5.217-.069.812-.205 2.04-.302 2.727-.365 2.573 1.602 6.508 3.727 7.457 3.18 1.42 8.358.912 10.504-1.03 2.291-2.073 3.196-2.123 3.196-.177 0 1.006 1.007 1.5 3.059 1.5h3.058l-.176-9.75c-.125-6.851-.652-10.568-1.775-12.5-.878-1.513-1.838-2.761-2.132-2.774-.294-.013-2.109-.374-4.034-.802-1.925-.428-5.09-.504-7.034-.169m29.547.552c-2.011.691-4.304 2.086-5.097 3.1-1.439 1.842-2.921 6.733-2.754 9.093.048.688.144 2.593.213 4.234.201 4.804 4.742 9.029 10.119 9.417 6.772.489 9.686-.859 9.791-4.528.07-2.47-.229-2.909-1.6-2.349-.927.379-3.101.896-4.831 1.15-3.904.572-6.354-2.399-6.354-7.705 0-6.058 3.519-8.802 8.778-6.845 1.88.7 2.476.413 3.412-1.642.624-1.37.855-2.771.512-3.113-1.519-1.519-8.734-2-12.189-.812m26.696-.505c-6.296 1.362-9.821 7.262-8.933 14.953.869 7.521 4.906 11.173 12.698 11.487 6.44.261 9.55-1.014 9.799-4.014.223-2.703-.623-2.955-5.359-1.597-3.89 1.116-8.909-.84-9.675-3.772-.529-2.022-.205-2.109 7.855-2.109H565v-3.55c0-6.5-2.666-9.615-10-11.686-.825-.233-2.981-.103-4.791.288m109.93.039c-4.489.937-6.466 3.115-6.355 7 .107 3.786 1.595 5.472 7.416 8.402 2.365 1.19 4.438 2.879 4.607 3.751.487 2.519-2.855 2.715-10.715.63-.934-.248-1.471.562-1.597 2.411-.233 3.417.269 3.749 6.251 4.133 7.085.455 10.744-.881 12.533-4.576 2.399-4.952.412-8.357-6.875-11.782-4.832-2.271-5.917-5.06-1.969-5.06 1.339 0 3.554.425 4.921.945 2.213.842 2.599.622 3.513-2 .565-1.62.713-2.965.329-2.989-.384-.024-2.498-.386-4.698-.805-2.2-.419-5.512-.446-7.361-.06m56.798-.05c-7.14 1.91-10.048 6.421-9.441 14.649.596 8.096 3.483 11.249 10.797 11.795 6.233.464 9.431-1.021 9.208-4.278-.121-1.769-.673-2.586-1.593-2.359-6.936 1.714-9.384 1.109-10.671-2.639-2.617-7.619 1.946-13.539 8.543-11.084 1.915.713 2.439.428 3.278-1.777.549-1.444.778-2.845.51-3.114-1.039-1.038-8.202-1.842-10.631-1.193m25.186.048c-1.857.391-4.557 1.891-6 3.333-2.328 2.328-2.623 3.406-2.623 9.581 0 6.443.229 7.187 3.09 10.049 2.208 2.208 4.223 3.18 7.06 3.408 8.306.668 13.808-4.268 14.256-12.789.493-9.344-6.661-15.5-15.783-13.582m35.133-.041c-1.784.383-3.869 1.216-4.633 1.85-1.075.892-1.522.807-1.975-.372-.322-.84-1.737-1.526-3.146-1.526h-2.56l.279 13.173.279 13.174 3.25.15 3.25.151.074-7.074c.086-8.11.601-11.649 1.884-12.932 1.396-1.396 5.946-1.6 6.788-.303.415.638.979 5.403 1.254 10.587l.5 9.425 3.25.149 3.25.148v-10.601c0-11.67-.901-14.147-5.734-15.768-1.521-.511-4.226-.615-6.01-.231m39.856.116c-5.453.968-5.709 1.23-4.279 4.369.99 2.173 1.456 2.383 3.209 1.445 1.128-.604 3.492-.958 5.254-.788 2.444.237 3.28.843 3.524 2.56.28 1.976-.119 2.25-3.283 2.25-7.844 0-13.067 4.19-12.154 9.749.249 1.513.49 3.077.535 3.475.045.399 1.428 1.421 3.073 2.271 3.322 1.718 7.01 1.39 10.566-.94 1.914-1.255 2.499-1.296 3.147-.223 1.181 1.956 4.02 2.719 5.059 1.359.5-.655.831-5.605.737-10.999-.146-8.357-.469-10.106-2.185-11.821-2.63-2.63-7.738-3.678-13.203-2.707m-177.231.086c-.32.673-.499 24.387-.19 25.282.385 1.116 4.256 1.237 5.956.186.639-.395 1.043-5.527 1.037-13.182L646.676 908h-3.338c-1.836 0-3.392.112-3.457.25M693 920.835v12.955l3.75.358 3.75.357-.046-13.002-.046-13.003-3.704-.31-3.704-.311v12.956m-274.965-5.901C416.463 917.873 416.627 918 422 918c5.277 0 5.751-.427 3.608-3.25-1.794-2.364-6.268-2.255-7.573.184m31.338-.465c-1.417 1.036-1.902 4.313-1.517 10.246.293 4.505 7.331 5.421 8.693 1.131 2.554-8.047-1.955-15.195-7.176-11.377m101.054-.704c-.59.404-1.363 1.523-1.719 2.485-.56 1.518.012 1.75 4.323 1.75 3.411 0 4.969-.408 4.969-1.3 0-2.993-4.781-4.846-7.573-2.935m191.565 1.243c-2.159 2.159-2.188 9.846-.046 12.427 2.856 3.442 7.649.998 8.562-4.366.545-3.198-.958-8.973-2.379-9.146-.346-.042-1.451-.232-2.456-.422-1.005-.191-2.662.488-3.681 1.507M494.607 923.2c-.884.495-1.607 2.002-1.607 3.35 0 2.01.494 2.447 2.75 2.435 3.667-.021 4.973-.985 5.397-3.985.297-2.107-.063-2.516-2.29-2.599-1.454-.055-3.367.305-4.25.799m323.416.777c-2.527 2.527-1.591 5.023 1.884 5.023 3.3 0 5.093-1.655 5.093-4.7 0-2.975-4.133-3.167-6.977-.323m-233.65 41.216c-1.456 2.331-1.238 3.809.714 4.853 2.734 1.464 6.127-.531 5.724-3.364-.36-2.53-5.104-3.627-6.438-1.489M457.597 981.75a48929.65 48929.65 0 00-6.297 16.872c-.569 1.535 4.453 2.38 5.641.949.525-.632 2.327-4.844 4.006-9.36L466.975 974l2.975-8H463.477l-5.88 15.75m24.102-7.701c-4.976.855-6.214 2.12-4.75 4.856.934 1.745 1.49 1.93 3.139 1.048 1.103-.59 3.446-.933 5.208-.763 2.444.237 3.28.843 3.524 2.56.28 1.976-.119 2.25-3.283 2.25-7.532 0-13.079 4.196-12.225 9.249 1.232 7.287 7.61 9.653 14.267 5.291 1.913-1.253 2.472-1.288 3.125-.193 1.069 1.792 5.067 2.721 5.559 1.292.216-.626.319-5.553.229-10.947-.139-8.363-.46-10.104-2.177-11.821-2.521-2.522-7.667-3.673-12.616-2.822m35.624-.279c-1.198.193-2.716.998-3.373 1.79-1.55 1.868-2.95 1.84-2.95-.06 0-1-1-1.5-3-1.5-2.423 0-3.014.433-3.072 2.25-.039 1.237-.124 9.675-.187 18.75l-.116 16.5 3.687.31 3.688.311V997.77l2.256 1.478c2.501 1.639 8.259 1.4 10.468-.434 4.501-3.735 5.785-14.827 2.366-20.433-1.994-3.271-6.085-5.202-9.767-4.611m29.135 1.252c-2.999 1.529-3.668 1.594-4.126.401-.3-.783-1.848-1.423-3.439-1.423H536v38h3.5c3.814 0 3.973-.463 3.52-10.25-.194-4.199.083-4.384 3.351-2.242 5.002 3.277 13.473-2.011 13.754-8.585a280.6 280.6 0 01.205-4.173c.216-3.374-1.597-8.644-3.595-10.452-3.275-2.963-6.245-3.332-10.277-1.276m60.665-.937c-5.586 1.181-8.424 4.889-8.893 11.621-.687 9.847 2.632 14.302 11.02 14.792 6.004.35 8.75-1.145 8.75-4.766 0-2.407-.32-2.817-1.75-2.242-3.645 1.467-6.868 1.51-8.775.115-2.734-1.999-2.835-11.137-.144-13.105 1.593-1.165 2.976-1.201 7.966-.207.905.18 3.986-4.344 3.375-4.955-.977-.977-8.826-1.828-11.549-1.253m27.377-.339c-7.784 1.425-10.787 5.08-10.846 13.202-.066 9.021 5.118 14.201 13.537 13.525 7.14-.573 10.193-3.903 11.141-12.152 1.001-8.711-5.936-16.021-13.832-14.575m33.186.338c-1.548.428-3.424 1.283-4.169 1.902-1.034.858-1.574.734-2.277-.521-.562-1.005-1.857-1.513-3.325-1.305-2.389.338-2.404.419-2.458 12.84-.058 13.335.256 14.16 5.037 13.246 1.966-.376 2.142-1.078 2.269-9.077.118-7.436.43-8.905 2.189-10.33 5.043-4.086 7.643-.367 7.545 10.793-.073 8.408.554 9.463 5.106 8.593 2.167-.414 2.232-.76 1.971-10.577-.301-11.337-.724-12.91-3.877-14.417-3.675-1.756-5.078-1.957-8.011-1.147m44.972.959c-3.037 1.628-3.553 1.672-4.063.344-.374-.975-1.572-1.407-3.338-1.204l-2.753.317-.016 18.796-.015 18.797 3.514-.297 3.513-.296v-6.75c0-6.83.276-7.574 2.123-5.727 2.936 2.936 11.189 1.065 13.382-3.033.642-1.199 1.405-4.394 1.696-7.1 1.191-11.083-5.99-18.163-14.043-13.847m33.598-1.013c-1.784.393-3.869 1.234-4.633 1.868-1.075.892-1.522.807-1.975-.372-.322-.84-1.724-1.526-3.117-1.526H734v26.5h7l.015-8c.017-9.415 1.37-12.838 5.155-13.04 3.704-.198 4.761 2.411 5.07 12.515.279 9.081.058 8.77 5.76 8.136 1.466-.163 1.239-19.083-.265-22.04-1.597-3.141-6.313-4.96-10.479-4.041m25.956.163c-4.567 1.228-7.204 5.857-7.208 12.656-.007 9.094 4.474 14.825 10.672 13.65 1.003-.19 2.129-.38 2.503-.422.373-.043 1.385-.784 2.25-1.648 1.428-1.429 1.571-1.293 1.571 1.5 0 4.118-3.054 7.091-6.694 6.515-1.543-.245-4.268-.69-6.056-.99-2.93-.491-3.25-.304-3.25 1.903 0 3.126 3.77 4.554 10.898 4.127 5.919-.355 9.761-2.458 11.147-6.101.525-1.382.955-9.009.955-16.948V974h-2.893c-1.815 0-3.139.642-3.554 1.722-.454 1.182-.885 1.359-1.377.563-1.255-2.031-5.505-3.022-8.964-2.092m-188.304 1.557c-.456 8.638-.298 22.059.275 23.335.497 1.109 1.627 1.45 3.764 1.136l3.053-.448V974h-3.5c-2.632 0-3.523.434-3.592 1.75m-69.828 4.907c-3.79 2.654-1.927 14.343 2.286 14.343 4.31 0 7.022-7.946 4.405-12.911-1.529-2.899-3.878-3.402-6.691-1.432m30.971.292c-1.648 1.648-1.87 3.694-1.175 10.822.068.7 1.247 1.784 2.62 2.409 3.867 1.762 6.504-1.162 6.504-7.213 0-6.668-4.154-9.813-7.949-6.018m88.058-.149c-2.921 2.497-3.238 9.928-.538 12.629 4.001 4.001 8.429.65 8.429-6.378 0-2.662-.558-5.238-1.25-5.773-2.558-1.979-4.704-2.134-6.641-.478m78.376-.142c-2.035 2.035-1.976 10.708.086 12.771 3.339 3.339 7.296.834 7.784-4.929.317-3.728-.918-8.402-2.266-8.577a62.734 62.734 0 01-2.354-.413c-.971-.186-2.433.331-3.25 1.148m62.369.488c-1.468 1.468-1.932 3.104-1.752 6.175.394 6.714 4.061 9.474 8.386 6.311 2.145-1.568 2.539-9.689.585-12.044-1.982-2.388-5.083-2.578-7.219-.442m-208.549 4.5c-.261.681-.319 2.041-.13 3.023.284 1.477 1.378 1.786 6.334 1.786 5.97 0 5.991-.011 5.991-2.955 0-2.93-.051-2.956-5.86-3.023-3.786-.044-6.028.37-6.335 1.169m-83.282 4.331c-2.527 2.527-1.591 5.023 1.884 5.023 3.3 0 5.093-1.655 5.093-4.7 0-2.975-4.133-3.167-6.977-.323m206.017 4.475c-2.655 3.198 1.243 8.114 4.71 5.941 2.195-1.376 2.865-5.388 1.087-6.515-2.027-1.285-4.454-1.045-5.797.574" fill="undefined" fill-rule="evenodd"/></svg>